<?xml version="1.0" encoding="utf-8" standalone="no"?>
<!DOCTYPE svg PUBLIC "-//W3C//DTD SVG 1.1//EN"
  "http://www.w3.org/Graphics/SVG/1.1/DTD/svg11.dtd">
<!-- Created with matplotlib (http://matplotlib.org/) -->
<svg height="345pt" version="1.1" viewBox="0 0 460 345" width="460pt" xmlns="http://www.w3.org/2000/svg" xmlns:xlink="http://www.w3.org/1999/xlink">
 <defs>
  <style type="text/css">
*{stroke-linecap:butt;stroke-linejoin:round;}
  </style>
 </defs>
 <g id="figure_1">
  <g id="patch_1">
   <path d="M 0 345.6 
L 460.8 345.6 
L 460.8 0 
L 0 0 
z
" style="fill:#ffffff;"/>
  </g>
  <g id="axes_1">
   <g id="patch_2">
    <path d="M 57.6 307.584 
L 414.72 307.584 
L 414.72 41.472 
L 57.6 41.472 
z
" style="fill:#ffffff;"/>
   </g>
   <g id="PathCollection_1">
    <defs>
     <path d="M 0 1.118034 
C 0.296506 1.118034 0.580908 1.000231 0.790569 0.790569 
C 1.000231 0.580908 1.118034 0.296506 1.118034 0 
C 1.118034 -0.296506 1.000231 -0.580908 0.790569 -0.790569 
C 0.580908 -1.000231 0.296506 -1.118034 0 -1.118034 
C -0.296506 -1.118034 -0.580908 -1.000231 -0.790569 -0.790569 
C -1.000231 -0.580908 -1.118034 -0.296506 -1.118034 0 
C -1.118034 0.296506 -1.000231 0.580908 -0.790569 0.790569 
C -0.580908 1.000231 -0.296506 1.118034 0 1.118034 
z
" id="m13b2e1f049" style="stroke:#1f77b4;"/>
    </defs>
    <g clip-path="url(#p87b255c055)">
     <use style="fill:#1f77b4;stroke:#1f77b4;" x="73.840119" xlink:href="#m13b2e1f049" y="174.388207"/>
     <use style="fill:#1f77b4;stroke:#1f77b4;" x="77.119308" xlink:href="#m13b2e1f049" y="174.392201"/>
     <use style="fill:#1f77b4;stroke:#1f77b4;" x="80.398498" xlink:href="#m13b2e1f049" y="174.396195"/>
     <use style="fill:#1f77b4;stroke:#1f77b4;" x="83.677687" xlink:href="#m13b2e1f049" y="174.396195"/>
     <use style="fill:#1f77b4;stroke:#1f77b4;" x="86.956877" xlink:href="#m13b2e1f049" y="174.40019"/>
     <use style="fill:#1f77b4;stroke:#1f77b4;" x="90.236066" xlink:href="#m13b2e1f049" y="174.404184"/>
     <use style="fill:#1f77b4;stroke:#1f77b4;" x="93.515256" xlink:href="#m13b2e1f049" y="174.408178"/>
     <use style="fill:#1f77b4;stroke:#1f77b4;" x="96.794446" xlink:href="#m13b2e1f049" y="174.412172"/>
     <use style="fill:#1f77b4;stroke:#1f77b4;" x="100.073635" xlink:href="#m13b2e1f049" y="174.416166"/>
     <use style="fill:#1f77b4;stroke:#1f77b4;" x="103.352825" xlink:href="#m13b2e1f049" y="174.416166"/>
     <use style="fill:#1f77b4;stroke:#1f77b4;" x="106.632014" xlink:href="#m13b2e1f049" y="174.42016"/>
     <use style="fill:#1f77b4;stroke:#1f77b4;" x="109.911204" xlink:href="#m13b2e1f049" y="174.424154"/>
     <use style="fill:#1f77b4;stroke:#1f77b4;" x="113.190393" xlink:href="#m13b2e1f049" y="174.428148"/>
     <use style="fill:#1f77b4;stroke:#1f77b4;" x="116.469583" xlink:href="#m13b2e1f049" y="174.432142"/>
     <use style="fill:#1f77b4;stroke:#1f77b4;" x="119.748772" xlink:href="#m13b2e1f049" y="174.432142"/>
     <use style="fill:#1f77b4;stroke:#1f77b4;" x="123.027962" xlink:href="#m13b2e1f049" y="174.436136"/>
     <use style="fill:#1f77b4;stroke:#1f77b4;" x="126.307151" xlink:href="#m13b2e1f049" y="174.44013"/>
     <use style="fill:#1f77b4;stroke:#1f77b4;" x="129.586341" xlink:href="#m13b2e1f049" y="174.444124"/>
     <use style="fill:#1f77b4;stroke:#1f77b4;" x="132.86553" xlink:href="#m13b2e1f049" y="174.444124"/>
     <use style="fill:#1f77b4;stroke:#1f77b4;" x="136.14472" xlink:href="#m13b2e1f049" y="174.448118"/>
     <use style="fill:#1f77b4;stroke:#1f77b4;" x="139.423909" xlink:href="#m13b2e1f049" y="174.452113"/>
     <use style="fill:#1f77b4;stroke:#1f77b4;" x="142.703099" xlink:href="#m13b2e1f049" y="174.456107"/>
     <use style="fill:#1f77b4;stroke:#1f77b4;" x="145.982288" xlink:href="#m13b2e1f049" y="174.460101"/>
     <use style="fill:#1f77b4;stroke:#1f77b4;" x="149.261478" xlink:href="#m13b2e1f049" y="174.460101"/>
     <use style="fill:#1f77b4;stroke:#1f77b4;" x="152.540667" xlink:href="#m13b2e1f049" y="174.464095"/>
     <use style="fill:#1f77b4;stroke:#1f77b4;" x="155.819857" xlink:href="#m13b2e1f049" y="174.468089"/>
     <use style="fill:#1f77b4;stroke:#1f77b4;" x="159.099046" xlink:href="#m13b2e1f049" y="174.472083"/>
     <use style="fill:#1f77b4;stroke:#1f77b4;" x="162.378236" xlink:href="#m13b2e1f049" y="174.472083"/>
     <use style="fill:#1f77b4;stroke:#1f77b4;" x="165.657425" xlink:href="#m13b2e1f049" y="174.476077"/>
     <use style="fill:#1f77b4;stroke:#1f77b4;" x="168.936615" xlink:href="#m13b2e1f049" y="174.480071"/>
     <use style="fill:#1f77b4;stroke:#1f77b4;" x="172.215804" xlink:href="#m13b2e1f049" y="174.484065"/>
     <use style="fill:#1f77b4;stroke:#1f77b4;" x="175.494994" xlink:href="#m13b2e1f049" y="174.484065"/>
     <use style="fill:#1f77b4;stroke:#1f77b4;" x="178.774183" xlink:href="#m13b2e1f049" y="174.488059"/>
     <use style="fill:#1f77b4;stroke:#1f77b4;" x="182.053373" xlink:href="#m13b2e1f049" y="174.492053"/>
     <use style="fill:#1f77b4;stroke:#1f77b4;" x="185.332562" xlink:href="#m13b2e1f049" y="174.496047"/>
     <use style="fill:#1f77b4;stroke:#1f77b4;" x="188.611752" xlink:href="#m13b2e1f049" y="174.496047"/>
     <use style="fill:#1f77b4;stroke:#1f77b4;" x="191.890942" xlink:href="#m13b2e1f049" y="174.500041"/>
     <use style="fill:#1f77b4;stroke:#1f77b4;" x="195.170131" xlink:href="#m13b2e1f049" y="174.504036"/>
     <use style="fill:#1f77b4;stroke:#1f77b4;" x="198.449321" xlink:href="#m13b2e1f049" y="174.50803"/>
     <use style="fill:#1f77b4;stroke:#1f77b4;" x="201.72851" xlink:href="#m13b2e1f049" y="174.50803"/>
     <use style="fill:#1f77b4;stroke:#1f77b4;" x="205.0077" xlink:href="#m13b2e1f049" y="174.512024"/>
     <use style="fill:#1f77b4;stroke:#1f77b4;" x="208.286889" xlink:href="#m13b2e1f049" y="174.516018"/>
     <use style="fill:#1f77b4;stroke:#1f77b4;" x="211.566079" xlink:href="#m13b2e1f049" y="174.520012"/>
     <use style="fill:#1f77b4;stroke:#1f77b4;" x="214.845268" xlink:href="#m13b2e1f049" y="174.520012"/>
     <use style="fill:#1f77b4;stroke:#1f77b4;" x="218.124458" xlink:href="#m13b2e1f049" y="174.524006"/>
     <use style="fill:#1f77b4;stroke:#1f77b4;" x="221.403647" xlink:href="#m13b2e1f049" y="174.528"/>
     <use style="fill:#1f77b4;stroke:#1f77b4;" x="224.682837" xlink:href="#m13b2e1f049" y="174.528"/>
     <use style="fill:#1f77b4;stroke:#1f77b4;" x="227.962026" xlink:href="#m13b2e1f049" y="174.531994"/>
     <use style="fill:#1f77b4;stroke:#1f77b4;" x="231.241216" xlink:href="#m13b2e1f049" y="174.535988"/>
     <use style="fill:#1f77b4;stroke:#1f77b4;" x="234.520405" xlink:href="#m13b2e1f049" y="174.535988"/>
     <use style="fill:#1f77b4;stroke:#1f77b4;" x="237.799595" xlink:href="#m13b2e1f049" y="174.539982"/>
     <use style="fill:#1f77b4;stroke:#1f77b4;" x="241.078784" xlink:href="#m13b2e1f049" y="174.543976"/>
     <use style="fill:#1f77b4;stroke:#1f77b4;" x="244.357974" xlink:href="#m13b2e1f049" y="174.54797"/>
     <use style="fill:#1f77b4;stroke:#1f77b4;" x="247.637163" xlink:href="#m13b2e1f049" y="174.54797"/>
     <use style="fill:#1f77b4;stroke:#1f77b4;" x="250.916353" xlink:href="#m13b2e1f049" y="174.551964"/>
     <use style="fill:#1f77b4;stroke:#1f77b4;" x="254.195542" xlink:href="#m13b2e1f049" y="174.555959"/>
     <use style="fill:#1f77b4;stroke:#1f77b4;" x="257.474732" xlink:href="#m13b2e1f049" y="174.555959"/>
     <use style="fill:#1f77b4;stroke:#1f77b4;" x="260.753921" xlink:href="#m13b2e1f049" y="174.559953"/>
     <use style="fill:#1f77b4;stroke:#1f77b4;" x="264.033111" xlink:href="#m13b2e1f049" y="174.563947"/>
     <use style="fill:#1f77b4;stroke:#1f77b4;" x="267.3123" xlink:href="#m13b2e1f049" y="174.563947"/>
     <use style="fill:#1f77b4;stroke:#1f77b4;" x="270.59149" xlink:href="#m13b2e1f049" y="174.567941"/>
     <use style="fill:#1f77b4;stroke:#1f77b4;" x="273.870679" xlink:href="#m13b2e1f049" y="174.571935"/>
     <use style="fill:#1f77b4;stroke:#1f77b4;" x="277.149869" xlink:href="#m13b2e1f049" y="174.571935"/>
     <use style="fill:#1f77b4;stroke:#1f77b4;" x="280.429058" xlink:href="#m13b2e1f049" y="174.575929"/>
     <use style="fill:#1f77b4;stroke:#1f77b4;" x="283.708248" xlink:href="#m13b2e1f049" y="174.579923"/>
     <use style="fill:#1f77b4;stroke:#1f77b4;" x="286.987438" xlink:href="#m13b2e1f049" y="174.579923"/>
     <use style="fill:#1f77b4;stroke:#1f77b4;" x="290.266627" xlink:href="#m13b2e1f049" y="174.583917"/>
     <use style="fill:#1f77b4;stroke:#1f77b4;" x="293.545817" xlink:href="#m13b2e1f049" y="174.587911"/>
     <use style="fill:#1f77b4;stroke:#1f77b4;" x="296.825006" xlink:href="#m13b2e1f049" y="174.587911"/>
     <use style="fill:#1f77b4;stroke:#1f77b4;" x="300.104196" xlink:href="#m13b2e1f049" y="174.591905"/>
     <use style="fill:#1f77b4;stroke:#1f77b4;" x="303.383385" xlink:href="#m13b2e1f049" y="174.595899"/>
     <use style="fill:#1f77b4;stroke:#1f77b4;" x="306.662575" xlink:href="#m13b2e1f049" y="174.595899"/>
     <use style="fill:#1f77b4;stroke:#1f77b4;" x="309.941764" xlink:href="#m13b2e1f049" y="174.599893"/>
     <use style="fill:#1f77b4;stroke:#1f77b4;" x="313.220954" xlink:href="#m13b2e1f049" y="174.603887"/>
     <use style="fill:#1f77b4;stroke:#1f77b4;" x="316.500143" xlink:href="#m13b2e1f049" y="174.603887"/>
     <use style="fill:#1f77b4;stroke:#1f77b4;" x="319.779333" xlink:href="#m13b2e1f049" y="174.607882"/>
     <use style="fill:#1f77b4;stroke:#1f77b4;" x="323.058522" xlink:href="#m13b2e1f049" y="174.611876"/>
     <use style="fill:#1f77b4;stroke:#1f77b4;" x="326.337712" xlink:href="#m13b2e1f049" y="174.611876"/>
     <use style="fill:#1f77b4;stroke:#1f77b4;" x="329.616901" xlink:href="#m13b2e1f049" y="174.61587"/>
     <use style="fill:#1f77b4;stroke:#1f77b4;" x="332.896091" xlink:href="#m13b2e1f049" y="174.61587"/>
     <use style="fill:#1f77b4;stroke:#1f77b4;" x="336.17528" xlink:href="#m13b2e1f049" y="174.619864"/>
     <use style="fill:#1f77b4;stroke:#1f77b4;" x="339.45447" xlink:href="#m13b2e1f049" y="174.623858"/>
     <use style="fill:#1f77b4;stroke:#1f77b4;" x="342.733659" xlink:href="#m13b2e1f049" y="174.623858"/>
     <use style="fill:#1f77b4;stroke:#1f77b4;" x="346.012849" xlink:href="#m13b2e1f049" y="174.627852"/>
     <use style="fill:#1f77b4;stroke:#1f77b4;" x="349.292038" xlink:href="#m13b2e1f049" y="174.631846"/>
     <use style="fill:#1f77b4;stroke:#1f77b4;" x="352.571228" xlink:href="#m13b2e1f049" y="174.631846"/>
     <use style="fill:#1f77b4;stroke:#1f77b4;" x="355.850417" xlink:href="#m13b2e1f049" y="174.63584"/>
     <use style="fill:#1f77b4;stroke:#1f77b4;" x="359.129607" xlink:href="#m13b2e1f049" y="174.63584"/>
     <use style="fill:#1f77b4;stroke:#1f77b4;" x="362.408796" xlink:href="#m13b2e1f049" y="174.639834"/>
     <use style="fill:#1f77b4;stroke:#1f77b4;" x="365.687986" xlink:href="#m13b2e1f049" y="174.643828"/>
     <use style="fill:#1f77b4;stroke:#1f77b4;" x="368.967175" xlink:href="#m13b2e1f049" y="174.643828"/>
     <use style="fill:#1f77b4;stroke:#1f77b4;" x="372.246365" xlink:href="#m13b2e1f049" y="174.647822"/>
     <use style="fill:#1f77b4;stroke:#1f77b4;" x="375.525554" xlink:href="#m13b2e1f049" y="174.651816"/>
     <use style="fill:#1f77b4;stroke:#1f77b4;" x="378.804744" xlink:href="#m13b2e1f049" y="174.651816"/>
     <use style="fill:#1f77b4;stroke:#1f77b4;" x="382.083934" xlink:href="#m13b2e1f049" y="174.65581"/>
     <use style="fill:#1f77b4;stroke:#1f77b4;" x="385.363123" xlink:href="#m13b2e1f049" y="174.65581"/>
     <use style="fill:#1f77b4;stroke:#1f77b4;" x="388.642313" xlink:href="#m13b2e1f049" y="174.659805"/>
     <use style="fill:#1f77b4;stroke:#1f77b4;" x="391.921502" xlink:href="#m13b2e1f049" y="174.663799"/>
     <use style="fill:#1f77b4;stroke:#1f77b4;" x="395.200692" xlink:href="#m13b2e1f049" y="174.663799"/>
     <use style="fill:#1f77b4;stroke:#1f77b4;" x="398.479881" xlink:href="#m13b2e1f049" y="174.667793"/>
    </g>
   </g>
   <g id="matplotlib.axis_1">
    <g id="xtick_1">
     <g id="line2d_1">
      <defs>
       <path d="M 0 0 
L 0 3.5 
" id="m77614ff860" style="stroke:#000000;stroke-width:0.8;"/>
      </defs>
      <g>
       <use style="stroke:#000000;stroke-width:0.8;" x="73.840119" xlink:href="#m77614ff860" y="307.584"/>
      </g>
     </g>
     <g id="text_1">
      <!-- 0 -->
      <defs>
       <path d="M 31.78125 66.40625 
Q 24.171875 66.40625 20.328125 58.90625 
Q 16.5 51.421875 16.5 36.375 
Q 16.5 21.390625 20.328125 13.890625 
Q 24.171875 6.390625 31.78125 6.390625 
Q 39.453125 6.390625 43.28125 13.890625 
Q 47.125 21.390625 47.125 36.375 
Q 47.125 51.421875 43.28125 58.90625 
Q 39.453125 66.40625 31.78125 66.40625 
z
M 31.78125 74.21875 
Q 44.046875 74.21875 50.515625 64.515625 
Q 56.984375 54.828125 56.984375 36.375 
Q 56.984375 17.96875 50.515625 8.265625 
Q 44.046875 -1.421875 31.78125 -1.421875 
Q 19.53125 -1.421875 13.0625 8.265625 
Q 6.59375 17.96875 6.59375 36.375 
Q 6.59375 54.828125 13.0625 64.515625 
Q 19.53125 74.21875 31.78125 74.21875 
z
" id="DejaVuSans-30"/>
      </defs>
      <g transform="translate(70.658869 322.182437)scale(0.1 -0.1)">
       <use xlink:href="#DejaVuSans-30"/>
      </g>
     </g>
    </g>
    <g id="xtick_2">
     <g id="line2d_2">
      <g>
       <use style="stroke:#000000;stroke-width:0.8;" x="139.423909" xlink:href="#m77614ff860" y="307.584"/>
      </g>
     </g>
     <g id="text_2">
      <!-- 20 -->
      <defs>
       <path d="M 19.1875 8.296875 
L 53.609375 8.296875 
L 53.609375 0 
L 7.328125 0 
L 7.328125 8.296875 
Q 12.9375 14.109375 22.625 23.890625 
Q 32.328125 33.6875 34.8125 36.53125 
Q 39.546875 41.84375 41.421875 45.53125 
Q 43.3125 49.21875 43.3125 52.78125 
Q 43.3125 58.59375 39.234375 62.25 
Q 35.15625 65.921875 28.609375 65.921875 
Q 23.96875 65.921875 18.8125 64.3125 
Q 13.671875 62.703125 7.8125 59.421875 
L 7.8125 69.390625 
Q 13.765625 71.78125 18.9375 73 
Q 24.125 74.21875 28.421875 74.21875 
Q 39.75 74.21875 46.484375 68.546875 
Q 53.21875 62.890625 53.21875 53.421875 
Q 53.21875 48.921875 51.53125 44.890625 
Q 49.859375 40.875 45.40625 35.40625 
Q 44.1875 33.984375 37.640625 27.21875 
Q 31.109375 20.453125 19.1875 8.296875 
z
" id="DejaVuSans-32"/>
      </defs>
      <g transform="translate(133.061409 322.182437)scale(0.1 -0.1)">
       <use xlink:href="#DejaVuSans-32"/>
       <use x="63.623047" xlink:href="#DejaVuSans-30"/>
      </g>
     </g>
    </g>
    <g id="xtick_3">
     <g id="line2d_3">
      <g>
       <use style="stroke:#000000;stroke-width:0.8;" x="205.0077" xlink:href="#m77614ff860" y="307.584"/>
      </g>
     </g>
     <g id="text_3">
      <!-- 40 -->
      <defs>
       <path d="M 37.796875 64.3125 
L 12.890625 25.390625 
L 37.796875 25.390625 
z
M 35.203125 72.90625 
L 47.609375 72.90625 
L 47.609375 25.390625 
L 58.015625 25.390625 
L 58.015625 17.1875 
L 47.609375 17.1875 
L 47.609375 0 
L 37.796875 0 
L 37.796875 17.1875 
L 4.890625 17.1875 
L 4.890625 26.703125 
z
" id="DejaVuSans-34"/>
      </defs>
      <g transform="translate(198.6452 322.182437)scale(0.1 -0.1)">
       <use xlink:href="#DejaVuSans-34"/>
       <use x="63.623047" xlink:href="#DejaVuSans-30"/>
      </g>
     </g>
    </g>
    <g id="xtick_4">
     <g id="line2d_4">
      <g>
       <use style="stroke:#000000;stroke-width:0.8;" x="270.59149" xlink:href="#m77614ff860" y="307.584"/>
      </g>
     </g>
     <g id="text_4">
      <!-- 60 -->
      <defs>
       <path d="M 33.015625 40.375 
Q 26.375 40.375 22.484375 35.828125 
Q 18.609375 31.296875 18.609375 23.390625 
Q 18.609375 15.53125 22.484375 10.953125 
Q 26.375 6.390625 33.015625 6.390625 
Q 39.65625 6.390625 43.53125 10.953125 
Q 47.40625 15.53125 47.40625 23.390625 
Q 47.40625 31.296875 43.53125 35.828125 
Q 39.65625 40.375 33.015625 40.375 
z
M 52.59375 71.296875 
L 52.59375 62.3125 
Q 48.875 64.0625 45.09375 64.984375 
Q 41.3125 65.921875 37.59375 65.921875 
Q 27.828125 65.921875 22.671875 59.328125 
Q 17.53125 52.734375 16.796875 39.40625 
Q 19.671875 43.65625 24.015625 45.921875 
Q 28.375 48.1875 33.59375 48.1875 
Q 44.578125 48.1875 50.953125 41.515625 
Q 57.328125 34.859375 57.328125 23.390625 
Q 57.328125 12.15625 50.6875 5.359375 
Q 44.046875 -1.421875 33.015625 -1.421875 
Q 20.359375 -1.421875 13.671875 8.265625 
Q 6.984375 17.96875 6.984375 36.375 
Q 6.984375 53.65625 15.1875 63.9375 
Q 23.390625 74.21875 37.203125 74.21875 
Q 40.921875 74.21875 44.703125 73.484375 
Q 48.484375 72.75 52.59375 71.296875 
z
" id="DejaVuSans-36"/>
      </defs>
      <g transform="translate(264.22899 322.182437)scale(0.1 -0.1)">
       <use xlink:href="#DejaVuSans-36"/>
       <use x="63.623047" xlink:href="#DejaVuSans-30"/>
      </g>
     </g>
    </g>
    <g id="xtick_5">
     <g id="line2d_5">
      <g>
       <use style="stroke:#000000;stroke-width:0.8;" x="336.17528" xlink:href="#m77614ff860" y="307.584"/>
      </g>
     </g>
     <g id="text_5">
      <!-- 80 -->
      <defs>
       <path d="M 31.78125 34.625 
Q 24.75 34.625 20.71875 30.859375 
Q 16.703125 27.09375 16.703125 20.515625 
Q 16.703125 13.921875 20.71875 10.15625 
Q 24.75 6.390625 31.78125 6.390625 
Q 38.8125 6.390625 42.859375 10.171875 
Q 46.921875 13.96875 46.921875 20.515625 
Q 46.921875 27.09375 42.890625 30.859375 
Q 38.875 34.625 31.78125 34.625 
z
M 21.921875 38.8125 
Q 15.578125 40.375 12.03125 44.71875 
Q 8.5 49.078125 8.5 55.328125 
Q 8.5 64.0625 14.71875 69.140625 
Q 20.953125 74.21875 31.78125 74.21875 
Q 42.671875 74.21875 48.875 69.140625 
Q 55.078125 64.0625 55.078125 55.328125 
Q 55.078125 49.078125 51.53125 44.71875 
Q 48 40.375 41.703125 38.8125 
Q 48.828125 37.15625 52.796875 32.3125 
Q 56.78125 27.484375 56.78125 20.515625 
Q 56.78125 9.90625 50.3125 4.234375 
Q 43.84375 -1.421875 31.78125 -1.421875 
Q 19.734375 -1.421875 13.25 4.234375 
Q 6.78125 9.90625 6.78125 20.515625 
Q 6.78125 27.484375 10.78125 32.3125 
Q 14.796875 37.15625 21.921875 38.8125 
z
M 18.3125 54.390625 
Q 18.3125 48.734375 21.84375 45.5625 
Q 25.390625 42.390625 31.78125 42.390625 
Q 38.140625 42.390625 41.71875 45.5625 
Q 45.3125 48.734375 45.3125 54.390625 
Q 45.3125 60.0625 41.71875 63.234375 
Q 38.140625 66.40625 31.78125 66.40625 
Q 25.390625 66.40625 21.84375 63.234375 
Q 18.3125 60.0625 18.3125 54.390625 
z
" id="DejaVuSans-38"/>
      </defs>
      <g transform="translate(329.81278 322.182437)scale(0.1 -0.1)">
       <use xlink:href="#DejaVuSans-38"/>
       <use x="63.623047" xlink:href="#DejaVuSans-30"/>
      </g>
     </g>
    </g>
    <g id="xtick_6">
     <g id="line2d_6">
      <g>
       <use style="stroke:#000000;stroke-width:0.8;" x="401.759071" xlink:href="#m77614ff860" y="307.584"/>
      </g>
     </g>
     <g id="text_6">
      <!-- 100 -->
      <defs>
       <path d="M 12.40625 8.296875 
L 28.515625 8.296875 
L 28.515625 63.921875 
L 10.984375 60.40625 
L 10.984375 69.390625 
L 28.421875 72.90625 
L 38.28125 72.90625 
L 38.28125 8.296875 
L 54.390625 8.296875 
L 54.390625 0 
L 12.40625 0 
z
" id="DejaVuSans-31"/>
      </defs>
      <g transform="translate(392.215321 322.182437)scale(0.1 -0.1)">
       <use xlink:href="#DejaVuSans-31"/>
       <use x="63.623047" xlink:href="#DejaVuSans-30"/>
       <use x="127.246094" xlink:href="#DejaVuSans-30"/>
      </g>
     </g>
    </g>
    <g id="text_7">
     <!-- Iteration -->
     <defs>
      <path d="M 9.8125 72.90625 
L 19.671875 72.90625 
L 19.671875 0 
L 9.8125 0 
z
" id="DejaVuSans-49"/>
      <path d="M 18.3125 70.21875 
L 18.3125 54.6875 
L 36.8125 54.6875 
L 36.8125 47.703125 
L 18.3125 47.703125 
L 18.3125 18.015625 
Q 18.3125 11.328125 20.140625 9.421875 
Q 21.96875 7.515625 27.59375 7.515625 
L 36.8125 7.515625 
L 36.8125 0 
L 27.59375 0 
Q 17.1875 0 13.234375 3.875 
Q 9.28125 7.765625 9.28125 18.015625 
L 9.28125 47.703125 
L 2.6875 47.703125 
L 2.6875 54.6875 
L 9.28125 54.6875 
L 9.28125 70.21875 
z
" id="DejaVuSans-74"/>
      <path d="M 56.203125 29.59375 
L 56.203125 25.203125 
L 14.890625 25.203125 
Q 15.484375 15.921875 20.484375 11.0625 
Q 25.484375 6.203125 34.421875 6.203125 
Q 39.59375 6.203125 44.453125 7.46875 
Q 49.3125 8.734375 54.109375 11.28125 
L 54.109375 2.78125 
Q 49.265625 0.734375 44.1875 -0.34375 
Q 39.109375 -1.421875 33.890625 -1.421875 
Q 20.796875 -1.421875 13.15625 6.1875 
Q 5.515625 13.8125 5.515625 26.8125 
Q 5.515625 40.234375 12.765625 48.109375 
Q 20.015625 56 32.328125 56 
Q 43.359375 56 49.78125 48.890625 
Q 56.203125 41.796875 56.203125 29.59375 
z
M 47.21875 32.234375 
Q 47.125 39.59375 43.09375 43.984375 
Q 39.0625 48.390625 32.421875 48.390625 
Q 24.90625 48.390625 20.390625 44.140625 
Q 15.875 39.890625 15.1875 32.171875 
z
" id="DejaVuSans-65"/>
      <path d="M 41.109375 46.296875 
Q 39.59375 47.171875 37.8125 47.578125 
Q 36.03125 48 33.890625 48 
Q 26.265625 48 22.1875 43.046875 
Q 18.109375 38.09375 18.109375 28.8125 
L 18.109375 0 
L 9.078125 0 
L 9.078125 54.6875 
L 18.109375 54.6875 
L 18.109375 46.1875 
Q 20.953125 51.171875 25.484375 53.578125 
Q 30.03125 56 36.53125 56 
Q 37.453125 56 38.578125 55.875 
Q 39.703125 55.765625 41.0625 55.515625 
z
" id="DejaVuSans-72"/>
      <path d="M 34.28125 27.484375 
Q 23.390625 27.484375 19.1875 25 
Q 14.984375 22.515625 14.984375 16.5 
Q 14.984375 11.71875 18.140625 8.90625 
Q 21.296875 6.109375 26.703125 6.109375 
Q 34.1875 6.109375 38.703125 11.40625 
Q 43.21875 16.703125 43.21875 25.484375 
L 43.21875 27.484375 
z
M 52.203125 31.203125 
L 52.203125 0 
L 43.21875 0 
L 43.21875 8.296875 
Q 40.140625 3.328125 35.546875 0.953125 
Q 30.953125 -1.421875 24.3125 -1.421875 
Q 15.921875 -1.421875 10.953125 3.296875 
Q 6 8.015625 6 15.921875 
Q 6 25.140625 12.171875 29.828125 
Q 18.359375 34.515625 30.609375 34.515625 
L 43.21875 34.515625 
L 43.21875 35.40625 
Q 43.21875 41.609375 39.140625 45 
Q 35.0625 48.390625 27.6875 48.390625 
Q 23 48.390625 18.546875 47.265625 
Q 14.109375 46.140625 10.015625 43.890625 
L 10.015625 52.203125 
Q 14.9375 54.109375 19.578125 55.046875 
Q 24.21875 56 28.609375 56 
Q 40.484375 56 46.34375 49.84375 
Q 52.203125 43.703125 52.203125 31.203125 
z
" id="DejaVuSans-61"/>
      <path d="M 9.421875 54.6875 
L 18.40625 54.6875 
L 18.40625 0 
L 9.421875 0 
z
M 9.421875 75.984375 
L 18.40625 75.984375 
L 18.40625 64.59375 
L 9.421875 64.59375 
z
" id="DejaVuSans-69"/>
      <path d="M 30.609375 48.390625 
Q 23.390625 48.390625 19.1875 42.75 
Q 14.984375 37.109375 14.984375 27.296875 
Q 14.984375 17.484375 19.15625 11.84375 
Q 23.34375 6.203125 30.609375 6.203125 
Q 37.796875 6.203125 41.984375 11.859375 
Q 46.1875 17.53125 46.1875 27.296875 
Q 46.1875 37.015625 41.984375 42.703125 
Q 37.796875 48.390625 30.609375 48.390625 
z
M 30.609375 56 
Q 42.328125 56 49.015625 48.375 
Q 55.71875 40.765625 55.71875 27.296875 
Q 55.71875 13.875 49.015625 6.21875 
Q 42.328125 -1.421875 30.609375 -1.421875 
Q 18.84375 -1.421875 12.171875 6.21875 
Q 5.515625 13.875 5.515625 27.296875 
Q 5.515625 40.765625 12.171875 48.375 
Q 18.84375 56 30.609375 56 
z
" id="DejaVuSans-6f"/>
      <path d="M 54.890625 33.015625 
L 54.890625 0 
L 45.90625 0 
L 45.90625 32.71875 
Q 45.90625 40.484375 42.875 44.328125 
Q 39.84375 48.1875 33.796875 48.1875 
Q 26.515625 48.1875 22.3125 43.546875 
Q 18.109375 38.921875 18.109375 30.90625 
L 18.109375 0 
L 9.078125 0 
L 9.078125 54.6875 
L 18.109375 54.6875 
L 18.109375 46.1875 
Q 21.34375 51.125 25.703125 53.5625 
Q 30.078125 56 35.796875 56 
Q 45.21875 56 50.046875 50.171875 
Q 54.890625 44.34375 54.890625 33.015625 
z
" id="DejaVuSans-6e"/>
     </defs>
     <g transform="translate(214.951406 335.860562)scale(0.1 -0.1)">
      <use xlink:href="#DejaVuSans-49"/>
      <use x="29.492188" xlink:href="#DejaVuSans-74"/>
      <use x="68.701172" xlink:href="#DejaVuSans-65"/>
      <use x="130.224609" xlink:href="#DejaVuSans-72"/>
      <use x="171.337891" xlink:href="#DejaVuSans-61"/>
      <use x="232.617188" xlink:href="#DejaVuSans-74"/>
      <use x="271.826172" xlink:href="#DejaVuSans-69"/>
      <use x="299.609375" xlink:href="#DejaVuSans-6f"/>
      <use x="360.791016" xlink:href="#DejaVuSans-6e"/>
     </g>
    </g>
   </g>
   <g id="matplotlib.axis_2">
    <g id="ytick_1">
     <g id="line2d_7">
      <defs>
       <path d="M 0 0 
L -3.5 0 
" id="me3cccd8ad8" style="stroke:#000000;stroke-width:0.8;"/>
      </defs>
      <g>
       <use style="stroke:#000000;stroke-width:0.8;" x="57.6" xlink:href="#me3cccd8ad8" y="295.995898"/>
      </g>
     </g>
     <g id="text_8">
      <!-- −0.003 -->
      <defs>
       <path d="M 10.59375 35.5 
L 73.1875 35.5 
L 73.1875 27.203125 
L 10.59375 27.203125 
z
" id="DejaVuSans-2212"/>
       <path d="M 10.6875 12.40625 
L 21 12.40625 
L 21 0 
L 10.6875 0 
z
" id="DejaVuSans-2e"/>
       <path d="M 40.578125 39.3125 
Q 47.65625 37.796875 51.625 33 
Q 55.609375 28.21875 55.609375 21.1875 
Q 55.609375 10.40625 48.1875 4.484375 
Q 40.765625 -1.421875 27.09375 -1.421875 
Q 22.515625 -1.421875 17.65625 -0.515625 
Q 12.796875 0.390625 7.625 2.203125 
L 7.625 11.71875 
Q 11.71875 9.328125 16.59375 8.109375 
Q 21.484375 6.890625 26.8125 6.890625 
Q 36.078125 6.890625 40.9375 10.546875 
Q 45.796875 14.203125 45.796875 21.1875 
Q 45.796875 27.640625 41.28125 31.265625 
Q 36.765625 34.90625 28.71875 34.90625 
L 20.21875 34.90625 
L 20.21875 43.015625 
L 29.109375 43.015625 
Q 36.375 43.015625 40.234375 45.921875 
Q 44.09375 48.828125 44.09375 54.296875 
Q 44.09375 59.90625 40.109375 62.90625 
Q 36.140625 65.921875 28.71875 65.921875 
Q 24.65625 65.921875 20.015625 65.03125 
Q 15.375 64.15625 9.8125 62.3125 
L 9.8125 71.09375 
Q 15.4375 72.65625 20.34375 73.4375 
Q 25.25 74.21875 29.59375 74.21875 
Q 40.828125 74.21875 47.359375 69.109375 
Q 53.90625 64.015625 53.90625 55.328125 
Q 53.90625 49.265625 50.4375 45.09375 
Q 46.96875 40.921875 40.578125 39.3125 
z
" id="DejaVuSans-33"/>
      </defs>
      <g transform="translate(13.592188 299.795116)scale(0.1 -0.1)">
       <use xlink:href="#DejaVuSans-2212"/>
       <use x="83.789062" xlink:href="#DejaVuSans-30"/>
       <use x="147.412109" xlink:href="#DejaVuSans-2e"/>
       <use x="179.199219" xlink:href="#DejaVuSans-30"/>
       <use x="242.822266" xlink:href="#DejaVuSans-30"/>
       <use x="306.445312" xlink:href="#DejaVuSans-33"/>
      </g>
     </g>
    </g>
    <g id="ytick_2">
     <g id="line2d_8">
      <g>
       <use style="stroke:#000000;stroke-width:0.8;" x="57.6" xlink:href="#me3cccd8ad8" y="256.055118"/>
      </g>
     </g>
     <g id="text_9">
      <!-- −0.002 -->
      <g transform="translate(13.592188 259.854337)scale(0.1 -0.1)">
       <use xlink:href="#DejaVuSans-2212"/>
       <use x="83.789062" xlink:href="#DejaVuSans-30"/>
       <use x="147.412109" xlink:href="#DejaVuSans-2e"/>
       <use x="179.199219" xlink:href="#DejaVuSans-30"/>
       <use x="242.822266" xlink:href="#DejaVuSans-30"/>
       <use x="306.445312" xlink:href="#DejaVuSans-32"/>
      </g>
     </g>
    </g>
    <g id="ytick_3">
     <g id="line2d_9">
      <g>
       <use style="stroke:#000000;stroke-width:0.8;" x="57.6" xlink:href="#me3cccd8ad8" y="216.114339"/>
      </g>
     </g>
     <g id="text_10">
      <!-- −0.001 -->
      <g transform="translate(13.592188 219.913558)scale(0.1 -0.1)">
       <use xlink:href="#DejaVuSans-2212"/>
       <use x="83.789062" xlink:href="#DejaVuSans-30"/>
       <use x="147.412109" xlink:href="#DejaVuSans-2e"/>
       <use x="179.199219" xlink:href="#DejaVuSans-30"/>
       <use x="242.822266" xlink:href="#DejaVuSans-30"/>
       <use x="306.445312" xlink:href="#DejaVuSans-31"/>
      </g>
     </g>
    </g>
    <g id="ytick_4">
     <g id="line2d_10">
      <g>
       <use style="stroke:#000000;stroke-width:0.8;" x="57.6" xlink:href="#me3cccd8ad8" y="176.17356"/>
      </g>
     </g>
     <g id="text_11">
      <!-- 0.000 -->
      <g transform="translate(21.971875 179.972779)scale(0.1 -0.1)">
       <use xlink:href="#DejaVuSans-30"/>
       <use x="63.623047" xlink:href="#DejaVuSans-2e"/>
       <use x="95.410156" xlink:href="#DejaVuSans-30"/>
       <use x="159.033203" xlink:href="#DejaVuSans-30"/>
       <use x="222.65625" xlink:href="#DejaVuSans-30"/>
      </g>
     </g>
    </g>
    <g id="ytick_5">
     <g id="line2d_11">
      <g>
       <use style="stroke:#000000;stroke-width:0.8;" x="57.6" xlink:href="#me3cccd8ad8" y="136.232781"/>
      </g>
     </g>
     <g id="text_12">
      <!-- 0.001 -->
      <g transform="translate(21.971875 140.032)scale(0.1 -0.1)">
       <use xlink:href="#DejaVuSans-30"/>
       <use x="63.623047" xlink:href="#DejaVuSans-2e"/>
       <use x="95.410156" xlink:href="#DejaVuSans-30"/>
       <use x="159.033203" xlink:href="#DejaVuSans-30"/>
       <use x="222.65625" xlink:href="#DejaVuSans-31"/>
      </g>
     </g>
    </g>
    <g id="ytick_6">
     <g id="line2d_12">
      <g>
       <use style="stroke:#000000;stroke-width:0.8;" x="57.6" xlink:href="#me3cccd8ad8" y="96.292002"/>
      </g>
     </g>
     <g id="text_13">
      <!-- 0.002 -->
      <g transform="translate(21.971875 100.091221)scale(0.1 -0.1)">
       <use xlink:href="#DejaVuSans-30"/>
       <use x="63.623047" xlink:href="#DejaVuSans-2e"/>
       <use x="95.410156" xlink:href="#DejaVuSans-30"/>
       <use x="159.033203" xlink:href="#DejaVuSans-30"/>
       <use x="222.65625" xlink:href="#DejaVuSans-32"/>
      </g>
     </g>
    </g>
    <g id="ytick_7">
     <g id="line2d_13">
      <g>
       <use style="stroke:#000000;stroke-width:0.8;" x="57.6" xlink:href="#me3cccd8ad8" y="56.351223"/>
      </g>
     </g>
     <g id="text_14">
      <!-- 0.003 -->
      <g transform="translate(21.971875 60.150441)scale(0.1 -0.1)">
       <use xlink:href="#DejaVuSans-30"/>
       <use x="63.623047" xlink:href="#DejaVuSans-2e"/>
       <use x="95.410156" xlink:href="#DejaVuSans-30"/>
       <use x="159.033203" xlink:href="#DejaVuSans-30"/>
       <use x="222.65625" xlink:href="#DejaVuSans-33"/>
      </g>
     </g>
    </g>
    <g id="text_15">
     <!-- Mean Squared Error -->
     <defs>
      <path d="M 9.8125 72.90625 
L 24.515625 72.90625 
L 43.109375 23.296875 
L 61.8125 72.90625 
L 76.515625 72.90625 
L 76.515625 0 
L 66.890625 0 
L 66.890625 64.015625 
L 48.09375 14.015625 
L 38.1875 14.015625 
L 19.390625 64.015625 
L 19.390625 0 
L 9.8125 0 
z
" id="DejaVuSans-4d"/>
      <path id="DejaVuSans-20"/>
      <path d="M 53.515625 70.515625 
L 53.515625 60.890625 
Q 47.90625 63.578125 42.921875 64.890625 
Q 37.9375 66.21875 33.296875 66.21875 
Q 25.25 66.21875 20.875 63.09375 
Q 16.5 59.96875 16.5 54.203125 
Q 16.5 49.359375 19.40625 46.890625 
Q 22.3125 44.4375 30.421875 42.921875 
L 36.375 41.703125 
Q 47.40625 39.59375 52.65625 34.296875 
Q 57.90625 29 57.90625 20.125 
Q 57.90625 9.515625 50.796875 4.046875 
Q 43.703125 -1.421875 29.984375 -1.421875 
Q 24.8125 -1.421875 18.96875 -0.25 
Q 13.140625 0.921875 6.890625 3.21875 
L 6.890625 13.375 
Q 12.890625 10.015625 18.65625 8.296875 
Q 24.421875 6.59375 29.984375 6.59375 
Q 38.421875 6.59375 43.015625 9.90625 
Q 47.609375 13.234375 47.609375 19.390625 
Q 47.609375 24.75 44.3125 27.78125 
Q 41.015625 30.8125 33.5 32.328125 
L 27.484375 33.5 
Q 16.453125 35.6875 11.515625 40.375 
Q 6.59375 45.0625 6.59375 53.421875 
Q 6.59375 63.09375 13.40625 68.65625 
Q 20.21875 74.21875 32.171875 74.21875 
Q 37.3125 74.21875 42.625 73.28125 
Q 47.953125 72.359375 53.515625 70.515625 
z
" id="DejaVuSans-53"/>
      <path d="M 14.796875 27.296875 
Q 14.796875 17.390625 18.875 11.75 
Q 22.953125 6.109375 30.078125 6.109375 
Q 37.203125 6.109375 41.296875 11.75 
Q 45.40625 17.390625 45.40625 27.296875 
Q 45.40625 37.203125 41.296875 42.84375 
Q 37.203125 48.484375 30.078125 48.484375 
Q 22.953125 48.484375 18.875 42.84375 
Q 14.796875 37.203125 14.796875 27.296875 
z
M 45.40625 8.203125 
Q 42.578125 3.328125 38.25 0.953125 
Q 33.9375 -1.421875 27.875 -1.421875 
Q 17.96875 -1.421875 11.734375 6.484375 
Q 5.515625 14.40625 5.515625 27.296875 
Q 5.515625 40.1875 11.734375 48.09375 
Q 17.96875 56 27.875 56 
Q 33.9375 56 38.25 53.625 
Q 42.578125 51.265625 45.40625 46.390625 
L 45.40625 54.6875 
L 54.390625 54.6875 
L 54.390625 -20.796875 
L 45.40625 -20.796875 
z
" id="DejaVuSans-71"/>
      <path d="M 8.5 21.578125 
L 8.5 54.6875 
L 17.484375 54.6875 
L 17.484375 21.921875 
Q 17.484375 14.15625 20.5 10.265625 
Q 23.53125 6.390625 29.59375 6.390625 
Q 36.859375 6.390625 41.078125 11.03125 
Q 45.3125 15.671875 45.3125 23.6875 
L 45.3125 54.6875 
L 54.296875 54.6875 
L 54.296875 0 
L 45.3125 0 
L 45.3125 8.40625 
Q 42.046875 3.421875 37.71875 1 
Q 33.40625 -1.421875 27.6875 -1.421875 
Q 18.265625 -1.421875 13.375 4.4375 
Q 8.5 10.296875 8.5 21.578125 
z
M 31.109375 56 
z
" id="DejaVuSans-75"/>
      <path d="M 45.40625 46.390625 
L 45.40625 75.984375 
L 54.390625 75.984375 
L 54.390625 0 
L 45.40625 0 
L 45.40625 8.203125 
Q 42.578125 3.328125 38.25 0.953125 
Q 33.9375 -1.421875 27.875 -1.421875 
Q 17.96875 -1.421875 11.734375 6.484375 
Q 5.515625 14.40625 5.515625 27.296875 
Q 5.515625 40.1875 11.734375 48.09375 
Q 17.96875 56 27.875 56 
Q 33.9375 56 38.25 53.625 
Q 42.578125 51.265625 45.40625 46.390625 
z
M 14.796875 27.296875 
Q 14.796875 17.390625 18.875 11.75 
Q 22.953125 6.109375 30.078125 6.109375 
Q 37.203125 6.109375 41.296875 11.75 
Q 45.40625 17.390625 45.40625 27.296875 
Q 45.40625 37.203125 41.296875 42.84375 
Q 37.203125 48.484375 30.078125 48.484375 
Q 22.953125 48.484375 18.875 42.84375 
Q 14.796875 37.203125 14.796875 27.296875 
z
" id="DejaVuSans-64"/>
      <path d="M 9.8125 72.90625 
L 55.90625 72.90625 
L 55.90625 64.59375 
L 19.671875 64.59375 
L 19.671875 43.015625 
L 54.390625 43.015625 
L 54.390625 34.71875 
L 19.671875 34.71875 
L 19.671875 8.296875 
L 56.78125 8.296875 
L 56.78125 0 
L 9.8125 0 
z
" id="DejaVuSans-45"/>
     </defs>
     <g transform="translate(7.5125 224.598312)rotate(-90)scale(0.1 -0.1)">
      <use xlink:href="#DejaVuSans-4d"/>
      <use x="86.279297" xlink:href="#DejaVuSans-65"/>
      <use x="147.802734" xlink:href="#DejaVuSans-61"/>
      <use x="209.082031" xlink:href="#DejaVuSans-6e"/>
      <use x="272.460938" xlink:href="#DejaVuSans-20"/>
      <use x="304.248047" xlink:href="#DejaVuSans-53"/>
      <use x="367.724609" xlink:href="#DejaVuSans-71"/>
      <use x="431.201172" xlink:href="#DejaVuSans-75"/>
      <use x="494.580078" xlink:href="#DejaVuSans-61"/>
      <use x="555.859375" xlink:href="#DejaVuSans-72"/>
      <use x="596.941406" xlink:href="#DejaVuSans-65"/>
      <use x="658.464844" xlink:href="#DejaVuSans-64"/>
      <use x="721.941406" xlink:href="#DejaVuSans-20"/>
      <use x="753.728516" xlink:href="#DejaVuSans-45"/>
      <use x="816.912109" xlink:href="#DejaVuSans-72"/>
      <use x="858.009766" xlink:href="#DejaVuSans-72"/>
      <use x="899.091797" xlink:href="#DejaVuSans-6f"/>
      <use x="960.273438" xlink:href="#DejaVuSans-72"/>
     </g>
    </g>
   </g>
   <g id="patch_3">
    <path d="M 57.6 307.584 
L 57.6 41.472 
" style="fill:none;stroke:#000000;stroke-linecap:square;stroke-linejoin:miter;stroke-width:0.8;"/>
   </g>
   <g id="patch_4">
    <path d="M 414.72 307.584 
L 414.72 41.472 
" style="fill:none;stroke:#000000;stroke-linecap:square;stroke-linejoin:miter;stroke-width:0.8;"/>
   </g>
   <g id="patch_5">
    <path d="M 57.6 307.584 
L 414.72 307.584 
" style="fill:none;stroke:#000000;stroke-linecap:square;stroke-linejoin:miter;stroke-width:0.8;"/>
   </g>
   <g id="patch_6">
    <path d="M 57.6 41.472 
L 414.72 41.472 
" style="fill:none;stroke:#000000;stroke-linecap:square;stroke-linejoin:miter;stroke-width:0.8;"/>
   </g>
  </g>
 </g>
 <defs>
  <clipPath id="p87b255c055">
   <rect height="266.112" width="357.12" x="57.6" y="41.472"/>
  </clipPath>
 </defs>
</svg>
