<?xml version="1.0" encoding="utf-8" standalone="no"?>
<!DOCTYPE svg PUBLIC "-//W3C//DTD SVG 1.1//EN"
  "http://www.w3.org/Graphics/SVG/1.1/DTD/svg11.dtd">
<!-- Created with matplotlib (http://matplotlib.org/) -->
<svg height="345pt" version="1.1" viewBox="0 0 460 345" width="460pt" xmlns="http://www.w3.org/2000/svg" xmlns:xlink="http://www.w3.org/1999/xlink">
 <defs>
  <style type="text/css">
*{stroke-linecap:butt;stroke-linejoin:round;}
  </style>
 </defs>
 <g id="figure_1">
  <g id="patch_1">
   <path d="M 0 345.6 
L 460.8 345.6 
L 460.8 0 
L 0 0 
z
" style="fill:#ffffff;"/>
  </g>
  <g id="axes_1">
   <g id="patch_2">
    <path d="M 57.6 307.584 
L 414.72 307.584 
L 414.72 41.472 
L 57.6 41.472 
z
" style="fill:#ffffff;"/>
   </g>
   <g id="PathCollection_1">
    <defs>
     <path d="M 0 1.118034 
C 0.296506 1.118034 0.580908 1.000231 0.790569 0.790569 
C 1.000231 0.580908 1.118034 0.296506 1.118034 0 
C 1.118034 -0.296506 1.000231 -0.580908 0.790569 -0.790569 
C 0.580908 -1.000231 0.296506 -1.118034 0 -1.118034 
C -0.296506 -1.118034 -0.580908 -1.000231 -0.790569 -0.790569 
C -1.000231 -0.580908 -1.118034 -0.296506 -1.118034 0 
C -1.118034 0.296506 -1.000231 0.580908 -0.790569 0.790569 
C -0.580908 1.000231 -0.296506 1.118034 0 1.118034 
z
" id="m802b98e711" style="stroke:#1f77b4;"/>
    </defs>
    <g clip-path="url(#p734ad12551)">
     <use style="fill:#1f77b4;stroke:#1f77b4;" x="73.840119" xlink:href="#m802b98e711" y="167.986726"/>
     <use style="fill:#1f77b4;stroke:#1f77b4;" x="77.119308" xlink:href="#m802b98e711" y="175.210257"/>
     <use style="fill:#1f77b4;stroke:#1f77b4;" x="80.398498" xlink:href="#m802b98e711" y="184.194407"/>
     <use style="fill:#1f77b4;stroke:#1f77b4;" x="83.677687" xlink:href="#m802b98e711" y="203.134981"/>
     <use style="fill:#1f77b4;stroke:#1f77b4;" x="86.956877" xlink:href="#m802b98e711" y="214.669807"/>
     <use style="fill:#1f77b4;stroke:#1f77b4;" x="90.236066" xlink:href="#m802b98e711" y="226.225168"/>
     <use style="fill:#1f77b4;stroke:#1f77b4;" x="93.515256" xlink:href="#m802b98e711" y="234.279068"/>
     <use style="fill:#1f77b4;stroke:#1f77b4;" x="96.794446" xlink:href="#m802b98e711" y="235.146932"/>
     <use style="fill:#1f77b4;stroke:#1f77b4;" x="100.073635" xlink:href="#m802b98e711" y="217.766951"/>
     <use style="fill:#1f77b4;stroke:#1f77b4;" x="103.352825" xlink:href="#m802b98e711" y="217.642534"/>
     <use style="fill:#1f77b4;stroke:#1f77b4;" x="106.632014" xlink:href="#m802b98e711" y="217.530448"/>
     <use style="fill:#1f77b4;stroke:#1f77b4;" x="109.911204" xlink:href="#m802b98e711" y="217.429552"/>
     <use style="fill:#1f77b4;stroke:#1f77b4;" x="113.190393" xlink:href="#m802b98e711" y="217.337993"/>
     <use style="fill:#1f77b4;stroke:#1f77b4;" x="116.469583" xlink:href="#m802b98e711" y="217.254238"/>
     <use style="fill:#1f77b4;stroke:#1f77b4;" x="119.748772" xlink:href="#m802b98e711" y="217.177085"/>
     <use style="fill:#1f77b4;stroke:#1f77b4;" x="123.027962" xlink:href="#m802b98e711" y="217.105592"/>
     <use style="fill:#1f77b4;stroke:#1f77b4;" x="126.307151" xlink:href="#m802b98e711" y="217.039004"/>
     <use style="fill:#1f77b4;stroke:#1f77b4;" x="129.586341" xlink:href="#m802b98e711" y="216.976714"/>
     <use style="fill:#1f77b4;stroke:#1f77b4;" x="132.86553" xlink:href="#m802b98e711" y="216.918219"/>
     <use style="fill:#1f77b4;stroke:#1f77b4;" x="136.14472" xlink:href="#m802b98e711" y="216.863103"/>
     <use style="fill:#1f77b4;stroke:#1f77b4;" x="139.423909" xlink:href="#m802b98e711" y="216.811015"/>
     <use style="fill:#1f77b4;stroke:#1f77b4;" x="142.703099" xlink:href="#m802b98e711" y="216.761655"/>
     <use style="fill:#1f77b4;stroke:#1f77b4;" x="145.982288" xlink:href="#m802b98e711" y="216.714768"/>
     <use style="fill:#1f77b4;stroke:#1f77b4;" x="149.261478" xlink:href="#m802b98e711" y="216.67013"/>
     <use style="fill:#1f77b4;stroke:#1f77b4;" x="152.540667" xlink:href="#m802b98e711" y="216.627549"/>
     <use style="fill:#1f77b4;stroke:#1f77b4;" x="155.819857" xlink:href="#m802b98e711" y="216.586856"/>
     <use style="fill:#1f77b4;stroke:#1f77b4;" x="159.099046" xlink:href="#m802b98e711" y="216.5479"/>
     <use style="fill:#1f77b4;stroke:#1f77b4;" x="162.378236" xlink:href="#m802b98e711" y="216.510549"/>
     <use style="fill:#1f77b4;stroke:#1f77b4;" x="165.657425" xlink:href="#m802b98e711" y="216.474684"/>
     <use style="fill:#1f77b4;stroke:#1f77b4;" x="168.936615" xlink:href="#m802b98e711" y="216.440201"/>
     <use style="fill:#1f77b4;stroke:#1f77b4;" x="172.215804" xlink:href="#m802b98e711" y="216.407004"/>
     <use style="fill:#1f77b4;stroke:#1f77b4;" x="175.494994" xlink:href="#m802b98e711" y="216.375008"/>
     <use style="fill:#1f77b4;stroke:#1f77b4;" x="178.774183" xlink:href="#m802b98e711" y="216.344135"/>
     <use style="fill:#1f77b4;stroke:#1f77b4;" x="182.053373" xlink:href="#m802b98e711" y="216.314314"/>
     <use style="fill:#1f77b4;stroke:#1f77b4;" x="185.332562" xlink:href="#m802b98e711" y="216.285482"/>
     <use style="fill:#1f77b4;stroke:#1f77b4;" x="188.611752" xlink:href="#m802b98e711" y="216.25758"/>
     <use style="fill:#1f77b4;stroke:#1f77b4;" x="191.890942" xlink:href="#m802b98e711" y="216.230554"/>
     <use style="fill:#1f77b4;stroke:#1f77b4;" x="195.170131" xlink:href="#m802b98e711" y="216.204356"/>
     <use style="fill:#1f77b4;stroke:#1f77b4;" x="198.449321" xlink:href="#m802b98e711" y="216.178939"/>
     <use style="fill:#1f77b4;stroke:#1f77b4;" x="201.72851" xlink:href="#m802b98e711" y="216.154264"/>
     <use style="fill:#1f77b4;stroke:#1f77b4;" x="205.0077" xlink:href="#m802b98e711" y="216.13029"/>
     <use style="fill:#1f77b4;stroke:#1f77b4;" x="208.286889" xlink:href="#m802b98e711" y="216.106982"/>
     <use style="fill:#1f77b4;stroke:#1f77b4;" x="211.566079" xlink:href="#m802b98e711" y="216.084307"/>
     <use style="fill:#1f77b4;stroke:#1f77b4;" x="214.845268" xlink:href="#m802b98e711" y="216.062234"/>
     <use style="fill:#1f77b4;stroke:#1f77b4;" x="218.124458" xlink:href="#m802b98e711" y="216.040736"/>
     <use style="fill:#1f77b4;stroke:#1f77b4;" x="221.403647" xlink:href="#m802b98e711" y="216.019784"/>
     <use style="fill:#1f77b4;stroke:#1f77b4;" x="224.682837" xlink:href="#m802b98e711" y="215.999354"/>
     <use style="fill:#1f77b4;stroke:#1f77b4;" x="227.962026" xlink:href="#m802b98e711" y="215.979423"/>
     <use style="fill:#1f77b4;stroke:#1f77b4;" x="231.241216" xlink:href="#m802b98e711" y="215.959969"/>
     <use style="fill:#1f77b4;stroke:#1f77b4;" x="234.520405" xlink:href="#m802b98e711" y="215.940971"/>
     <use style="fill:#1f77b4;stroke:#1f77b4;" x="237.799595" xlink:href="#m802b98e711" y="215.922411"/>
     <use style="fill:#1f77b4;stroke:#1f77b4;" x="241.078784" xlink:href="#m802b98e711" y="215.904269"/>
     <use style="fill:#1f77b4;stroke:#1f77b4;" x="244.357974" xlink:href="#m802b98e711" y="215.88653"/>
     <use style="fill:#1f77b4;stroke:#1f77b4;" x="247.637163" xlink:href="#m802b98e711" y="215.869177"/>
     <use style="fill:#1f77b4;stroke:#1f77b4;" x="250.916353" xlink:href="#m802b98e711" y="215.852195"/>
     <use style="fill:#1f77b4;stroke:#1f77b4;" x="254.195542" xlink:href="#m802b98e711" y="215.83557"/>
     <use style="fill:#1f77b4;stroke:#1f77b4;" x="257.474732" xlink:href="#m802b98e711" y="215.819289"/>
     <use style="fill:#1f77b4;stroke:#1f77b4;" x="260.753921" xlink:href="#m802b98e711" y="215.803337"/>
     <use style="fill:#1f77b4;stroke:#1f77b4;" x="264.033111" xlink:href="#m802b98e711" y="215.787705"/>
     <use style="fill:#1f77b4;stroke:#1f77b4;" x="267.3123" xlink:href="#m802b98e711" y="215.772379"/>
     <use style="fill:#1f77b4;stroke:#1f77b4;" x="270.59149" xlink:href="#m802b98e711" y="215.757349"/>
     <use style="fill:#1f77b4;stroke:#1f77b4;" x="273.870679" xlink:href="#m802b98e711" y="215.742605"/>
     <use style="fill:#1f77b4;stroke:#1f77b4;" x="277.149869" xlink:href="#m802b98e711" y="215.728137"/>
     <use style="fill:#1f77b4;stroke:#1f77b4;" x="280.429058" xlink:href="#m802b98e711" y="215.713936"/>
     <use style="fill:#1f77b4;stroke:#1f77b4;" x="283.708248" xlink:href="#m802b98e711" y="215.699993"/>
     <use style="fill:#1f77b4;stroke:#1f77b4;" x="286.987438" xlink:href="#m802b98e711" y="215.686298"/>
     <use style="fill:#1f77b4;stroke:#1f77b4;" x="290.266627" xlink:href="#m802b98e711" y="215.672846"/>
     <use style="fill:#1f77b4;stroke:#1f77b4;" x="293.545817" xlink:href="#m802b98e711" y="215.659626"/>
     <use style="fill:#1f77b4;stroke:#1f77b4;" x="296.825006" xlink:href="#m802b98e711" y="215.646633"/>
     <use style="fill:#1f77b4;stroke:#1f77b4;" x="300.104196" xlink:href="#m802b98e711" y="215.633859"/>
     <use style="fill:#1f77b4;stroke:#1f77b4;" x="303.383385" xlink:href="#m802b98e711" y="215.621298"/>
     <use style="fill:#1f77b4;stroke:#1f77b4;" x="306.662575" xlink:href="#m802b98e711" y="215.608942"/>
     <use style="fill:#1f77b4;stroke:#1f77b4;" x="309.941764" xlink:href="#m802b98e711" y="215.596787"/>
     <use style="fill:#1f77b4;stroke:#1f77b4;" x="313.220954" xlink:href="#m802b98e711" y="215.584825"/>
     <use style="fill:#1f77b4;stroke:#1f77b4;" x="316.500143" xlink:href="#m802b98e711" y="215.573052"/>
     <use style="fill:#1f77b4;stroke:#1f77b4;" x="319.779333" xlink:href="#m802b98e711" y="215.561462"/>
     <use style="fill:#1f77b4;stroke:#1f77b4;" x="323.058522" xlink:href="#m802b98e711" y="215.55005"/>
     <use style="fill:#1f77b4;stroke:#1f77b4;" x="326.337712" xlink:href="#m802b98e711" y="215.538811"/>
     <use style="fill:#1f77b4;stroke:#1f77b4;" x="329.616901" xlink:href="#m802b98e711" y="215.52774"/>
     <use style="fill:#1f77b4;stroke:#1f77b4;" x="332.896091" xlink:href="#m802b98e711" y="215.516832"/>
     <use style="fill:#1f77b4;stroke:#1f77b4;" x="336.17528" xlink:href="#m802b98e711" y="215.506084"/>
     <use style="fill:#1f77b4;stroke:#1f77b4;" x="339.45447" xlink:href="#m802b98e711" y="215.49549"/>
     <use style="fill:#1f77b4;stroke:#1f77b4;" x="342.733659" xlink:href="#m802b98e711" y="215.485047"/>
     <use style="fill:#1f77b4;stroke:#1f77b4;" x="346.012849" xlink:href="#m802b98e711" y="215.474751"/>
     <use style="fill:#1f77b4;stroke:#1f77b4;" x="349.292038" xlink:href="#m802b98e711" y="215.464598"/>
     <use style="fill:#1f77b4;stroke:#1f77b4;" x="352.571228" xlink:href="#m802b98e711" y="215.454585"/>
     <use style="fill:#1f77b4;stroke:#1f77b4;" x="355.850417" xlink:href="#m802b98e711" y="215.444707"/>
     <use style="fill:#1f77b4;stroke:#1f77b4;" x="359.129607" xlink:href="#m802b98e711" y="215.434962"/>
     <use style="fill:#1f77b4;stroke:#1f77b4;" x="362.408796" xlink:href="#m802b98e711" y="215.425347"/>
     <use style="fill:#1f77b4;stroke:#1f77b4;" x="365.687986" xlink:href="#m802b98e711" y="215.415857"/>
     <use style="fill:#1f77b4;stroke:#1f77b4;" x="368.967175" xlink:href="#m802b98e711" y="215.406491"/>
     <use style="fill:#1f77b4;stroke:#1f77b4;" x="372.246365" xlink:href="#m802b98e711" y="215.397245"/>
     <use style="fill:#1f77b4;stroke:#1f77b4;" x="375.525554" xlink:href="#m802b98e711" y="215.388116"/>
     <use style="fill:#1f77b4;stroke:#1f77b4;" x="378.804744" xlink:href="#m802b98e711" y="215.379101"/>
     <use style="fill:#1f77b4;stroke:#1f77b4;" x="382.083934" xlink:href="#m802b98e711" y="215.370199"/>
     <use style="fill:#1f77b4;stroke:#1f77b4;" x="385.363123" xlink:href="#m802b98e711" y="215.361406"/>
     <use style="fill:#1f77b4;stroke:#1f77b4;" x="388.642313" xlink:href="#m802b98e711" y="215.35272"/>
     <use style="fill:#1f77b4;stroke:#1f77b4;" x="391.921502" xlink:href="#m802b98e711" y="215.344138"/>
     <use style="fill:#1f77b4;stroke:#1f77b4;" x="395.200692" xlink:href="#m802b98e711" y="215.335659"/>
     <use style="fill:#1f77b4;stroke:#1f77b4;" x="398.479881" xlink:href="#m802b98e711" y="215.32728"/>
    </g>
   </g>
   <g id="matplotlib.axis_1">
    <g id="xtick_1">
     <g id="line2d_1">
      <defs>
       <path d="M 0 0 
L 0 3.5 
" id="m81c42618c6" style="stroke:#000000;stroke-width:0.8;"/>
      </defs>
      <g>
       <use style="stroke:#000000;stroke-width:0.8;" x="73.840119" xlink:href="#m81c42618c6" y="307.584"/>
      </g>
     </g>
     <g id="text_1">
      <!-- 0 -->
      <defs>
       <path d="M 31.78125 66.40625 
Q 24.171875 66.40625 20.328125 58.90625 
Q 16.5 51.421875 16.5 36.375 
Q 16.5 21.390625 20.328125 13.890625 
Q 24.171875 6.390625 31.78125 6.390625 
Q 39.453125 6.390625 43.28125 13.890625 
Q 47.125 21.390625 47.125 36.375 
Q 47.125 51.421875 43.28125 58.90625 
Q 39.453125 66.40625 31.78125 66.40625 
z
M 31.78125 74.21875 
Q 44.046875 74.21875 50.515625 64.515625 
Q 56.984375 54.828125 56.984375 36.375 
Q 56.984375 17.96875 50.515625 8.265625 
Q 44.046875 -1.421875 31.78125 -1.421875 
Q 19.53125 -1.421875 13.0625 8.265625 
Q 6.59375 17.96875 6.59375 36.375 
Q 6.59375 54.828125 13.0625 64.515625 
Q 19.53125 74.21875 31.78125 74.21875 
z
" id="DejaVuSans-30"/>
      </defs>
      <g transform="translate(70.658869 322.182437)scale(0.1 -0.1)">
       <use xlink:href="#DejaVuSans-30"/>
      </g>
     </g>
    </g>
    <g id="xtick_2">
     <g id="line2d_2">
      <g>
       <use style="stroke:#000000;stroke-width:0.8;" x="139.423909" xlink:href="#m81c42618c6" y="307.584"/>
      </g>
     </g>
     <g id="text_2">
      <!-- 20 -->
      <defs>
       <path d="M 19.1875 8.296875 
L 53.609375 8.296875 
L 53.609375 0 
L 7.328125 0 
L 7.328125 8.296875 
Q 12.9375 14.109375 22.625 23.890625 
Q 32.328125 33.6875 34.8125 36.53125 
Q 39.546875 41.84375 41.421875 45.53125 
Q 43.3125 49.21875 43.3125 52.78125 
Q 43.3125 58.59375 39.234375 62.25 
Q 35.15625 65.921875 28.609375 65.921875 
Q 23.96875 65.921875 18.8125 64.3125 
Q 13.671875 62.703125 7.8125 59.421875 
L 7.8125 69.390625 
Q 13.765625 71.78125 18.9375 73 
Q 24.125 74.21875 28.421875 74.21875 
Q 39.75 74.21875 46.484375 68.546875 
Q 53.21875 62.890625 53.21875 53.421875 
Q 53.21875 48.921875 51.53125 44.890625 
Q 49.859375 40.875 45.40625 35.40625 
Q 44.1875 33.984375 37.640625 27.21875 
Q 31.109375 20.453125 19.1875 8.296875 
z
" id="DejaVuSans-32"/>
      </defs>
      <g transform="translate(133.061409 322.182437)scale(0.1 -0.1)">
       <use xlink:href="#DejaVuSans-32"/>
       <use x="63.623047" xlink:href="#DejaVuSans-30"/>
      </g>
     </g>
    </g>
    <g id="xtick_3">
     <g id="line2d_3">
      <g>
       <use style="stroke:#000000;stroke-width:0.8;" x="205.0077" xlink:href="#m81c42618c6" y="307.584"/>
      </g>
     </g>
     <g id="text_3">
      <!-- 40 -->
      <defs>
       <path d="M 37.796875 64.3125 
L 12.890625 25.390625 
L 37.796875 25.390625 
z
M 35.203125 72.90625 
L 47.609375 72.90625 
L 47.609375 25.390625 
L 58.015625 25.390625 
L 58.015625 17.1875 
L 47.609375 17.1875 
L 47.609375 0 
L 37.796875 0 
L 37.796875 17.1875 
L 4.890625 17.1875 
L 4.890625 26.703125 
z
" id="DejaVuSans-34"/>
      </defs>
      <g transform="translate(198.6452 322.182437)scale(0.1 -0.1)">
       <use xlink:href="#DejaVuSans-34"/>
       <use x="63.623047" xlink:href="#DejaVuSans-30"/>
      </g>
     </g>
    </g>
    <g id="xtick_4">
     <g id="line2d_4">
      <g>
       <use style="stroke:#000000;stroke-width:0.8;" x="270.59149" xlink:href="#m81c42618c6" y="307.584"/>
      </g>
     </g>
     <g id="text_4">
      <!-- 60 -->
      <defs>
       <path d="M 33.015625 40.375 
Q 26.375 40.375 22.484375 35.828125 
Q 18.609375 31.296875 18.609375 23.390625 
Q 18.609375 15.53125 22.484375 10.953125 
Q 26.375 6.390625 33.015625 6.390625 
Q 39.65625 6.390625 43.53125 10.953125 
Q 47.40625 15.53125 47.40625 23.390625 
Q 47.40625 31.296875 43.53125 35.828125 
Q 39.65625 40.375 33.015625 40.375 
z
M 52.59375 71.296875 
L 52.59375 62.3125 
Q 48.875 64.0625 45.09375 64.984375 
Q 41.3125 65.921875 37.59375 65.921875 
Q 27.828125 65.921875 22.671875 59.328125 
Q 17.53125 52.734375 16.796875 39.40625 
Q 19.671875 43.65625 24.015625 45.921875 
Q 28.375 48.1875 33.59375 48.1875 
Q 44.578125 48.1875 50.953125 41.515625 
Q 57.328125 34.859375 57.328125 23.390625 
Q 57.328125 12.15625 50.6875 5.359375 
Q 44.046875 -1.421875 33.015625 -1.421875 
Q 20.359375 -1.421875 13.671875 8.265625 
Q 6.984375 17.96875 6.984375 36.375 
Q 6.984375 53.65625 15.1875 63.9375 
Q 23.390625 74.21875 37.203125 74.21875 
Q 40.921875 74.21875 44.703125 73.484375 
Q 48.484375 72.75 52.59375 71.296875 
z
" id="DejaVuSans-36"/>
      </defs>
      <g transform="translate(264.22899 322.182437)scale(0.1 -0.1)">
       <use xlink:href="#DejaVuSans-36"/>
       <use x="63.623047" xlink:href="#DejaVuSans-30"/>
      </g>
     </g>
    </g>
    <g id="xtick_5">
     <g id="line2d_5">
      <g>
       <use style="stroke:#000000;stroke-width:0.8;" x="336.17528" xlink:href="#m81c42618c6" y="307.584"/>
      </g>
     </g>
     <g id="text_5">
      <!-- 80 -->
      <defs>
       <path d="M 31.78125 34.625 
Q 24.75 34.625 20.71875 30.859375 
Q 16.703125 27.09375 16.703125 20.515625 
Q 16.703125 13.921875 20.71875 10.15625 
Q 24.75 6.390625 31.78125 6.390625 
Q 38.8125 6.390625 42.859375 10.171875 
Q 46.921875 13.96875 46.921875 20.515625 
Q 46.921875 27.09375 42.890625 30.859375 
Q 38.875 34.625 31.78125 34.625 
z
M 21.921875 38.8125 
Q 15.578125 40.375 12.03125 44.71875 
Q 8.5 49.078125 8.5 55.328125 
Q 8.5 64.0625 14.71875 69.140625 
Q 20.953125 74.21875 31.78125 74.21875 
Q 42.671875 74.21875 48.875 69.140625 
Q 55.078125 64.0625 55.078125 55.328125 
Q 55.078125 49.078125 51.53125 44.71875 
Q 48 40.375 41.703125 38.8125 
Q 48.828125 37.15625 52.796875 32.3125 
Q 56.78125 27.484375 56.78125 20.515625 
Q 56.78125 9.90625 50.3125 4.234375 
Q 43.84375 -1.421875 31.78125 -1.421875 
Q 19.734375 -1.421875 13.25 4.234375 
Q 6.78125 9.90625 6.78125 20.515625 
Q 6.78125 27.484375 10.78125 32.3125 
Q 14.796875 37.15625 21.921875 38.8125 
z
M 18.3125 54.390625 
Q 18.3125 48.734375 21.84375 45.5625 
Q 25.390625 42.390625 31.78125 42.390625 
Q 38.140625 42.390625 41.71875 45.5625 
Q 45.3125 48.734375 45.3125 54.390625 
Q 45.3125 60.0625 41.71875 63.234375 
Q 38.140625 66.40625 31.78125 66.40625 
Q 25.390625 66.40625 21.84375 63.234375 
Q 18.3125 60.0625 18.3125 54.390625 
z
" id="DejaVuSans-38"/>
      </defs>
      <g transform="translate(329.81278 322.182437)scale(0.1 -0.1)">
       <use xlink:href="#DejaVuSans-38"/>
       <use x="63.623047" xlink:href="#DejaVuSans-30"/>
      </g>
     </g>
    </g>
    <g id="xtick_6">
     <g id="line2d_6">
      <g>
       <use style="stroke:#000000;stroke-width:0.8;" x="401.759071" xlink:href="#m81c42618c6" y="307.584"/>
      </g>
     </g>
     <g id="text_6">
      <!-- 100 -->
      <defs>
       <path d="M 12.40625 8.296875 
L 28.515625 8.296875 
L 28.515625 63.921875 
L 10.984375 60.40625 
L 10.984375 69.390625 
L 28.421875 72.90625 
L 38.28125 72.90625 
L 38.28125 8.296875 
L 54.390625 8.296875 
L 54.390625 0 
L 12.40625 0 
z
" id="DejaVuSans-31"/>
      </defs>
      <g transform="translate(392.215321 322.182437)scale(0.1 -0.1)">
       <use xlink:href="#DejaVuSans-31"/>
       <use x="63.623047" xlink:href="#DejaVuSans-30"/>
       <use x="127.246094" xlink:href="#DejaVuSans-30"/>
      </g>
     </g>
    </g>
   </g>
   <g id="matplotlib.axis_2">
    <g id="ytick_1">
     <g id="line2d_7">
      <defs>
       <path d="M 0 0 
L -3.5 0 
" id="m45b757449d" style="stroke:#000000;stroke-width:0.8;"/>
      </defs>
      <g>
       <use style="stroke:#000000;stroke-width:0.8;" x="57.6" xlink:href="#m45b757449d" y="306.599825"/>
      </g>
     </g>
     <g id="text_7">
      <!-- 0.0 -->
      <defs>
       <path d="M 10.6875 12.40625 
L 21 12.40625 
L 21 0 
L 10.6875 0 
z
" id="DejaVuSans-2e"/>
      </defs>
      <g transform="translate(34.696875 310.399044)scale(0.1 -0.1)">
       <use xlink:href="#DejaVuSans-30"/>
       <use x="63.623047" xlink:href="#DejaVuSans-2e"/>
       <use x="95.410156" xlink:href="#DejaVuSans-30"/>
      </g>
     </g>
    </g>
    <g id="ytick_2">
     <g id="line2d_8">
      <g>
       <use style="stroke:#000000;stroke-width:0.8;" x="57.6" xlink:href="#m45b757449d" y="262.960655"/>
      </g>
     </g>
     <g id="text_8">
      <!-- 0.1 -->
      <g transform="translate(34.696875 266.759873)scale(0.1 -0.1)">
       <use xlink:href="#DejaVuSans-30"/>
       <use x="63.623047" xlink:href="#DejaVuSans-2e"/>
       <use x="95.410156" xlink:href="#DejaVuSans-31"/>
      </g>
     </g>
    </g>
    <g id="ytick_3">
     <g id="line2d_9">
      <g>
       <use style="stroke:#000000;stroke-width:0.8;" x="57.6" xlink:href="#m45b757449d" y="219.321484"/>
      </g>
     </g>
     <g id="text_9">
      <!-- 0.2 -->
      <g transform="translate(34.696875 223.120703)scale(0.1 -0.1)">
       <use xlink:href="#DejaVuSans-30"/>
       <use x="63.623047" xlink:href="#DejaVuSans-2e"/>
       <use x="95.410156" xlink:href="#DejaVuSans-32"/>
      </g>
     </g>
    </g>
    <g id="ytick_4">
     <g id="line2d_10">
      <g>
       <use style="stroke:#000000;stroke-width:0.8;" x="57.6" xlink:href="#m45b757449d" y="175.682314"/>
      </g>
     </g>
     <g id="text_10">
      <!-- 0.3 -->
      <defs>
       <path d="M 40.578125 39.3125 
Q 47.65625 37.796875 51.625 33 
Q 55.609375 28.21875 55.609375 21.1875 
Q 55.609375 10.40625 48.1875 4.484375 
Q 40.765625 -1.421875 27.09375 -1.421875 
Q 22.515625 -1.421875 17.65625 -0.515625 
Q 12.796875 0.390625 7.625 2.203125 
L 7.625 11.71875 
Q 11.71875 9.328125 16.59375 8.109375 
Q 21.484375 6.890625 26.8125 6.890625 
Q 36.078125 6.890625 40.9375 10.546875 
Q 45.796875 14.203125 45.796875 21.1875 
Q 45.796875 27.640625 41.28125 31.265625 
Q 36.765625 34.90625 28.71875 34.90625 
L 20.21875 34.90625 
L 20.21875 43.015625 
L 29.109375 43.015625 
Q 36.375 43.015625 40.234375 45.921875 
Q 44.09375 48.828125 44.09375 54.296875 
Q 44.09375 59.90625 40.109375 62.90625 
Q 36.140625 65.921875 28.71875 65.921875 
Q 24.65625 65.921875 20.015625 65.03125 
Q 15.375 64.15625 9.8125 62.3125 
L 9.8125 71.09375 
Q 15.4375 72.65625 20.34375 73.4375 
Q 25.25 74.21875 29.59375 74.21875 
Q 40.828125 74.21875 47.359375 69.109375 
Q 53.90625 64.015625 53.90625 55.328125 
Q 53.90625 49.265625 50.4375 45.09375 
Q 46.96875 40.921875 40.578125 39.3125 
z
" id="DejaVuSans-33"/>
      </defs>
      <g transform="translate(34.696875 179.481532)scale(0.1 -0.1)">
       <use xlink:href="#DejaVuSans-30"/>
       <use x="63.623047" xlink:href="#DejaVuSans-2e"/>
       <use x="95.410156" xlink:href="#DejaVuSans-33"/>
      </g>
     </g>
    </g>
    <g id="ytick_5">
     <g id="line2d_11">
      <g>
       <use style="stroke:#000000;stroke-width:0.8;" x="57.6" xlink:href="#m45b757449d" y="132.043143"/>
      </g>
     </g>
     <g id="text_11">
      <!-- 0.4 -->
      <g transform="translate(34.696875 135.842362)scale(0.1 -0.1)">
       <use xlink:href="#DejaVuSans-30"/>
       <use x="63.623047" xlink:href="#DejaVuSans-2e"/>
       <use x="95.410156" xlink:href="#DejaVuSans-34"/>
      </g>
     </g>
    </g>
    <g id="ytick_6">
     <g id="line2d_12">
      <g>
       <use style="stroke:#000000;stroke-width:0.8;" x="57.6" xlink:href="#m45b757449d" y="88.403973"/>
      </g>
     </g>
     <g id="text_12">
      <!-- 0.5 -->
      <defs>
       <path d="M 10.796875 72.90625 
L 49.515625 72.90625 
L 49.515625 64.59375 
L 19.828125 64.59375 
L 19.828125 46.734375 
Q 21.96875 47.46875 24.109375 47.828125 
Q 26.265625 48.1875 28.421875 48.1875 
Q 40.625 48.1875 47.75 41.5 
Q 54.890625 34.8125 54.890625 23.390625 
Q 54.890625 11.625 47.5625 5.09375 
Q 40.234375 -1.421875 26.90625 -1.421875 
Q 22.3125 -1.421875 17.546875 -0.640625 
Q 12.796875 0.140625 7.71875 1.703125 
L 7.71875 11.625 
Q 12.109375 9.234375 16.796875 8.0625 
Q 21.484375 6.890625 26.703125 6.890625 
Q 35.15625 6.890625 40.078125 11.328125 
Q 45.015625 15.765625 45.015625 23.390625 
Q 45.015625 31 40.078125 35.4375 
Q 35.15625 39.890625 26.703125 39.890625 
Q 22.75 39.890625 18.8125 39.015625 
Q 14.890625 38.140625 10.796875 36.28125 
z
" id="DejaVuSans-35"/>
      </defs>
      <g transform="translate(34.696875 92.203191)scale(0.1 -0.1)">
       <use xlink:href="#DejaVuSans-30"/>
       <use x="63.623047" xlink:href="#DejaVuSans-2e"/>
       <use x="95.410156" xlink:href="#DejaVuSans-35"/>
      </g>
     </g>
    </g>
    <g id="ytick_7">
     <g id="line2d_13">
      <g>
       <use style="stroke:#000000;stroke-width:0.8;" x="57.6" xlink:href="#m45b757449d" y="44.764802"/>
      </g>
     </g>
     <g id="text_13">
      <!-- 0.6 -->
      <g transform="translate(34.696875 48.564021)scale(0.1 -0.1)">
       <use xlink:href="#DejaVuSans-30"/>
       <use x="63.623047" xlink:href="#DejaVuSans-2e"/>
       <use x="95.410156" xlink:href="#DejaVuSans-36"/>
      </g>
     </g>
    </g>
   </g>
   <g id="LineCollection_1">
    <path clip-path="url(#p734ad12551)" d="M 73.840119 282.405451 
L 73.840119 53.568 
" style="fill:none;stroke:#1f77b4;stroke-width:1.5;"/>
    <path clip-path="url(#p734ad12551)" d="M 77.119308 283.144424 
L 77.119308 67.27609 
" style="fill:none;stroke:#1f77b4;stroke-width:1.5;"/>
    <path clip-path="url(#p734ad12551)" d="M 80.398498 285.512491 
L 80.398498 82.876322 
" style="fill:none;stroke:#1f77b4;stroke-width:1.5;"/>
    <path clip-path="url(#p734ad12551)" d="M 83.677687 295.488 
L 83.677687 110.781963 
" style="fill:none;stroke:#1f77b4;stroke-width:1.5;"/>
    <path clip-path="url(#p734ad12551)" d="M 86.956877 290.353792 
L 86.956877 138.985821 
" style="fill:none;stroke:#1f77b4;stroke-width:1.5;"/>
    <path clip-path="url(#p734ad12551)" d="M 90.236066 290.469197 
L 90.236066 161.981139 
" style="fill:none;stroke:#1f77b4;stroke-width:1.5;"/>
    <path clip-path="url(#p734ad12551)" d="M 93.515256 291.958567 
L 93.515256 176.599568 
" style="fill:none;stroke:#1f77b4;stroke-width:1.5;"/>
    <path clip-path="url(#p734ad12551)" d="M 96.794446 289.534995 
L 96.794446 180.758869 
" style="fill:none;stroke:#1f77b4;stroke-width:1.5;"/>
    <path clip-path="url(#p734ad12551)" d="M 100.073635 256.814957 
L 100.073635 178.718945 
" style="fill:none;stroke:#1f77b4;stroke-width:1.5;"/>
    <path clip-path="url(#p734ad12551)" d="M 103.352825 256.616008 
L 103.352825 178.66906 
" style="fill:none;stroke:#1f77b4;stroke-width:1.5;"/>
    <path clip-path="url(#p734ad12551)" d="M 106.632014 256.460112 
L 106.632014 178.600785 
" style="fill:none;stroke:#1f77b4;stroke-width:1.5;"/>
    <path clip-path="url(#p734ad12551)" d="M 109.911204 256.331436 
L 109.911204 178.527668 
" style="fill:none;stroke:#1f77b4;stroke-width:1.5;"/>
    <path clip-path="url(#p734ad12551)" d="M 113.190393 256.22169 
L 113.190393 178.454296 
" style="fill:none;stroke:#1f77b4;stroke-width:1.5;"/>
    <path clip-path="url(#p734ad12551)" d="M 116.469583 256.125941 
L 116.469583 178.382535 
" style="fill:none;stroke:#1f77b4;stroke-width:1.5;"/>
    <path clip-path="url(#p734ad12551)" d="M 119.748772 256.040993 
L 119.748772 178.313177 
" style="fill:none;stroke:#1f77b4;stroke-width:1.5;"/>
    <path clip-path="url(#p734ad12551)" d="M 123.027962 255.964663 
L 123.027962 178.24652 
" style="fill:none;stroke:#1f77b4;stroke-width:1.5;"/>
    <path clip-path="url(#p734ad12551)" d="M 126.307151 255.895372 
L 126.307151 178.182636 
" style="fill:none;stroke:#1f77b4;stroke-width:1.5;"/>
    <path clip-path="url(#p734ad12551)" d="M 129.586341 255.831947 
L 129.586341 178.121481 
" style="fill:none;stroke:#1f77b4;stroke-width:1.5;"/>
    <path clip-path="url(#p734ad12551)" d="M 132.86553 255.773485 
L 132.86553 178.062953 
" style="fill:none;stroke:#1f77b4;stroke-width:1.5;"/>
    <path clip-path="url(#p734ad12551)" d="M 136.14472 255.719291 
L 136.14472 178.006915 
" style="fill:none;stroke:#1f77b4;stroke-width:1.5;"/>
    <path clip-path="url(#p734ad12551)" d="M 139.423909 255.668799 
L 139.423909 177.953231 
" style="fill:none;stroke:#1f77b4;stroke-width:1.5;"/>
    <path clip-path="url(#p734ad12551)" d="M 142.703099 255.62155 
L 142.703099 177.90176 
" style="fill:none;stroke:#1f77b4;stroke-width:1.5;"/>
    <path clip-path="url(#p734ad12551)" d="M 145.982288 255.577168 
L 145.982288 177.852367 
" style="fill:none;stroke:#1f77b4;stroke-width:1.5;"/>
    <path clip-path="url(#p734ad12551)" d="M 149.261478 255.535334 
L 149.261478 177.804926 
" style="fill:none;stroke:#1f77b4;stroke-width:1.5;"/>
    <path clip-path="url(#p734ad12551)" d="M 152.540667 255.495791 
L 152.540667 177.759307 
" style="fill:none;stroke:#1f77b4;stroke-width:1.5;"/>
    <path clip-path="url(#p734ad12551)" d="M 155.819857 255.458309 
L 155.819857 177.715402 
" style="fill:none;stroke:#1f77b4;stroke-width:1.5;"/>
    <path clip-path="url(#p734ad12551)" d="M 159.099046 255.422693 
L 159.099046 177.673106 
" style="fill:none;stroke:#1f77b4;stroke-width:1.5;"/>
    <path clip-path="url(#p734ad12551)" d="M 162.378236 255.388771 
L 162.378236 177.632326 
" style="fill:none;stroke:#1f77b4;stroke-width:1.5;"/>
    <path clip-path="url(#p734ad12551)" d="M 165.657425 255.356406 
L 165.657425 177.592962 
" style="fill:none;stroke:#1f77b4;stroke-width:1.5;"/>
    <path clip-path="url(#p734ad12551)" d="M 168.936615 255.325465 
L 168.936615 177.554938 
" style="fill:none;stroke:#1f77b4;stroke-width:1.5;"/>
    <path clip-path="url(#p734ad12551)" d="M 172.215804 255.295834 
L 172.215804 177.518175 
" style="fill:none;stroke:#1f77b4;stroke-width:1.5;"/>
    <path clip-path="url(#p734ad12551)" d="M 175.494994 255.267408 
L 175.494994 177.482608 
" style="fill:none;stroke:#1f77b4;stroke-width:1.5;"/>
    <path clip-path="url(#p734ad12551)" d="M 178.774183 255.240107 
L 178.774183 177.448162 
" style="fill:none;stroke:#1f77b4;stroke-width:1.5;"/>
    <path clip-path="url(#p734ad12551)" d="M 182.053373 255.213847 
L 182.053373 177.41478 
" style="fill:none;stroke:#1f77b4;stroke-width:1.5;"/>
    <path clip-path="url(#p734ad12551)" d="M 185.332562 255.188556 
L 185.332562 177.382407 
" style="fill:none;stroke:#1f77b4;stroke-width:1.5;"/>
    <path clip-path="url(#p734ad12551)" d="M 188.611752 255.164165 
L 188.611752 177.350994 
" style="fill:none;stroke:#1f77b4;stroke-width:1.5;"/>
    <path clip-path="url(#p734ad12551)" d="M 191.890942 255.140623 
L 191.890942 177.320485 
" style="fill:none;stroke:#1f77b4;stroke-width:1.5;"/>
    <path clip-path="url(#p734ad12551)" d="M 195.170131 255.117874 
L 195.170131 177.290837 
" style="fill:none;stroke:#1f77b4;stroke-width:1.5;"/>
    <path clip-path="url(#p734ad12551)" d="M 198.449321 255.095869 
L 198.449321 177.26201 
" style="fill:none;stroke:#1f77b4;stroke-width:1.5;"/>
    <path clip-path="url(#p734ad12551)" d="M 201.72851 255.074559 
L 201.72851 177.233968 
" style="fill:none;stroke:#1f77b4;stroke-width:1.5;"/>
    <path clip-path="url(#p734ad12551)" d="M 205.0077 255.053913 
L 205.0077 177.206666 
" style="fill:none;stroke:#1f77b4;stroke-width:1.5;"/>
    <path clip-path="url(#p734ad12551)" d="M 208.286889 255.033889 
L 208.286889 177.180075 
" style="fill:none;stroke:#1f77b4;stroke-width:1.5;"/>
    <path clip-path="url(#p734ad12551)" d="M 211.566079 255.014453 
L 211.566079 177.154161 
" style="fill:none;stroke:#1f77b4;stroke-width:1.5;"/>
    <path clip-path="url(#p734ad12551)" d="M 214.845268 254.99557 
L 214.845268 177.128899 
" style="fill:none;stroke:#1f77b4;stroke-width:1.5;"/>
    <path clip-path="url(#p734ad12551)" d="M 218.124458 254.977219 
L 218.124458 177.104252 
" style="fill:none;stroke:#1f77b4;stroke-width:1.5;"/>
    <path clip-path="url(#p734ad12551)" d="M 221.403647 254.959368 
L 221.403647 177.080199 
" style="fill:none;stroke:#1f77b4;stroke-width:1.5;"/>
    <path clip-path="url(#p734ad12551)" d="M 224.682837 254.941989 
L 224.682837 177.056719 
" style="fill:none;stroke:#1f77b4;stroke-width:1.5;"/>
    <path clip-path="url(#p734ad12551)" d="M 227.962026 254.925067 
L 227.962026 177.033778 
" style="fill:none;stroke:#1f77b4;stroke-width:1.5;"/>
    <path clip-path="url(#p734ad12551)" d="M 231.241216 254.908576 
L 231.241216 177.011361 
" style="fill:none;stroke:#1f77b4;stroke-width:1.5;"/>
    <path clip-path="url(#p734ad12551)" d="M 234.520405 254.892492 
L 234.520405 176.98945 
" style="fill:none;stroke:#1f77b4;stroke-width:1.5;"/>
    <path clip-path="url(#p734ad12551)" d="M 237.799595 254.876805 
L 237.799595 176.968016 
" style="fill:none;stroke:#1f77b4;stroke-width:1.5;"/>
    <path clip-path="url(#p734ad12551)" d="M 241.078784 254.861492 
L 241.078784 176.947047 
" style="fill:none;stroke:#1f77b4;stroke-width:1.5;"/>
    <path clip-path="url(#p734ad12551)" d="M 244.357974 254.846538 
L 244.357974 176.926523 
" style="fill:none;stroke:#1f77b4;stroke-width:1.5;"/>
    <path clip-path="url(#p734ad12551)" d="M 247.637163 254.831922 
L 247.637163 176.906433 
" style="fill:none;stroke:#1f77b4;stroke-width:1.5;"/>
    <path clip-path="url(#p734ad12551)" d="M 250.916353 254.817639 
L 250.916353 176.886752 
" style="fill:none;stroke:#1f77b4;stroke-width:1.5;"/>
    <path clip-path="url(#p734ad12551)" d="M 254.195542 254.803671 
L 254.195542 176.86747 
" style="fill:none;stroke:#1f77b4;stroke-width:1.5;"/>
    <path clip-path="url(#p734ad12551)" d="M 257.474732 254.79 
L 257.474732 176.848577 
" style="fill:none;stroke:#1f77b4;stroke-width:1.5;"/>
    <path clip-path="url(#p734ad12551)" d="M 260.753921 254.776624 
L 260.753921 176.83005 
" style="fill:none;stroke:#1f77b4;stroke-width:1.5;"/>
    <path clip-path="url(#p734ad12551)" d="M 264.033111 254.763527 
L 264.033111 176.811882 
" style="fill:none;stroke:#1f77b4;stroke-width:1.5;"/>
    <path clip-path="url(#p734ad12551)" d="M 267.3123 254.750694 
L 267.3123 176.794064 
" style="fill:none;stroke:#1f77b4;stroke-width:1.5;"/>
    <path clip-path="url(#p734ad12551)" d="M 270.59149 254.738123 
L 270.59149 176.776575 
" style="fill:none;stroke:#1f77b4;stroke-width:1.5;"/>
    <path clip-path="url(#p734ad12551)" d="M 273.870679 254.7258 
L 273.870679 176.759411 
" style="fill:none;stroke:#1f77b4;stroke-width:1.5;"/>
    <path clip-path="url(#p734ad12551)" d="M 277.149869 254.713712 
L 277.149869 176.742563 
" style="fill:none;stroke:#1f77b4;stroke-width:1.5;"/>
    <path clip-path="url(#p734ad12551)" d="M 280.429058 254.701859 
L 280.429058 176.726013 
" style="fill:none;stroke:#1f77b4;stroke-width:1.5;"/>
    <path clip-path="url(#p734ad12551)" d="M 283.708248 254.690228 
L 283.708248 176.709757 
" style="fill:none;stroke:#1f77b4;stroke-width:1.5;"/>
    <path clip-path="url(#p734ad12551)" d="M 286.987438 254.678808 
L 286.987438 176.693789 
" style="fill:none;stroke:#1f77b4;stroke-width:1.5;"/>
    <path clip-path="url(#p734ad12551)" d="M 290.266627 254.667599 
L 290.266627 176.678092 
" style="fill:none;stroke:#1f77b4;stroke-width:1.5;"/>
    <path clip-path="url(#p734ad12551)" d="M 293.545817 254.656591 
L 293.545817 176.662661 
" style="fill:none;stroke:#1f77b4;stroke-width:1.5;"/>
    <path clip-path="url(#p734ad12551)" d="M 296.825006 254.645772 
L 296.825006 176.647494 
" style="fill:none;stroke:#1f77b4;stroke-width:1.5;"/>
    <path clip-path="url(#p734ad12551)" d="M 300.104196 254.635145 
L 300.104196 176.632573 
" style="fill:none;stroke:#1f77b4;stroke-width:1.5;"/>
    <path clip-path="url(#p734ad12551)" d="M 303.383385 254.624699 
L 303.383385 176.617896 
" style="fill:none;stroke:#1f77b4;stroke-width:1.5;"/>
    <path clip-path="url(#p734ad12551)" d="M 306.662575 254.614424 
L 306.662575 176.60346 
" style="fill:none;stroke:#1f77b4;stroke-width:1.5;"/>
    <path clip-path="url(#p734ad12551)" d="M 309.941764 254.604324 
L 309.941764 176.58925 
" style="fill:none;stroke:#1f77b4;stroke-width:1.5;"/>
    <path clip-path="url(#p734ad12551)" d="M 313.220954 254.594388 
L 313.220954 176.575263 
" style="fill:none;stroke:#1f77b4;stroke-width:1.5;"/>
    <path clip-path="url(#p734ad12551)" d="M 316.500143 254.584607 
L 316.500143 176.561497 
" style="fill:none;stroke:#1f77b4;stroke-width:1.5;"/>
    <path clip-path="url(#p734ad12551)" d="M 319.779333 254.574986 
L 319.779333 176.547939 
" style="fill:none;stroke:#1f77b4;stroke-width:1.5;"/>
    <path clip-path="url(#p734ad12551)" d="M 323.058522 254.565515 
L 323.058522 176.534585 
" style="fill:none;stroke:#1f77b4;stroke-width:1.5;"/>
    <path clip-path="url(#p734ad12551)" d="M 326.337712 254.556186 
L 326.337712 176.521436 
" style="fill:none;stroke:#1f77b4;stroke-width:1.5;"/>
    <path clip-path="url(#p734ad12551)" d="M 329.616901 254.547002 
L 329.616901 176.508478 
" style="fill:none;stroke:#1f77b4;stroke-width:1.5;"/>
    <path clip-path="url(#p734ad12551)" d="M 332.896091 254.537952 
L 332.896091 176.495713 
" style="fill:none;stroke:#1f77b4;stroke-width:1.5;"/>
    <path clip-path="url(#p734ad12551)" d="M 336.17528 254.52904 
L 336.17528 176.483128 
" style="fill:none;stroke:#1f77b4;stroke-width:1.5;"/>
    <path clip-path="url(#p734ad12551)" d="M 339.45447 254.520257 
L 339.45447 176.470723 
" style="fill:none;stroke:#1f77b4;stroke-width:1.5;"/>
    <path clip-path="url(#p734ad12551)" d="M 342.733659 254.511597 
L 342.733659 176.458497 
" style="fill:none;stroke:#1f77b4;stroke-width:1.5;"/>
    <path clip-path="url(#p734ad12551)" d="M 346.012849 254.503064 
L 346.012849 176.446438 
" style="fill:none;stroke:#1f77b4;stroke-width:1.5;"/>
    <path clip-path="url(#p734ad12551)" d="M 349.292038 254.494651 
L 349.292038 176.434545 
" style="fill:none;stroke:#1f77b4;stroke-width:1.5;"/>
    <path clip-path="url(#p734ad12551)" d="M 352.571228 254.48635 
L 352.571228 176.42282 
" style="fill:none;stroke:#1f77b4;stroke-width:1.5;"/>
    <path clip-path="url(#p734ad12551)" d="M 355.850417 254.478167 
L 355.850417 176.411248 
" style="fill:none;stroke:#1f77b4;stroke-width:1.5;"/>
    <path clip-path="url(#p734ad12551)" d="M 359.129607 254.470089 
L 359.129607 176.399835 
" style="fill:none;stroke:#1f77b4;stroke-width:1.5;"/>
    <path clip-path="url(#p734ad12551)" d="M 362.408796 254.462124 
L 362.408796 176.388569 
" style="fill:none;stroke:#1f77b4;stroke-width:1.5;"/>
    <path clip-path="url(#p734ad12551)" d="M 365.687986 254.454264 
L 365.687986 176.37745 
" style="fill:none;stroke:#1f77b4;stroke-width:1.5;"/>
    <path clip-path="url(#p734ad12551)" d="M 368.967175 254.446502 
L 368.967175 176.36648 
" style="fill:none;stroke:#1f77b4;stroke-width:1.5;"/>
    <path clip-path="url(#p734ad12551)" d="M 372.246365 254.438843 
L 372.246365 176.355646 
" style="fill:none;stroke:#1f77b4;stroke-width:1.5;"/>
    <path clip-path="url(#p734ad12551)" d="M 375.525554 254.431282 
L 375.525554 176.344949 
" style="fill:none;stroke:#1f77b4;stroke-width:1.5;"/>
    <path clip-path="url(#p734ad12551)" d="M 378.804744 254.423812 
L 378.804744 176.334391 
" style="fill:none;stroke:#1f77b4;stroke-width:1.5;"/>
    <path clip-path="url(#p734ad12551)" d="M 382.083934 254.416439 
L 382.083934 176.323959 
" style="fill:none;stroke:#1f77b4;stroke-width:1.5;"/>
    <path clip-path="url(#p734ad12551)" d="M 385.363123 254.409151 
L 385.363123 176.313661 
" style="fill:none;stroke:#1f77b4;stroke-width:1.5;"/>
    <path clip-path="url(#p734ad12551)" d="M 388.642313 254.401957 
L 388.642313 176.303483 
" style="fill:none;stroke:#1f77b4;stroke-width:1.5;"/>
    <path clip-path="url(#p734ad12551)" d="M 391.921502 254.394848 
L 391.921502 176.293428 
" style="fill:none;stroke:#1f77b4;stroke-width:1.5;"/>
    <path clip-path="url(#p734ad12551)" d="M 395.200692 254.38782 
L 395.200692 176.283498 
" style="fill:none;stroke:#1f77b4;stroke-width:1.5;"/>
    <path clip-path="url(#p734ad12551)" d="M 398.479881 254.380879 
L 398.479881 176.273681 
" style="fill:none;stroke:#1f77b4;stroke-width:1.5;"/>
   </g>
   <g id="line2d_14"/>
   <g id="patch_3">
    <path d="M 57.6 307.584 
L 57.6 41.472 
" style="fill:none;stroke:#000000;stroke-linecap:square;stroke-linejoin:miter;stroke-width:0.8;"/>
   </g>
   <g id="patch_4">
    <path d="M 414.72 307.584 
L 414.72 41.472 
" style="fill:none;stroke:#000000;stroke-linecap:square;stroke-linejoin:miter;stroke-width:0.8;"/>
   </g>
   <g id="patch_5">
    <path d="M 57.6 307.584 
L 414.72 307.584 
" style="fill:none;stroke:#000000;stroke-linecap:square;stroke-linejoin:miter;stroke-width:0.8;"/>
   </g>
   <g id="patch_6">
    <path d="M 57.6 41.472 
L 414.72 41.472 
" style="fill:none;stroke:#000000;stroke-linecap:square;stroke-linejoin:miter;stroke-width:0.8;"/>
   </g>
  </g>
 </g>
 <defs>
  <clipPath id="p734ad12551">
   <rect height="266.112" width="357.12" x="57.6" y="41.472"/>
  </clipPath>
 </defs>
</svg>
