<?xml version="1.0" encoding="utf-8" standalone="no"?>
<!DOCTYPE svg PUBLIC "-//W3C//DTD SVG 1.1//EN"
  "http://www.w3.org/Graphics/SVG/1.1/DTD/svg11.dtd">
<!-- Created with matplotlib (http://matplotlib.org/) -->
<svg height="345pt" version="1.1" viewBox="0 0 460 345" width="460pt" xmlns="http://www.w3.org/2000/svg" xmlns:xlink="http://www.w3.org/1999/xlink">
 <defs>
  <style type="text/css">
*{stroke-linecap:butt;stroke-linejoin:round;}
  </style>
 </defs>
 <g id="figure_1">
  <g id="patch_1">
   <path d="M 0 345.6 
L 460.8 345.6 
L 460.8 0 
L 0 0 
z
" style="fill:#ffffff;"/>
  </g>
  <g id="axes_1">
   <g id="patch_2">
    <path d="M 57.6 307.584 
L 414.72 307.584 
L 414.72 41.472 
L 57.6 41.472 
z
" style="fill:#ffffff;"/>
   </g>
   <g id="PathCollection_1">
    <defs>
     <path d="M 0 1.118034 
C 0.296506 1.118034 0.580908 1.000231 0.790569 0.790569 
C 1.000231 0.580908 1.118034 0.296506 1.118034 0 
C 1.118034 -0.296506 1.000231 -0.580908 0.790569 -0.790569 
C 0.580908 -1.000231 0.296506 -1.118034 0 -1.118034 
C -0.296506 -1.118034 -0.580908 -1.000231 -0.790569 -0.790569 
C -1.000231 -0.580908 -1.118034 -0.296506 -1.118034 0 
C -1.118034 0.296506 -1.000231 0.580908 -0.790569 0.790569 
C -0.580908 1.000231 -0.296506 1.118034 0 1.118034 
z
" id="m0c3d8bf763" style="stroke:#1f77b4;"/>
    </defs>
    <g clip-path="url(#p667f82949b)">
     <use style="fill:#1f77b4;stroke:#1f77b4;" x="73.840119" xlink:href="#m0c3d8bf763" y="143.07653"/>
     <use style="fill:#1f77b4;stroke:#1f77b4;" x="77.119308" xlink:href="#m0c3d8bf763" y="147.191142"/>
     <use style="fill:#1f77b4;stroke:#1f77b4;" x="80.398498" xlink:href="#m0c3d8bf763" y="152.202829"/>
     <use style="fill:#1f77b4;stroke:#1f77b4;" x="83.677687" xlink:href="#m0c3d8bf763" y="154.989241"/>
     <use style="fill:#1f77b4;stroke:#1f77b4;" x="86.956877" xlink:href="#m0c3d8bf763" y="165.702586"/>
     <use style="fill:#1f77b4;stroke:#1f77b4;" x="90.236066" xlink:href="#m0c3d8bf763" y="177.468318"/>
     <use style="fill:#1f77b4;stroke:#1f77b4;" x="93.515256" xlink:href="#m0c3d8bf763" y="184.488323"/>
     <use style="fill:#1f77b4;stroke:#1f77b4;" x="96.794446" xlink:href="#m0c3d8bf763" y="189.481785"/>
     <use style="fill:#1f77b4;stroke:#1f77b4;" x="100.073635" xlink:href="#m0c3d8bf763" y="195.406858"/>
     <use style="fill:#1f77b4;stroke:#1f77b4;" x="103.352825" xlink:href="#m0c3d8bf763" y="198.749848"/>
     <use style="fill:#1f77b4;stroke:#1f77b4;" x="106.632014" xlink:href="#m0c3d8bf763" y="201.535801"/>
     <use style="fill:#1f77b4;stroke:#1f77b4;" x="109.911204" xlink:href="#m0c3d8bf763" y="207.200452"/>
     <use style="fill:#1f77b4;stroke:#1f77b4;" x="113.190393" xlink:href="#m0c3d8bf763" y="212.0845"/>
     <use style="fill:#1f77b4;stroke:#1f77b4;" x="116.469583" xlink:href="#m0c3d8bf763" y="218.643734"/>
     <use style="fill:#1f77b4;stroke:#1f77b4;" x="119.748772" xlink:href="#m0c3d8bf763" y="225.044197"/>
     <use style="fill:#1f77b4;stroke:#1f77b4;" x="123.027962" xlink:href="#m0c3d8bf763" y="228.175191"/>
     <use style="fill:#1f77b4;stroke:#1f77b4;" x="126.307151" xlink:href="#m0c3d8bf763" y="230.481939"/>
     <use style="fill:#1f77b4;stroke:#1f77b4;" x="129.586341" xlink:href="#m0c3d8bf763" y="233.308195"/>
     <use style="fill:#1f77b4;stroke:#1f77b4;" x="132.86553" xlink:href="#m0c3d8bf763" y="236.837787"/>
     <use style="fill:#1f77b4;stroke:#1f77b4;" x="136.14472" xlink:href="#m0c3d8bf763" y="240.425818"/>
     <use style="fill:#1f77b4;stroke:#1f77b4;" x="139.423909" xlink:href="#m0c3d8bf763" y="243.989033"/>
     <use style="fill:#1f77b4;stroke:#1f77b4;" x="142.703099" xlink:href="#m0c3d8bf763" y="248.218738"/>
     <use style="fill:#1f77b4;stroke:#1f77b4;" x="145.982288" xlink:href="#m0c3d8bf763" y="252.327951"/>
     <use style="fill:#1f77b4;stroke:#1f77b4;" x="149.261478" xlink:href="#m0c3d8bf763" y="256.262761"/>
     <use style="fill:#1f77b4;stroke:#1f77b4;" x="152.540667" xlink:href="#m0c3d8bf763" y="260.137449"/>
     <use style="fill:#1f77b4;stroke:#1f77b4;" x="155.819857" xlink:href="#m0c3d8bf763" y="262.940601"/>
     <use style="fill:#1f77b4;stroke:#1f77b4;" x="159.099046" xlink:href="#m0c3d8bf763" y="265.167063"/>
     <use style="fill:#1f77b4;stroke:#1f77b4;" x="162.378236" xlink:href="#m0c3d8bf763" y="266.875522"/>
     <use style="fill:#1f77b4;stroke:#1f77b4;" x="165.657425" xlink:href="#m0c3d8bf763" y="268.52362"/>
     <use style="fill:#1f77b4;stroke:#1f77b4;" x="168.936615" xlink:href="#m0c3d8bf763" y="269.730831"/>
     <use style="fill:#1f77b4;stroke:#1f77b4;" x="172.215804" xlink:href="#m0c3d8bf763" y="270.477934"/>
     <use style="fill:#1f77b4;stroke:#1f77b4;" x="175.494994" xlink:href="#m0c3d8bf763" y="271.29087"/>
     <use style="fill:#1f77b4;stroke:#1f77b4;" x="178.774183" xlink:href="#m0c3d8bf763" y="272.239575"/>
     <use style="fill:#1f77b4;stroke:#1f77b4;" x="182.053373" xlink:href="#m0c3d8bf763" y="273.376163"/>
     <use style="fill:#1f77b4;stroke:#1f77b4;" x="185.332562" xlink:href="#m0c3d8bf763" y="274.774058"/>
     <use style="fill:#1f77b4;stroke:#1f77b4;" x="188.611752" xlink:href="#m0c3d8bf763" y="276.533678"/>
     <use style="fill:#1f77b4;stroke:#1f77b4;" x="191.890942" xlink:href="#m0c3d8bf763" y="278.700546"/>
     <use style="fill:#1f77b4;stroke:#1f77b4;" x="195.170131" xlink:href="#m0c3d8bf763" y="280.753845"/>
     <use style="fill:#1f77b4;stroke:#1f77b4;" x="198.449321" xlink:href="#m0c3d8bf763" y="281.706718"/>
     <use style="fill:#1f77b4;stroke:#1f77b4;" x="201.72851" xlink:href="#m0c3d8bf763" y="282.274011"/>
     <use style="fill:#1f77b4;stroke:#1f77b4;" x="205.0077" xlink:href="#m0c3d8bf763" y="282.901929"/>
     <use style="fill:#1f77b4;stroke:#1f77b4;" x="208.286889" xlink:href="#m0c3d8bf763" y="283.651684"/>
     <use style="fill:#1f77b4;stroke:#1f77b4;" x="211.566079" xlink:href="#m0c3d8bf763" y="284.575812"/>
     <use style="fill:#1f77b4;stroke:#1f77b4;" x="214.845268" xlink:href="#m0c3d8bf763" y="285.74267"/>
     <use style="fill:#1f77b4;stroke:#1f77b4;" x="218.124458" xlink:href="#m0c3d8bf763" y="287.215636"/>
     <use style="fill:#1f77b4;stroke:#1f77b4;" x="221.403647" xlink:href="#m0c3d8bf763" y="288.85742"/>
     <use style="fill:#1f77b4;stroke:#1f77b4;" x="224.682837" xlink:href="#m0c3d8bf763" y="289.872296"/>
     <use style="fill:#1f77b4;stroke:#1f77b4;" x="227.962026" xlink:href="#m0c3d8bf763" y="290.022743"/>
     <use style="fill:#1f77b4;stroke:#1f77b4;" x="231.241216" xlink:href="#m0c3d8bf763" y="290.015671"/>
     <use style="fill:#1f77b4;stroke:#1f77b4;" x="234.520405" xlink:href="#m0c3d8bf763" y="289.989617"/>
     <use style="fill:#1f77b4;stroke:#1f77b4;" x="237.799595" xlink:href="#m0c3d8bf763" y="289.959172"/>
     <use style="fill:#1f77b4;stroke:#1f77b4;" x="241.078784" xlink:href="#m0c3d8bf763" y="289.927711"/>
     <use style="fill:#1f77b4;stroke:#1f77b4;" x="244.357974" xlink:href="#m0c3d8bf763" y="289.896347"/>
     <use style="fill:#1f77b4;stroke:#1f77b4;" x="247.637163" xlink:href="#m0c3d8bf763" y="289.865517"/>
     <use style="fill:#1f77b4;stroke:#1f77b4;" x="250.916353" xlink:href="#m0c3d8bf763" y="289.835411"/>
     <use style="fill:#1f77b4;stroke:#1f77b4;" x="254.195542" xlink:href="#m0c3d8bf763" y="289.806106"/>
     <use style="fill:#1f77b4;stroke:#1f77b4;" x="257.474732" xlink:href="#m0c3d8bf763" y="289.777629"/>
     <use style="fill:#1f77b4;stroke:#1f77b4;" x="260.753921" xlink:href="#m0c3d8bf763" y="289.749981"/>
     <use style="fill:#1f77b4;stroke:#1f77b4;" x="264.033111" xlink:href="#m0c3d8bf763" y="289.723148"/>
     <use style="fill:#1f77b4;stroke:#1f77b4;" x="267.3123" xlink:href="#m0c3d8bf763" y="289.697109"/>
     <use style="fill:#1f77b4;stroke:#1f77b4;" x="270.59149" xlink:href="#m0c3d8bf763" y="289.671841"/>
     <use style="fill:#1f77b4;stroke:#1f77b4;" x="273.870679" xlink:href="#m0c3d8bf763" y="289.647317"/>
     <use style="fill:#1f77b4;stroke:#1f77b4;" x="277.149869" xlink:href="#m0c3d8bf763" y="289.623509"/>
     <use style="fill:#1f77b4;stroke:#1f77b4;" x="280.429058" xlink:href="#m0c3d8bf763" y="289.60039"/>
     <use style="fill:#1f77b4;stroke:#1f77b4;" x="283.708248" xlink:href="#m0c3d8bf763" y="289.577935"/>
     <use style="fill:#1f77b4;stroke:#1f77b4;" x="286.987438" xlink:href="#m0c3d8bf763" y="289.556117"/>
     <use style="fill:#1f77b4;stroke:#1f77b4;" x="290.266627" xlink:href="#m0c3d8bf763" y="289.534911"/>
     <use style="fill:#1f77b4;stroke:#1f77b4;" x="293.545817" xlink:href="#m0c3d8bf763" y="289.514294"/>
     <use style="fill:#1f77b4;stroke:#1f77b4;" x="296.825006" xlink:href="#m0c3d8bf763" y="289.494243"/>
     <use style="fill:#1f77b4;stroke:#1f77b4;" x="300.104196" xlink:href="#m0c3d8bf763" y="289.474735"/>
     <use style="fill:#1f77b4;stroke:#1f77b4;" x="303.383385" xlink:href="#m0c3d8bf763" y="289.45575"/>
     <use style="fill:#1f77b4;stroke:#1f77b4;" x="306.662575" xlink:href="#m0c3d8bf763" y="289.437268"/>
     <use style="fill:#1f77b4;stroke:#1f77b4;" x="309.941764" xlink:href="#m0c3d8bf763" y="289.419269"/>
     <use style="fill:#1f77b4;stroke:#1f77b4;" x="313.220954" xlink:href="#m0c3d8bf763" y="289.401736"/>
     <use style="fill:#1f77b4;stroke:#1f77b4;" x="316.500143" xlink:href="#m0c3d8bf763" y="289.38465"/>
     <use style="fill:#1f77b4;stroke:#1f77b4;" x="319.779333" xlink:href="#m0c3d8bf763" y="289.367996"/>
     <use style="fill:#1f77b4;stroke:#1f77b4;" x="323.058522" xlink:href="#m0c3d8bf763" y="289.351758"/>
     <use style="fill:#1f77b4;stroke:#1f77b4;" x="326.337712" xlink:href="#m0c3d8bf763" y="289.33592"/>
     <use style="fill:#1f77b4;stroke:#1f77b4;" x="329.616901" xlink:href="#m0c3d8bf763" y="289.320469"/>
     <use style="fill:#1f77b4;stroke:#1f77b4;" x="332.896091" xlink:href="#m0c3d8bf763" y="289.30539"/>
     <use style="fill:#1f77b4;stroke:#1f77b4;" x="336.17528" xlink:href="#m0c3d8bf763" y="289.29067"/>
     <use style="fill:#1f77b4;stroke:#1f77b4;" x="339.45447" xlink:href="#m0c3d8bf763" y="289.276297"/>
     <use style="fill:#1f77b4;stroke:#1f77b4;" x="342.733659" xlink:href="#m0c3d8bf763" y="289.262258"/>
     <use style="fill:#1f77b4;stroke:#1f77b4;" x="346.012849" xlink:href="#m0c3d8bf763" y="289.248543"/>
     <use style="fill:#1f77b4;stroke:#1f77b4;" x="349.292038" xlink:href="#m0c3d8bf763" y="289.235141"/>
     <use style="fill:#1f77b4;stroke:#1f77b4;" x="352.571228" xlink:href="#m0c3d8bf763" y="289.22204"/>
     <use style="fill:#1f77b4;stroke:#1f77b4;" x="355.850417" xlink:href="#m0c3d8bf763" y="289.209231"/>
     <use style="fill:#1f77b4;stroke:#1f77b4;" x="359.129607" xlink:href="#m0c3d8bf763" y="289.196705"/>
     <use style="fill:#1f77b4;stroke:#1f77b4;" x="362.408796" xlink:href="#m0c3d8bf763" y="289.184452"/>
     <use style="fill:#1f77b4;stroke:#1f77b4;" x="365.687986" xlink:href="#m0c3d8bf763" y="289.172463"/>
     <use style="fill:#1f77b4;stroke:#1f77b4;" x="368.967175" xlink:href="#m0c3d8bf763" y="289.160729"/>
     <use style="fill:#1f77b4;stroke:#1f77b4;" x="372.246365" xlink:href="#m0c3d8bf763" y="289.149244"/>
     <use style="fill:#1f77b4;stroke:#1f77b4;" x="375.525554" xlink:href="#m0c3d8bf763" y="289.137999"/>
     <use style="fill:#1f77b4;stroke:#1f77b4;" x="378.804744" xlink:href="#m0c3d8bf763" y="289.126986"/>
     <use style="fill:#1f77b4;stroke:#1f77b4;" x="382.083934" xlink:href="#m0c3d8bf763" y="289.116199"/>
     <use style="fill:#1f77b4;stroke:#1f77b4;" x="385.363123" xlink:href="#m0c3d8bf763" y="289.10563"/>
     <use style="fill:#1f77b4;stroke:#1f77b4;" x="388.642313" xlink:href="#m0c3d8bf763" y="289.095274"/>
     <use style="fill:#1f77b4;stroke:#1f77b4;" x="391.921502" xlink:href="#m0c3d8bf763" y="289.085123"/>
     <use style="fill:#1f77b4;stroke:#1f77b4;" x="395.200692" xlink:href="#m0c3d8bf763" y="289.075171"/>
     <use style="fill:#1f77b4;stroke:#1f77b4;" x="398.479881" xlink:href="#m0c3d8bf763" y="289.065414"/>
    </g>
   </g>
   <g id="matplotlib.axis_1">
    <g id="xtick_1">
     <g id="line2d_1">
      <defs>
       <path d="M 0 0 
L 0 3.5 
" id="m916aae7287" style="stroke:#000000;stroke-width:0.8;"/>
      </defs>
      <g>
       <use style="stroke:#000000;stroke-width:0.8;" x="73.840119" xlink:href="#m916aae7287" y="307.584"/>
      </g>
     </g>
     <g id="text_1">
      <!-- 0 -->
      <defs>
       <path d="M 31.78125 66.40625 
Q 24.171875 66.40625 20.328125 58.90625 
Q 16.5 51.421875 16.5 36.375 
Q 16.5 21.390625 20.328125 13.890625 
Q 24.171875 6.390625 31.78125 6.390625 
Q 39.453125 6.390625 43.28125 13.890625 
Q 47.125 21.390625 47.125 36.375 
Q 47.125 51.421875 43.28125 58.90625 
Q 39.453125 66.40625 31.78125 66.40625 
z
M 31.78125 74.21875 
Q 44.046875 74.21875 50.515625 64.515625 
Q 56.984375 54.828125 56.984375 36.375 
Q 56.984375 17.96875 50.515625 8.265625 
Q 44.046875 -1.421875 31.78125 -1.421875 
Q 19.53125 -1.421875 13.0625 8.265625 
Q 6.59375 17.96875 6.59375 36.375 
Q 6.59375 54.828125 13.0625 64.515625 
Q 19.53125 74.21875 31.78125 74.21875 
z
" id="DejaVuSans-30"/>
      </defs>
      <g transform="translate(70.658869 322.182437)scale(0.1 -0.1)">
       <use xlink:href="#DejaVuSans-30"/>
      </g>
     </g>
    </g>
    <g id="xtick_2">
     <g id="line2d_2">
      <g>
       <use style="stroke:#000000;stroke-width:0.8;" x="139.423909" xlink:href="#m916aae7287" y="307.584"/>
      </g>
     </g>
     <g id="text_2">
      <!-- 20 -->
      <defs>
       <path d="M 19.1875 8.296875 
L 53.609375 8.296875 
L 53.609375 0 
L 7.328125 0 
L 7.328125 8.296875 
Q 12.9375 14.109375 22.625 23.890625 
Q 32.328125 33.6875 34.8125 36.53125 
Q 39.546875 41.84375 41.421875 45.53125 
Q 43.3125 49.21875 43.3125 52.78125 
Q 43.3125 58.59375 39.234375 62.25 
Q 35.15625 65.921875 28.609375 65.921875 
Q 23.96875 65.921875 18.8125 64.3125 
Q 13.671875 62.703125 7.8125 59.421875 
L 7.8125 69.390625 
Q 13.765625 71.78125 18.9375 73 
Q 24.125 74.21875 28.421875 74.21875 
Q 39.75 74.21875 46.484375 68.546875 
Q 53.21875 62.890625 53.21875 53.421875 
Q 53.21875 48.921875 51.53125 44.890625 
Q 49.859375 40.875 45.40625 35.40625 
Q 44.1875 33.984375 37.640625 27.21875 
Q 31.109375 20.453125 19.1875 8.296875 
z
" id="DejaVuSans-32"/>
      </defs>
      <g transform="translate(133.061409 322.182437)scale(0.1 -0.1)">
       <use xlink:href="#DejaVuSans-32"/>
       <use x="63.623047" xlink:href="#DejaVuSans-30"/>
      </g>
     </g>
    </g>
    <g id="xtick_3">
     <g id="line2d_3">
      <g>
       <use style="stroke:#000000;stroke-width:0.8;" x="205.0077" xlink:href="#m916aae7287" y="307.584"/>
      </g>
     </g>
     <g id="text_3">
      <!-- 40 -->
      <defs>
       <path d="M 37.796875 64.3125 
L 12.890625 25.390625 
L 37.796875 25.390625 
z
M 35.203125 72.90625 
L 47.609375 72.90625 
L 47.609375 25.390625 
L 58.015625 25.390625 
L 58.015625 17.1875 
L 47.609375 17.1875 
L 47.609375 0 
L 37.796875 0 
L 37.796875 17.1875 
L 4.890625 17.1875 
L 4.890625 26.703125 
z
" id="DejaVuSans-34"/>
      </defs>
      <g transform="translate(198.6452 322.182437)scale(0.1 -0.1)">
       <use xlink:href="#DejaVuSans-34"/>
       <use x="63.623047" xlink:href="#DejaVuSans-30"/>
      </g>
     </g>
    </g>
    <g id="xtick_4">
     <g id="line2d_4">
      <g>
       <use style="stroke:#000000;stroke-width:0.8;" x="270.59149" xlink:href="#m916aae7287" y="307.584"/>
      </g>
     </g>
     <g id="text_4">
      <!-- 60 -->
      <defs>
       <path d="M 33.015625 40.375 
Q 26.375 40.375 22.484375 35.828125 
Q 18.609375 31.296875 18.609375 23.390625 
Q 18.609375 15.53125 22.484375 10.953125 
Q 26.375 6.390625 33.015625 6.390625 
Q 39.65625 6.390625 43.53125 10.953125 
Q 47.40625 15.53125 47.40625 23.390625 
Q 47.40625 31.296875 43.53125 35.828125 
Q 39.65625 40.375 33.015625 40.375 
z
M 52.59375 71.296875 
L 52.59375 62.3125 
Q 48.875 64.0625 45.09375 64.984375 
Q 41.3125 65.921875 37.59375 65.921875 
Q 27.828125 65.921875 22.671875 59.328125 
Q 17.53125 52.734375 16.796875 39.40625 
Q 19.671875 43.65625 24.015625 45.921875 
Q 28.375 48.1875 33.59375 48.1875 
Q 44.578125 48.1875 50.953125 41.515625 
Q 57.328125 34.859375 57.328125 23.390625 
Q 57.328125 12.15625 50.6875 5.359375 
Q 44.046875 -1.421875 33.015625 -1.421875 
Q 20.359375 -1.421875 13.671875 8.265625 
Q 6.984375 17.96875 6.984375 36.375 
Q 6.984375 53.65625 15.1875 63.9375 
Q 23.390625 74.21875 37.203125 74.21875 
Q 40.921875 74.21875 44.703125 73.484375 
Q 48.484375 72.75 52.59375 71.296875 
z
" id="DejaVuSans-36"/>
      </defs>
      <g transform="translate(264.22899 322.182437)scale(0.1 -0.1)">
       <use xlink:href="#DejaVuSans-36"/>
       <use x="63.623047" xlink:href="#DejaVuSans-30"/>
      </g>
     </g>
    </g>
    <g id="xtick_5">
     <g id="line2d_5">
      <g>
       <use style="stroke:#000000;stroke-width:0.8;" x="336.17528" xlink:href="#m916aae7287" y="307.584"/>
      </g>
     </g>
     <g id="text_5">
      <!-- 80 -->
      <defs>
       <path d="M 31.78125 34.625 
Q 24.75 34.625 20.71875 30.859375 
Q 16.703125 27.09375 16.703125 20.515625 
Q 16.703125 13.921875 20.71875 10.15625 
Q 24.75 6.390625 31.78125 6.390625 
Q 38.8125 6.390625 42.859375 10.171875 
Q 46.921875 13.96875 46.921875 20.515625 
Q 46.921875 27.09375 42.890625 30.859375 
Q 38.875 34.625 31.78125 34.625 
z
M 21.921875 38.8125 
Q 15.578125 40.375 12.03125 44.71875 
Q 8.5 49.078125 8.5 55.328125 
Q 8.5 64.0625 14.71875 69.140625 
Q 20.953125 74.21875 31.78125 74.21875 
Q 42.671875 74.21875 48.875 69.140625 
Q 55.078125 64.0625 55.078125 55.328125 
Q 55.078125 49.078125 51.53125 44.71875 
Q 48 40.375 41.703125 38.8125 
Q 48.828125 37.15625 52.796875 32.3125 
Q 56.78125 27.484375 56.78125 20.515625 
Q 56.78125 9.90625 50.3125 4.234375 
Q 43.84375 -1.421875 31.78125 -1.421875 
Q 19.734375 -1.421875 13.25 4.234375 
Q 6.78125 9.90625 6.78125 20.515625 
Q 6.78125 27.484375 10.78125 32.3125 
Q 14.796875 37.15625 21.921875 38.8125 
z
M 18.3125 54.390625 
Q 18.3125 48.734375 21.84375 45.5625 
Q 25.390625 42.390625 31.78125 42.390625 
Q 38.140625 42.390625 41.71875 45.5625 
Q 45.3125 48.734375 45.3125 54.390625 
Q 45.3125 60.0625 41.71875 63.234375 
Q 38.140625 66.40625 31.78125 66.40625 
Q 25.390625 66.40625 21.84375 63.234375 
Q 18.3125 60.0625 18.3125 54.390625 
z
" id="DejaVuSans-38"/>
      </defs>
      <g transform="translate(329.81278 322.182437)scale(0.1 -0.1)">
       <use xlink:href="#DejaVuSans-38"/>
       <use x="63.623047" xlink:href="#DejaVuSans-30"/>
      </g>
     </g>
    </g>
    <g id="xtick_6">
     <g id="line2d_6">
      <g>
       <use style="stroke:#000000;stroke-width:0.8;" x="401.759071" xlink:href="#m916aae7287" y="307.584"/>
      </g>
     </g>
     <g id="text_6">
      <!-- 100 -->
      <defs>
       <path d="M 12.40625 8.296875 
L 28.515625 8.296875 
L 28.515625 63.921875 
L 10.984375 60.40625 
L 10.984375 69.390625 
L 28.421875 72.90625 
L 38.28125 72.90625 
L 38.28125 8.296875 
L 54.390625 8.296875 
L 54.390625 0 
L 12.40625 0 
z
" id="DejaVuSans-31"/>
      </defs>
      <g transform="translate(392.215321 322.182437)scale(0.1 -0.1)">
       <use xlink:href="#DejaVuSans-31"/>
       <use x="63.623047" xlink:href="#DejaVuSans-30"/>
       <use x="127.246094" xlink:href="#DejaVuSans-30"/>
      </g>
     </g>
    </g>
   </g>
   <g id="matplotlib.axis_2">
    <g id="ytick_1">
     <g id="line2d_7">
      <defs>
       <path d="M 0 0 
L -3.5 0 
" id="m9ba02bb7c9" style="stroke:#000000;stroke-width:0.8;"/>
      </defs>
      <g>
       <use style="stroke:#000000;stroke-width:0.8;" x="57.6" xlink:href="#m9ba02bb7c9" y="288.025203"/>
      </g>
     </g>
     <g id="text_7">
      <!-- 0.20 -->
      <defs>
       <path d="M 10.6875 12.40625 
L 21 12.40625 
L 21 0 
L 10.6875 0 
z
" id="DejaVuSans-2e"/>
      </defs>
      <g transform="translate(28.334375 291.824422)scale(0.1 -0.1)">
       <use xlink:href="#DejaVuSans-30"/>
       <use x="63.623047" xlink:href="#DejaVuSans-2e"/>
       <use x="95.410156" xlink:href="#DejaVuSans-32"/>
       <use x="159.033203" xlink:href="#DejaVuSans-30"/>
      </g>
     </g>
    </g>
    <g id="ytick_2">
     <g id="line2d_8">
      <g>
       <use style="stroke:#000000;stroke-width:0.8;" x="57.6" xlink:href="#m9ba02bb7c9" y="249.676063"/>
      </g>
     </g>
     <g id="text_8">
      <!-- 0.25 -->
      <defs>
       <path d="M 10.796875 72.90625 
L 49.515625 72.90625 
L 49.515625 64.59375 
L 19.828125 64.59375 
L 19.828125 46.734375 
Q 21.96875 47.46875 24.109375 47.828125 
Q 26.265625 48.1875 28.421875 48.1875 
Q 40.625 48.1875 47.75 41.5 
Q 54.890625 34.8125 54.890625 23.390625 
Q 54.890625 11.625 47.5625 5.09375 
Q 40.234375 -1.421875 26.90625 -1.421875 
Q 22.3125 -1.421875 17.546875 -0.640625 
Q 12.796875 0.140625 7.71875 1.703125 
L 7.71875 11.625 
Q 12.109375 9.234375 16.796875 8.0625 
Q 21.484375 6.890625 26.703125 6.890625 
Q 35.15625 6.890625 40.078125 11.328125 
Q 45.015625 15.765625 45.015625 23.390625 
Q 45.015625 31 40.078125 35.4375 
Q 35.15625 39.890625 26.703125 39.890625 
Q 22.75 39.890625 18.8125 39.015625 
Q 14.890625 38.140625 10.796875 36.28125 
z
" id="DejaVuSans-35"/>
      </defs>
      <g transform="translate(28.334375 253.475282)scale(0.1 -0.1)">
       <use xlink:href="#DejaVuSans-30"/>
       <use x="63.623047" xlink:href="#DejaVuSans-2e"/>
       <use x="95.410156" xlink:href="#DejaVuSans-32"/>
       <use x="159.033203" xlink:href="#DejaVuSans-35"/>
      </g>
     </g>
    </g>
    <g id="ytick_3">
     <g id="line2d_9">
      <g>
       <use style="stroke:#000000;stroke-width:0.8;" x="57.6" xlink:href="#m9ba02bb7c9" y="211.326924"/>
      </g>
     </g>
     <g id="text_9">
      <!-- 0.30 -->
      <defs>
       <path d="M 40.578125 39.3125 
Q 47.65625 37.796875 51.625 33 
Q 55.609375 28.21875 55.609375 21.1875 
Q 55.609375 10.40625 48.1875 4.484375 
Q 40.765625 -1.421875 27.09375 -1.421875 
Q 22.515625 -1.421875 17.65625 -0.515625 
Q 12.796875 0.390625 7.625 2.203125 
L 7.625 11.71875 
Q 11.71875 9.328125 16.59375 8.109375 
Q 21.484375 6.890625 26.8125 6.890625 
Q 36.078125 6.890625 40.9375 10.546875 
Q 45.796875 14.203125 45.796875 21.1875 
Q 45.796875 27.640625 41.28125 31.265625 
Q 36.765625 34.90625 28.71875 34.90625 
L 20.21875 34.90625 
L 20.21875 43.015625 
L 29.109375 43.015625 
Q 36.375 43.015625 40.234375 45.921875 
Q 44.09375 48.828125 44.09375 54.296875 
Q 44.09375 59.90625 40.109375 62.90625 
Q 36.140625 65.921875 28.71875 65.921875 
Q 24.65625 65.921875 20.015625 65.03125 
Q 15.375 64.15625 9.8125 62.3125 
L 9.8125 71.09375 
Q 15.4375 72.65625 20.34375 73.4375 
Q 25.25 74.21875 29.59375 74.21875 
Q 40.828125 74.21875 47.359375 69.109375 
Q 53.90625 64.015625 53.90625 55.328125 
Q 53.90625 49.265625 50.4375 45.09375 
Q 46.96875 40.921875 40.578125 39.3125 
z
" id="DejaVuSans-33"/>
      </defs>
      <g transform="translate(28.334375 215.126142)scale(0.1 -0.1)">
       <use xlink:href="#DejaVuSans-30"/>
       <use x="63.623047" xlink:href="#DejaVuSans-2e"/>
       <use x="95.410156" xlink:href="#DejaVuSans-33"/>
       <use x="159.033203" xlink:href="#DejaVuSans-30"/>
      </g>
     </g>
    </g>
    <g id="ytick_4">
     <g id="line2d_10">
      <g>
       <use style="stroke:#000000;stroke-width:0.8;" x="57.6" xlink:href="#m9ba02bb7c9" y="172.977784"/>
      </g>
     </g>
     <g id="text_10">
      <!-- 0.35 -->
      <g transform="translate(28.334375 176.777002)scale(0.1 -0.1)">
       <use xlink:href="#DejaVuSans-30"/>
       <use x="63.623047" xlink:href="#DejaVuSans-2e"/>
       <use x="95.410156" xlink:href="#DejaVuSans-33"/>
       <use x="159.033203" xlink:href="#DejaVuSans-35"/>
      </g>
     </g>
    </g>
    <g id="ytick_5">
     <g id="line2d_11">
      <g>
       <use style="stroke:#000000;stroke-width:0.8;" x="57.6" xlink:href="#m9ba02bb7c9" y="134.628644"/>
      </g>
     </g>
     <g id="text_11">
      <!-- 0.40 -->
      <g transform="translate(28.334375 138.427863)scale(0.1 -0.1)">
       <use xlink:href="#DejaVuSans-30"/>
       <use x="63.623047" xlink:href="#DejaVuSans-2e"/>
       <use x="95.410156" xlink:href="#DejaVuSans-34"/>
       <use x="159.033203" xlink:href="#DejaVuSans-30"/>
      </g>
     </g>
    </g>
    <g id="ytick_6">
     <g id="line2d_12">
      <g>
       <use style="stroke:#000000;stroke-width:0.8;" x="57.6" xlink:href="#m9ba02bb7c9" y="96.279504"/>
      </g>
     </g>
     <g id="text_12">
      <!-- 0.45 -->
      <g transform="translate(28.334375 100.078723)scale(0.1 -0.1)">
       <use xlink:href="#DejaVuSans-30"/>
       <use x="63.623047" xlink:href="#DejaVuSans-2e"/>
       <use x="95.410156" xlink:href="#DejaVuSans-34"/>
       <use x="159.033203" xlink:href="#DejaVuSans-35"/>
      </g>
     </g>
    </g>
    <g id="ytick_7">
     <g id="line2d_13">
      <g>
       <use style="stroke:#000000;stroke-width:0.8;" x="57.6" xlink:href="#m9ba02bb7c9" y="57.930364"/>
      </g>
     </g>
     <g id="text_13">
      <!-- 0.50 -->
      <g transform="translate(28.334375 61.729583)scale(0.1 -0.1)">
       <use xlink:href="#DejaVuSans-30"/>
       <use x="63.623047" xlink:href="#DejaVuSans-2e"/>
       <use x="95.410156" xlink:href="#DejaVuSans-35"/>
       <use x="159.033203" xlink:href="#DejaVuSans-30"/>
      </g>
     </g>
    </g>
   </g>
   <g id="LineCollection_1">
    <path clip-path="url(#p667f82949b)" d="M 73.840119 232.58506 
L 73.840119 53.568 
" style="fill:none;stroke:#1f77b4;stroke-width:1.5;"/>
    <path clip-path="url(#p667f82949b)" d="M 77.119308 226.232888 
L 77.119308 68.149397 
" style="fill:none;stroke:#1f77b4;stroke-width:1.5;"/>
    <path clip-path="url(#p667f82949b)" d="M 80.398498 228.602071 
L 80.398498 75.803588 
" style="fill:none;stroke:#1f77b4;stroke-width:1.5;"/>
    <path clip-path="url(#p667f82949b)" d="M 83.677687 223.550042 
L 83.677687 86.42844 
" style="fill:none;stroke:#1f77b4;stroke-width:1.5;"/>
    <path clip-path="url(#p667f82949b)" d="M 86.956877 221.743475 
L 86.956877 109.661696 
" style="fill:none;stroke:#1f77b4;stroke-width:1.5;"/>
    <path clip-path="url(#p667f82949b)" d="M 90.236066 233.761984 
L 90.236066 121.174651 
" style="fill:none;stroke:#1f77b4;stroke-width:1.5;"/>
    <path clip-path="url(#p667f82949b)" d="M 93.515256 241.461501 
L 93.515256 127.515146 
" style="fill:none;stroke:#1f77b4;stroke-width:1.5;"/>
    <path clip-path="url(#p667f82949b)" d="M 96.794446 247.372026 
L 96.794446 131.591543 
" style="fill:none;stroke:#1f77b4;stroke-width:1.5;"/>
    <path clip-path="url(#p667f82949b)" d="M 100.073635 254.143515 
L 100.073635 136.670201 
" style="fill:none;stroke:#1f77b4;stroke-width:1.5;"/>
    <path clip-path="url(#p667f82949b)" d="M 103.352825 255.049021 
L 103.352825 142.450675 
" style="fill:none;stroke:#1f77b4;stroke-width:1.5;"/>
    <path clip-path="url(#p667f82949b)" d="M 106.632014 258.925422 
L 106.632014 144.14618 
" style="fill:none;stroke:#1f77b4;stroke-width:1.5;"/>
    <path clip-path="url(#p667f82949b)" d="M 109.911204 265.587434 
L 109.911204 148.813469 
" style="fill:none;stroke:#1f77b4;stroke-width:1.5;"/>
    <path clip-path="url(#p667f82949b)" d="M 113.190393 272.13121 
L 113.190393 152.037789 
" style="fill:none;stroke:#1f77b4;stroke-width:1.5;"/>
    <path clip-path="url(#p667f82949b)" d="M 116.469583 281.2664 
L 116.469583 156.021067 
" style="fill:none;stroke:#1f77b4;stroke-width:1.5;"/>
    <path clip-path="url(#p667f82949b)" d="M 119.748772 289.846357 
L 119.748772 160.242036 
" style="fill:none;stroke:#1f77b4;stroke-width:1.5;"/>
    <path clip-path="url(#p667f82949b)" d="M 123.027962 292.24878 
L 123.027962 164.101601 
" style="fill:none;stroke:#1f77b4;stroke-width:1.5;"/>
    <path clip-path="url(#p667f82949b)" d="M 126.307151 292.186455 
L 126.307151 168.777423 
" style="fill:none;stroke:#1f77b4;stroke-width:1.5;"/>
    <path clip-path="url(#p667f82949b)" d="M 129.586341 292.020904 
L 129.586341 174.595485 
" style="fill:none;stroke:#1f77b4;stroke-width:1.5;"/>
    <path clip-path="url(#p667f82949b)" d="M 132.86553 291.850854 
L 132.86553 181.824721 
" style="fill:none;stroke:#1f77b4;stroke-width:1.5;"/>
    <path clip-path="url(#p667f82949b)" d="M 136.14472 291.688802 
L 136.14472 189.162834 
" style="fill:none;stroke:#1f77b4;stroke-width:1.5;"/>
    <path clip-path="url(#p667f82949b)" d="M 139.423909 291.537323 
L 139.423909 196.440743 
" style="fill:none;stroke:#1f77b4;stroke-width:1.5;"/>
    <path clip-path="url(#p667f82949b)" d="M 142.703099 291.396549 
L 142.703099 205.040926 
" style="fill:none;stroke:#1f77b4;stroke-width:1.5;"/>
    <path clip-path="url(#p667f82949b)" d="M 145.982288 291.265887 
L 145.982288 213.390014 
" style="fill:none;stroke:#1f77b4;stroke-width:1.5;"/>
    <path clip-path="url(#p667f82949b)" d="M 149.261478 291.144542 
L 149.261478 221.380981 
" style="fill:none;stroke:#1f77b4;stroke-width:1.5;"/>
    <path clip-path="url(#p667f82949b)" d="M 152.540667 291.031693 
L 152.540667 229.243206 
" style="fill:none;stroke:#1f77b4;stroke-width:1.5;"/>
    <path clip-path="url(#p667f82949b)" d="M 155.819857 290.926567 
L 155.819857 234.954636 
" style="fill:none;stroke:#1f77b4;stroke-width:1.5;"/>
    <path clip-path="url(#p667f82949b)" d="M 159.099046 291.371254 
L 159.099046 238.962872 
" style="fill:none;stroke:#1f77b4;stroke-width:1.5;"/>
    <path clip-path="url(#p667f82949b)" d="M 162.378236 292.75697 
L 162.378236 240.994074 
" style="fill:none;stroke:#1f77b4;stroke-width:1.5;"/>
    <path clip-path="url(#p667f82949b)" d="M 165.657425 294.498299 
L 165.657425 242.54894 
" style="fill:none;stroke:#1f77b4;stroke-width:1.5;"/>
    <path clip-path="url(#p667f82949b)" d="M 168.936615 295.336936 
L 168.936615 244.124725 
" style="fill:none;stroke:#1f77b4;stroke-width:1.5;"/>
    <path clip-path="url(#p667f82949b)" d="M 172.215804 295.183503 
L 172.215804 245.772365 
" style="fill:none;stroke:#1f77b4;stroke-width:1.5;"/>
    <path clip-path="url(#p667f82949b)" d="M 175.494994 294.93577 
L 175.494994 247.64597 
" style="fill:none;stroke:#1f77b4;stroke-width:1.5;"/>
    <path clip-path="url(#p667f82949b)" d="M 178.774183 294.654177 
L 178.774183 249.824974 
" style="fill:none;stroke:#1f77b4;stroke-width:1.5;"/>
    <path clip-path="url(#p667f82949b)" d="M 182.053373 294.336381 
L 182.053373 252.415945 
" style="fill:none;stroke:#1f77b4;stroke-width:1.5;"/>
    <path clip-path="url(#p667f82949b)" d="M 185.332562 293.969534 
L 185.332562 255.578582 
" style="fill:none;stroke:#1f77b4;stroke-width:1.5;"/>
    <path clip-path="url(#p667f82949b)" d="M 188.611752 293.534012 
L 188.611752 259.533345 
" style="fill:none;stroke:#1f77b4;stroke-width:1.5;"/>
    <path clip-path="url(#p667f82949b)" d="M 191.890942 293.488371 
L 191.890942 263.91272 
" style="fill:none;stroke:#1f77b4;stroke-width:1.5;"/>
    <path clip-path="url(#p667f82949b)" d="M 195.170131 295.119094 
L 195.170131 266.388595 
" style="fill:none;stroke:#1f77b4;stroke-width:1.5;"/>
    <path clip-path="url(#p667f82949b)" d="M 198.449321 295.488 
L 198.449321 267.925437 
" style="fill:none;stroke:#1f77b4;stroke-width:1.5;"/>
    <path clip-path="url(#p667f82949b)" d="M 201.72851 295.168909 
L 201.72851 269.379113 
" style="fill:none;stroke:#1f77b4;stroke-width:1.5;"/>
    <path clip-path="url(#p667f82949b)" d="M 205.0077 294.742579 
L 205.0077 271.061279 
" style="fill:none;stroke:#1f77b4;stroke-width:1.5;"/>
    <path clip-path="url(#p667f82949b)" d="M 208.286889 294.230522 
L 208.286889 273.072847 
" style="fill:none;stroke:#1f77b4;stroke-width:1.5;"/>
    <path clip-path="url(#p667f82949b)" d="M 211.566079 293.611318 
L 211.566079 275.540305 
" style="fill:none;stroke:#1f77b4;stroke-width:1.5;"/>
    <path clip-path="url(#p667f82949b)" d="M 214.845268 292.84687 
L 214.845268 278.63847 
" style="fill:none;stroke:#1f77b4;stroke-width:1.5;"/>
    <path clip-path="url(#p667f82949b)" d="M 218.124458 291.900197 
L 218.124458 282.531075 
" style="fill:none;stroke:#1f77b4;stroke-width:1.5;"/>
    <path clip-path="url(#p667f82949b)" d="M 221.403647 290.85407 
L 221.403647 286.86077 
" style="fill:none;stroke:#1f77b4;stroke-width:1.5;"/>
    <path clip-path="url(#p667f82949b)" d="M 224.682837 290.788245 
L 224.682837 288.956348 
" style="fill:none;stroke:#1f77b4;stroke-width:1.5;"/>
    <path clip-path="url(#p667f82949b)" d="M 227.962026 290.899287 
L 227.962026 289.146199 
" style="fill:none;stroke:#1f77b4;stroke-width:1.5;"/>
    <path clip-path="url(#p667f82949b)" d="M 231.241216 290.880211 
L 231.241216 289.151131 
" style="fill:none;stroke:#1f77b4;stroke-width:1.5;"/>
    <path clip-path="url(#p667f82949b)" d="M 234.520405 290.844474 
L 234.520405 289.134759 
" style="fill:none;stroke:#1f77b4;stroke-width:1.5;"/>
    <path clip-path="url(#p667f82949b)" d="M 237.799595 290.804928 
L 237.799595 289.113417 
" style="fill:none;stroke:#1f77b4;stroke-width:1.5;"/>
    <path clip-path="url(#p667f82949b)" d="M 241.078784 290.764655 
L 241.078784 289.090767 
" style="fill:none;stroke:#1f77b4;stroke-width:1.5;"/>
    <path clip-path="url(#p667f82949b)" d="M 244.357974 290.724689 
L 244.357974 289.068004 
" style="fill:none;stroke:#1f77b4;stroke-width:1.5;"/>
    <path clip-path="url(#p667f82949b)" d="M 247.637163 290.685438 
L 247.637163 289.045597 
" style="fill:none;stroke:#1f77b4;stroke-width:1.5;"/>
    <path clip-path="url(#p667f82949b)" d="M 250.916353 290.649086 
L 250.916353 289.021736 
" style="fill:none;stroke:#1f77b4;stroke-width:1.5;"/>
    <path clip-path="url(#p667f82949b)" d="M 254.195542 290.6139 
L 254.195542 288.998312 
" style="fill:none;stroke:#1f77b4;stroke-width:1.5;"/>
    <path clip-path="url(#p667f82949b)" d="M 257.474732 290.57957 
L 257.474732 288.975688 
" style="fill:none;stroke:#1f77b4;stroke-width:1.5;"/>
    <path clip-path="url(#p667f82949b)" d="M 260.753921 290.546106 
L 260.753921 288.953855 
" style="fill:none;stroke:#1f77b4;stroke-width:1.5;"/>
    <path clip-path="url(#p667f82949b)" d="M 264.033111 290.513502 
L 264.033111 288.932793 
" style="fill:none;stroke:#1f77b4;stroke-width:1.5;"/>
    <path clip-path="url(#p667f82949b)" d="M 267.3123 290.481742 
L 267.3123 288.912477 
" style="fill:none;stroke:#1f77b4;stroke-width:1.5;"/>
    <path clip-path="url(#p667f82949b)" d="M 270.59149 290.450803 
L 270.59149 288.892879 
" style="fill:none;stroke:#1f77b4;stroke-width:1.5;"/>
    <path clip-path="url(#p667f82949b)" d="M 273.870679 290.420663 
L 273.870679 288.87397 
" style="fill:none;stroke:#1f77b4;stroke-width:1.5;"/>
    <path clip-path="url(#p667f82949b)" d="M 277.149869 290.391295 
L 277.149869 288.855722 
" style="fill:none;stroke:#1f77b4;stroke-width:1.5;"/>
    <path clip-path="url(#p667f82949b)" d="M 280.429058 290.362675 
L 280.429058 288.838105 
" style="fill:none;stroke:#1f77b4;stroke-width:1.5;"/>
    <path clip-path="url(#p667f82949b)" d="M 283.708248 290.334776 
L 283.708248 288.821094 
" style="fill:none;stroke:#1f77b4;stroke-width:1.5;"/>
    <path clip-path="url(#p667f82949b)" d="M 286.987438 290.307573 
L 286.987438 288.80466 
" style="fill:none;stroke:#1f77b4;stroke-width:1.5;"/>
    <path clip-path="url(#p667f82949b)" d="M 290.266627 290.281043 
L 290.266627 288.788779 
" style="fill:none;stroke:#1f77b4;stroke-width:1.5;"/>
    <path clip-path="url(#p667f82949b)" d="M 293.545817 290.25516 
L 293.545817 288.773428 
" style="fill:none;stroke:#1f77b4;stroke-width:1.5;"/>
    <path clip-path="url(#p667f82949b)" d="M 296.825006 290.229903 
L 296.825006 288.758582 
" style="fill:none;stroke:#1f77b4;stroke-width:1.5;"/>
    <path clip-path="url(#p667f82949b)" d="M 300.104196 290.20525 
L 300.104196 288.74422 
" style="fill:none;stroke:#1f77b4;stroke-width:1.5;"/>
    <path clip-path="url(#p667f82949b)" d="M 303.383385 290.181178 
L 303.383385 288.730322 
" style="fill:none;stroke:#1f77b4;stroke-width:1.5;"/>
    <path clip-path="url(#p667f82949b)" d="M 306.662575 290.157668 
L 306.662575 288.716867 
" style="fill:none;stroke:#1f77b4;stroke-width:1.5;"/>
    <path clip-path="url(#p667f82949b)" d="M 309.941764 290.134701 
L 309.941764 288.703837 
" style="fill:none;stroke:#1f77b4;stroke-width:1.5;"/>
    <path clip-path="url(#p667f82949b)" d="M 313.220954 290.112257 
L 313.220954 288.691214 
" style="fill:none;stroke:#1f77b4;stroke-width:1.5;"/>
    <path clip-path="url(#p667f82949b)" d="M 316.500143 290.090319 
L 316.500143 288.678981 
" style="fill:none;stroke:#1f77b4;stroke-width:1.5;"/>
    <path clip-path="url(#p667f82949b)" d="M 319.779333 290.06887 
L 319.779333 288.667123 
" style="fill:none;stroke:#1f77b4;stroke-width:1.5;"/>
    <path clip-path="url(#p667f82949b)" d="M 323.058522 290.047894 
L 323.058522 288.655623 
" style="fill:none;stroke:#1f77b4;stroke-width:1.5;"/>
    <path clip-path="url(#p667f82949b)" d="M 326.337712 290.027374 
L 326.337712 288.644467 
" style="fill:none;stroke:#1f77b4;stroke-width:1.5;"/>
    <path clip-path="url(#p667f82949b)" d="M 329.616901 290.007296 
L 329.616901 288.633642 
" style="fill:none;stroke:#1f77b4;stroke-width:1.5;"/>
    <path clip-path="url(#p667f82949b)" d="M 332.896091 289.987645 
L 332.896091 288.623135 
" style="fill:none;stroke:#1f77b4;stroke-width:1.5;"/>
    <path clip-path="url(#p667f82949b)" d="M 336.17528 289.968408 
L 336.17528 288.612932 
" style="fill:none;stroke:#1f77b4;stroke-width:1.5;"/>
    <path clip-path="url(#p667f82949b)" d="M 339.45447 289.949571 
L 339.45447 288.603023 
" style="fill:none;stroke:#1f77b4;stroke-width:1.5;"/>
    <path clip-path="url(#p667f82949b)" d="M 342.733659 289.931121 
L 342.733659 288.593395 
" style="fill:none;stroke:#1f77b4;stroke-width:1.5;"/>
    <path clip-path="url(#p667f82949b)" d="M 346.012849 289.913048 
L 346.012849 288.584039 
" style="fill:none;stroke:#1f77b4;stroke-width:1.5;"/>
    <path clip-path="url(#p667f82949b)" d="M 349.292038 289.895338 
L 349.292038 288.574944 
" style="fill:none;stroke:#1f77b4;stroke-width:1.5;"/>
    <path clip-path="url(#p667f82949b)" d="M 352.571228 289.877981 
L 352.571228 288.566099 
" style="fill:none;stroke:#1f77b4;stroke-width:1.5;"/>
    <path clip-path="url(#p667f82949b)" d="M 355.850417 289.860966 
L 355.850417 288.557497 
" style="fill:none;stroke:#1f77b4;stroke-width:1.5;"/>
    <path clip-path="url(#p667f82949b)" d="M 359.129607 289.844282 
L 359.129607 288.549127 
" style="fill:none;stroke:#1f77b4;stroke-width:1.5;"/>
    <path clip-path="url(#p667f82949b)" d="M 362.408796 289.827921 
L 362.408796 288.540983 
" style="fill:none;stroke:#1f77b4;stroke-width:1.5;"/>
    <path clip-path="url(#p667f82949b)" d="M 365.687986 289.811871 
L 365.687986 288.533054 
" style="fill:none;stroke:#1f77b4;stroke-width:1.5;"/>
    <path clip-path="url(#p667f82949b)" d="M 368.967175 289.796125 
L 368.967175 288.525334 
" style="fill:none;stroke:#1f77b4;stroke-width:1.5;"/>
    <path clip-path="url(#p667f82949b)" d="M 372.246365 289.780673 
L 372.246365 288.517815 
" style="fill:none;stroke:#1f77b4;stroke-width:1.5;"/>
    <path clip-path="url(#p667f82949b)" d="M 375.525554 289.765507 
L 375.525554 288.510491 
" style="fill:none;stroke:#1f77b4;stroke-width:1.5;"/>
    <path clip-path="url(#p667f82949b)" d="M 378.804744 289.750618 
L 378.804744 288.503354 
" style="fill:none;stroke:#1f77b4;stroke-width:1.5;"/>
    <path clip-path="url(#p667f82949b)" d="M 382.083934 289.736 
L 382.083934 288.496398 
" style="fill:none;stroke:#1f77b4;stroke-width:1.5;"/>
    <path clip-path="url(#p667f82949b)" d="M 385.363123 289.721644 
L 385.363123 288.489617 
" style="fill:none;stroke:#1f77b4;stroke-width:1.5;"/>
    <path clip-path="url(#p667f82949b)" d="M 388.642313 289.707543 
L 388.642313 288.483005 
" style="fill:none;stroke:#1f77b4;stroke-width:1.5;"/>
    <path clip-path="url(#p667f82949b)" d="M 391.921502 289.69369 
L 391.921502 288.476556 
" style="fill:none;stroke:#1f77b4;stroke-width:1.5;"/>
    <path clip-path="url(#p667f82949b)" d="M 395.200692 289.680078 
L 395.200692 288.470264 
" style="fill:none;stroke:#1f77b4;stroke-width:1.5;"/>
    <path clip-path="url(#p667f82949b)" d="M 398.479881 289.666702 
L 398.479881 288.464126 
" style="fill:none;stroke:#1f77b4;stroke-width:1.5;"/>
   </g>
   <g id="line2d_14"/>
   <g id="patch_3">
    <path d="M 57.6 307.584 
L 57.6 41.472 
" style="fill:none;stroke:#000000;stroke-linecap:square;stroke-linejoin:miter;stroke-width:0.8;"/>
   </g>
   <g id="patch_4">
    <path d="M 414.72 307.584 
L 414.72 41.472 
" style="fill:none;stroke:#000000;stroke-linecap:square;stroke-linejoin:miter;stroke-width:0.8;"/>
   </g>
   <g id="patch_5">
    <path d="M 57.6 307.584 
L 414.72 307.584 
" style="fill:none;stroke:#000000;stroke-linecap:square;stroke-linejoin:miter;stroke-width:0.8;"/>
   </g>
   <g id="patch_6">
    <path d="M 57.6 41.472 
L 414.72 41.472 
" style="fill:none;stroke:#000000;stroke-linecap:square;stroke-linejoin:miter;stroke-width:0.8;"/>
   </g>
  </g>
 </g>
 <defs>
  <clipPath id="p667f82949b">
   <rect height="266.112" width="357.12" x="57.6" y="41.472"/>
  </clipPath>
 </defs>
</svg>
