<?xml version="1.0" encoding="utf-8" standalone="no"?>
<!DOCTYPE svg PUBLIC "-//W3C//DTD SVG 1.1//EN"
  "http://www.w3.org/Graphics/SVG/1.1/DTD/svg11.dtd">
<!-- Created with matplotlib (http://matplotlib.org/) -->
<svg height="345pt" version="1.1" viewBox="0 0 460 345" width="460pt" xmlns="http://www.w3.org/2000/svg" xmlns:xlink="http://www.w3.org/1999/xlink">
 <defs>
  <style type="text/css">
*{stroke-linecap:butt;stroke-linejoin:round;}
  </style>
 </defs>
 <g id="figure_1">
  <g id="patch_1">
   <path d="M 0 345.6 
L 460.8 345.6 
L 460.8 0 
L 0 0 
z
" style="fill:#ffffff;"/>
  </g>
  <g id="axes_1">
   <g id="patch_2">
    <path d="M 57.6 307.584 
L 414.72 307.584 
L 414.72 41.472 
L 57.6 41.472 
z
" style="fill:#ffffff;"/>
   </g>
   <g id="PathCollection_1">
    <defs>
     <path d="M 0 1.118034 
C 0.296506 1.118034 0.580908 1.000231 0.790569 0.790569 
C 1.000231 0.580908 1.118034 0.296506 1.118034 0 
C 1.118034 -0.296506 1.000231 -0.580908 0.790569 -0.790569 
C 0.580908 -1.000231 0.296506 -1.118034 0 -1.118034 
C -0.296506 -1.118034 -0.580908 -1.000231 -0.790569 -0.790569 
C -1.000231 -0.580908 -1.118034 -0.296506 -1.118034 0 
C -1.118034 0.296506 -1.000231 0.580908 -0.790569 0.790569 
C -0.580908 1.000231 -0.296506 1.118034 0 1.118034 
z
" id="m6090752859" style="stroke:#1f77b4;"/>
    </defs>
    <g clip-path="url(#p37cf9b7057)">
     <use style="fill:#1f77b4;stroke:#1f77b4;" x="73.838725" xlink:href="#m6090752859" y="83.67154"/>
     <use style="fill:#1f77b4;stroke:#1f77b4;" x="76.49973" xlink:href="#m6090752859" y="71.617429"/>
     <use style="fill:#1f77b4;stroke:#1f77b4;" x="79.160734" xlink:href="#m6090752859" y="131.887988"/>
     <use style="fill:#1f77b4;stroke:#1f77b4;" x="81.821739" xlink:href="#m6090752859" y="143.942099"/>
     <use style="fill:#1f77b4;stroke:#1f77b4;" x="84.482743" xlink:href="#m6090752859" y="155.996211"/>
     <use style="fill:#1f77b4;stroke:#1f77b4;" x="87.143748" xlink:href="#m6090752859" y="240.374994"/>
     <use style="fill:#1f77b4;stroke:#1f77b4;" x="89.804752" xlink:href="#m6090752859" y="204.212659"/>
     <use style="fill:#1f77b4;stroke:#1f77b4;" x="92.465757" xlink:href="#m6090752859" y="240.374994"/>
     <use style="fill:#1f77b4;stroke:#1f77b4;" x="95.126761" xlink:href="#m6090752859" y="264.483218"/>
     <use style="fill:#1f77b4;stroke:#1f77b4;" x="97.787766" xlink:href="#m6090752859" y="227.543198"/>
     <use style="fill:#1f77b4;stroke:#1f77b4;" x="100.44877" xlink:href="#m6090752859" y="263.705533"/>
     <use style="fill:#1f77b4;stroke:#1f77b4;" x="103.109775" xlink:href="#m6090752859" y="276.537329"/>
     <use style="fill:#1f77b4;stroke:#1f77b4;" x="105.770779" xlink:href="#m6090752859" y="251.651421"/>
     <use style="fill:#1f77b4;stroke:#1f77b4;" x="108.431784" xlink:href="#m6090752859" y="262.927848"/>
     <use style="fill:#1f77b4;stroke:#1f77b4;" x="113.753793" xlink:href="#m6090752859" y="162.606531"/>
     <use style="fill:#1f77b4;stroke:#1f77b4;" x="116.414797" xlink:href="#m6090752859" y="250.096052"/>
     <use style="fill:#1f77b4;stroke:#1f77b4;" x="119.075802" xlink:href="#m6090752859" y="250.096052"/>
     <use style="fill:#1f77b4;stroke:#1f77b4;" x="121.736806" xlink:href="#m6090752859" y="275.759645"/>
     <use style="fill:#1f77b4;stroke:#1f77b4;" x="124.397811" xlink:href="#m6090752859" y="211.600663"/>
     <use style="fill:#1f77b4;stroke:#1f77b4;" x="127.058815" xlink:href="#m6090752859" y="237.264255"/>
     <use style="fill:#1f77b4;stroke:#1f77b4;" x="129.71982" xlink:href="#m6090752859" y="224.432459"/>
     <use style="fill:#1f77b4;stroke:#1f77b4;" x="132.380824" xlink:href="#m6090752859" y="224.432459"/>
     <use style="fill:#1f77b4;stroke:#1f77b4;" x="135.041829" xlink:href="#m6090752859" y="211.600663"/>
     <use style="fill:#1f77b4;stroke:#1f77b4;" x="137.702833" xlink:href="#m6090752859" y="224.432459"/>
     <use style="fill:#1f77b4;stroke:#1f77b4;" x="140.363838" xlink:href="#m6090752859" y="237.264255"/>
     <use style="fill:#1f77b4;stroke:#1f77b4;" x="143.024842" xlink:href="#m6090752859" y="237.264255"/>
     <use style="fill:#1f77b4;stroke:#1f77b4;" x="145.685847" xlink:href="#m6090752859" y="250.096052"/>
     <use style="fill:#1f77b4;stroke:#1f77b4;" x="148.346851" xlink:href="#m6090752859" y="198.768866"/>
     <use style="fill:#1f77b4;stroke:#1f77b4;" x="151.007856" xlink:href="#m6090752859" y="237.264255"/>
     <use style="fill:#1f77b4;stroke:#1f77b4;" x="153.66886" xlink:href="#m6090752859" y="262.927848"/>
     <use style="fill:#1f77b4;stroke:#1f77b4;" x="156.329865" xlink:href="#m6090752859" y="224.432459"/>
     <use style="fill:#1f77b4;stroke:#1f77b4;" x="158.990869" xlink:href="#m6090752859" y="237.124779"/>
     <use style="fill:#1f77b4;stroke:#1f77b4;" x="161.651874" xlink:href="#m6090752859" y="250.096052"/>
     <use style="fill:#1f77b4;stroke:#1f77b4;" x="164.312878" xlink:href="#m6090752859" y="262.927848"/>
     <use style="fill:#1f77b4;stroke:#1f77b4;" x="166.973883" xlink:href="#m6090752859" y="250.096052"/>
     <use style="fill:#1f77b4;stroke:#1f77b4;" x="169.634887" xlink:href="#m6090752859" y="275.759645"/>
     <use style="fill:#1f77b4;stroke:#1f77b4;" x="172.295892" xlink:href="#m6090752859" y="275.620169"/>
     <use style="fill:#1f77b4;stroke:#1f77b4;" x="174.956896" xlink:href="#m6090752859" y="275.620169"/>
     <use style="fill:#1f77b4;stroke:#1f77b4;" x="177.617901" xlink:href="#m6090752859" y="211.042758"/>
     <use style="fill:#1f77b4;stroke:#1f77b4;" x="182.93991" xlink:href="#m6090752859" y="275.620169"/>
     <use style="fill:#1f77b4;stroke:#1f77b4;" x="185.600914" xlink:href="#m6090752859" y="275.620169"/>
     <use style="fill:#1f77b4;stroke:#1f77b4;" x="188.261919" xlink:href="#m6090752859" y="236.706351"/>
     <use style="fill:#1f77b4;stroke:#1f77b4;" x="190.922923" xlink:href="#m6090752859" y="249.677624"/>
     <use style="fill:#1f77b4;stroke:#1f77b4;" x="193.583928" xlink:href="#m6090752859" y="210.763806"/>
     <use style="fill:#1f77b4;stroke:#1f77b4;" x="196.244932" xlink:href="#m6090752859" y="197.792534"/>
     <use style="fill:#1f77b4;stroke:#1f77b4;" x="198.905937" xlink:href="#m6090752859" y="210.763806"/>
     <use style="fill:#1f77b4;stroke:#1f77b4;" x="201.566941" xlink:href="#m6090752859" y="197.792534"/>
     <use style="fill:#1f77b4;stroke:#1f77b4;" x="204.227946" xlink:href="#m6090752859" y="184.821261"/>
     <use style="fill:#1f77b4;stroke:#1f77b4;" x="206.88895" xlink:href="#m6090752859" y="262.648896"/>
     <use style="fill:#1f77b4;stroke:#1f77b4;" x="209.549955" xlink:href="#m6090752859" y="210.763806"/>
     <use style="fill:#1f77b4;stroke:#1f77b4;" x="212.210959" xlink:href="#m6090752859" y="209.695584"/>
     <use style="fill:#1f77b4;stroke:#1f77b4;" x="214.871964" xlink:href="#m6090752859" y="184.821261"/>
     <use style="fill:#1f77b4;stroke:#1f77b4;" x="217.532968" xlink:href="#m6090752859" y="275.620169"/>
     <use style="fill:#1f77b4;stroke:#1f77b4;" x="220.193973" xlink:href="#m6090752859" y="275.620169"/>
     <use style="fill:#1f77b4;stroke:#1f77b4;" x="222.854977" xlink:href="#m6090752859" y="209.695584"/>
     <use style="fill:#1f77b4;stroke:#1f77b4;" x="228.176986" xlink:href="#m6090752859" y="222.666856"/>
     <use style="fill:#1f77b4;stroke:#1f77b4;" x="230.837991" xlink:href="#m6090752859" y="247.541179"/>
     <use style="fill:#1f77b4;stroke:#1f77b4;" x="233.498995" xlink:href="#m6090752859" y="262.648896"/>
     <use style="fill:#1f77b4;stroke:#1f77b4;" x="236.16" xlink:href="#m6090752859" y="246.472956"/>
     <use style="fill:#1f77b4;stroke:#1f77b4;" x="238.821005" xlink:href="#m6090752859" y="207.559139"/>
     <use style="fill:#1f77b4;stroke:#1f77b4;" x="241.482009" xlink:href="#m6090752859" y="219.462189"/>
     <use style="fill:#1f77b4;stroke:#1f77b4;" x="244.143014" xlink:href="#m6090752859" y="177.343704"/>
     <use style="fill:#1f77b4;stroke:#1f77b4;" x="246.804018" xlink:href="#m6090752859" y="260.512451"/>
     <use style="fill:#1f77b4;stroke:#1f77b4;" x="249.465023" xlink:href="#m6090752859" y="246.472956"/>
     <use style="fill:#1f77b4;stroke:#1f77b4;" x="252.126027" xlink:href="#m6090752859" y="205.422694"/>
     <use style="fill:#1f77b4;stroke:#1f77b4;" x="254.787032" xlink:href="#m6090752859" y="247.541179"/>
     <use style="fill:#1f77b4;stroke:#1f77b4;" x="257.448036" xlink:href="#m6090752859" y="218.393967"/>
     <use style="fill:#1f77b4;stroke:#1f77b4;" x="260.109041" xlink:href="#m6090752859" y="218.393967"/>
     <use style="fill:#1f77b4;stroke:#1f77b4;" x="262.770045" xlink:href="#m6090752859" y="232.433461"/>
     <use style="fill:#1f77b4;stroke:#1f77b4;" x="265.43105" xlink:href="#m6090752859" y="274.551946"/>
     <use style="fill:#1f77b4;stroke:#1f77b4;" x="268.092054" xlink:href="#m6090752859" y="232.433461"/>
     <use style="fill:#1f77b4;stroke:#1f77b4;" x="270.753059" xlink:href="#m6090752859" y="218.393967"/>
     <use style="fill:#1f77b4;stroke:#1f77b4;" x="273.414063" xlink:href="#m6090752859" y="204.354472"/>
     <use style="fill:#1f77b4;stroke:#1f77b4;" x="276.075068" xlink:href="#m6090752859" y="246.472956"/>
     <use style="fill:#1f77b4;stroke:#1f77b4;" x="278.736072" xlink:href="#m6090752859" y="274.551946"/>
     <use style="fill:#1f77b4;stroke:#1f77b4;" x="281.397077" xlink:href="#m6090752859" y="260.512451"/>
     <use style="fill:#1f77b4;stroke:#1f77b4;" x="284.058081" xlink:href="#m6090752859" y="235.320087"/>
     <use style="fill:#1f77b4;stroke:#1f77b4;" x="286.719086" xlink:href="#m6090752859" y="274.551946"/>
     <use style="fill:#1f77b4;stroke:#1f77b4;" x="289.38009" xlink:href="#m6090752859" y="263.399076"/>
     <use style="fill:#1f77b4;stroke:#1f77b4;" x="292.041095" xlink:href="#m6090752859" y="246.472956"/>
     <use style="fill:#1f77b4;stroke:#1f77b4;" x="294.702099" xlink:href="#m6090752859" y="277.438571"/>
     <use style="fill:#1f77b4;stroke:#1f77b4;" x="297.363104" xlink:href="#m6090752859" y="263.399076"/>
     <use style="fill:#1f77b4;stroke:#1f77b4;" x="300.024108" xlink:href="#m6090752859" y="249.359582"/>
     <use style="fill:#1f77b4;stroke:#1f77b4;" x="302.685113" xlink:href="#m6090752859" y="255.132832"/>
     <use style="fill:#1f77b4;stroke:#1f77b4;" x="305.346117" xlink:href="#m6090752859" y="218.787597"/>
     <use style="fill:#1f77b4;stroke:#1f77b4;" x="308.007122" xlink:href="#m6090752859" y="263.399076"/>
     <use style="fill:#1f77b4;stroke:#1f77b4;" x="310.668126" xlink:href="#m6090752859" y="243.979962"/>
     <use style="fill:#1f77b4;stroke:#1f77b4;" x="313.329131" xlink:href="#m6090752859" y="274.551946"/>
     <use style="fill:#1f77b4;stroke:#1f77b4;" x="315.990135" xlink:href="#m6090752859" y="243.979962"/>
     <use style="fill:#1f77b4;stroke:#1f77b4;" x="318.65114" xlink:href="#m6090752859" y="243.979962"/>
     <use style="fill:#1f77b4;stroke:#1f77b4;" x="321.312144" xlink:href="#m6090752859" y="218.787597"/>
     <use style="fill:#1f77b4;stroke:#1f77b4;" x="323.973149" xlink:href="#m6090752859" y="266.285702"/>
     <use style="fill:#1f77b4;stroke:#1f77b4;" x="326.634153" xlink:href="#m6090752859" y="243.979962"/>
     <use style="fill:#1f77b4;stroke:#1f77b4;" x="329.295158" xlink:href="#m6090752859" y="221.674222"/>
     <use style="fill:#1f77b4;stroke:#1f77b4;" x="331.956162" xlink:href="#m6090752859" y="277.438571"/>
     <use style="fill:#1f77b4;stroke:#1f77b4;" x="334.617167" xlink:href="#m6090752859" y="199.368483"/>
     <use style="fill:#1f77b4;stroke:#1f77b4;" x="337.278171" xlink:href="#m6090752859" y="221.674222"/>
     <use style="fill:#1f77b4;stroke:#1f77b4;" x="339.939176" xlink:href="#m6090752859" y="221.674222"/>
     <use style="fill:#1f77b4;stroke:#1f77b4;" x="342.60018" xlink:href="#m6090752859" y="221.674222"/>
     <use style="fill:#1f77b4;stroke:#1f77b4;" x="345.261185" xlink:href="#m6090752859" y="266.285702"/>
     <use style="fill:#1f77b4;stroke:#1f77b4;" x="347.922189" xlink:href="#m6090752859" y="243.979962"/>
     <use style="fill:#1f77b4;stroke:#1f77b4;" x="350.583194" xlink:href="#m6090752859" y="266.285702"/>
     <use style="fill:#1f77b4;stroke:#1f77b4;" x="353.244198" xlink:href="#m6090752859" y="232.827092"/>
     <use style="fill:#1f77b4;stroke:#1f77b4;" x="355.905203" xlink:href="#m6090752859" y="243.979962"/>
     <use style="fill:#1f77b4;stroke:#1f77b4;" x="358.566207" xlink:href="#m6090752859" y="277.438571"/>
     <use style="fill:#1f77b4;stroke:#1f77b4;" x="361.227212" xlink:href="#m6090752859" y="243.979962"/>
     <use style="fill:#1f77b4;stroke:#1f77b4;" x="363.888216" xlink:href="#m6090752859" y="277.438571"/>
     <use style="fill:#1f77b4;stroke:#1f77b4;" x="366.549221" xlink:href="#m6090752859" y="243.979962"/>
     <use style="fill:#1f77b4;stroke:#1f77b4;" x="369.210225" xlink:href="#m6090752859" y="277.438571"/>
     <use style="fill:#1f77b4;stroke:#1f77b4;" x="371.87123" xlink:href="#m6090752859" y="277.438571"/>
     <use style="fill:#1f77b4;stroke:#1f77b4;" x="374.532234" xlink:href="#m6090752859" y="277.438571"/>
     <use style="fill:#1f77b4;stroke:#1f77b4;" x="377.193239" xlink:href="#m6090752859" y="277.438571"/>
     <use style="fill:#1f77b4;stroke:#1f77b4;" x="379.854243" xlink:href="#m6090752859" y="255.132832"/>
     <use style="fill:#1f77b4;stroke:#1f77b4;" x="385.176252" xlink:href="#m6090752859" y="277.438571"/>
     <use style="fill:#1f77b4;stroke:#1f77b4;" x="393.159266" xlink:href="#m6090752859" y="277.438571"/>
     <use style="fill:#1f77b4;stroke:#1f77b4;" x="398.481275" xlink:href="#m6090752859" y="277.438571"/>
    </g>
   </g>
   <g id="matplotlib.axis_1">
    <g id="xtick_1">
     <g id="line2d_1">
      <defs>
       <path d="M 0 0 
L 0 3.5 
" id="md34a989f43" style="stroke:#000000;stroke-width:0.8;"/>
      </defs>
      <g>
       <use style="stroke:#000000;stroke-width:0.8;" x="73.838725" xlink:href="#md34a989f43" y="307.584"/>
      </g>
     </g>
     <g id="text_1">
      <!-- 0 -->
      <defs>
       <path d="M 31.78125 66.40625 
Q 24.171875 66.40625 20.328125 58.90625 
Q 16.5 51.421875 16.5 36.375 
Q 16.5 21.390625 20.328125 13.890625 
Q 24.171875 6.390625 31.78125 6.390625 
Q 39.453125 6.390625 43.28125 13.890625 
Q 47.125 21.390625 47.125 36.375 
Q 47.125 51.421875 43.28125 58.90625 
Q 39.453125 66.40625 31.78125 66.40625 
z
M 31.78125 74.21875 
Q 44.046875 74.21875 50.515625 64.515625 
Q 56.984375 54.828125 56.984375 36.375 
Q 56.984375 17.96875 50.515625 8.265625 
Q 44.046875 -1.421875 31.78125 -1.421875 
Q 19.53125 -1.421875 13.0625 8.265625 
Q 6.59375 17.96875 6.59375 36.375 
Q 6.59375 54.828125 13.0625 64.515625 
Q 19.53125 74.21875 31.78125 74.21875 
z
" id="DejaVuSans-30"/>
      </defs>
      <g transform="translate(70.657475 322.182437)scale(0.1 -0.1)">
       <use xlink:href="#DejaVuSans-30"/>
      </g>
     </g>
    </g>
    <g id="xtick_2">
     <g id="line2d_2">
      <g>
       <use style="stroke:#000000;stroke-width:0.8;" x="127.058815" xlink:href="#md34a989f43" y="307.584"/>
      </g>
     </g>
     <g id="text_2">
      <!-- 20 -->
      <defs>
       <path d="M 19.1875 8.296875 
L 53.609375 8.296875 
L 53.609375 0 
L 7.328125 0 
L 7.328125 8.296875 
Q 12.9375 14.109375 22.625 23.890625 
Q 32.328125 33.6875 34.8125 36.53125 
Q 39.546875 41.84375 41.421875 45.53125 
Q 43.3125 49.21875 43.3125 52.78125 
Q 43.3125 58.59375 39.234375 62.25 
Q 35.15625 65.921875 28.609375 65.921875 
Q 23.96875 65.921875 18.8125 64.3125 
Q 13.671875 62.703125 7.8125 59.421875 
L 7.8125 69.390625 
Q 13.765625 71.78125 18.9375 73 
Q 24.125 74.21875 28.421875 74.21875 
Q 39.75 74.21875 46.484375 68.546875 
Q 53.21875 62.890625 53.21875 53.421875 
Q 53.21875 48.921875 51.53125 44.890625 
Q 49.859375 40.875 45.40625 35.40625 
Q 44.1875 33.984375 37.640625 27.21875 
Q 31.109375 20.453125 19.1875 8.296875 
z
" id="DejaVuSans-32"/>
      </defs>
      <g transform="translate(120.696315 322.182437)scale(0.1 -0.1)">
       <use xlink:href="#DejaVuSans-32"/>
       <use x="63.623047" xlink:href="#DejaVuSans-30"/>
      </g>
     </g>
    </g>
    <g id="xtick_3">
     <g id="line2d_3">
      <g>
       <use style="stroke:#000000;stroke-width:0.8;" x="180.278905" xlink:href="#md34a989f43" y="307.584"/>
      </g>
     </g>
     <g id="text_3">
      <!-- 40 -->
      <defs>
       <path d="M 37.796875 64.3125 
L 12.890625 25.390625 
L 37.796875 25.390625 
z
M 35.203125 72.90625 
L 47.609375 72.90625 
L 47.609375 25.390625 
L 58.015625 25.390625 
L 58.015625 17.1875 
L 47.609375 17.1875 
L 47.609375 0 
L 37.796875 0 
L 37.796875 17.1875 
L 4.890625 17.1875 
L 4.890625 26.703125 
z
" id="DejaVuSans-34"/>
      </defs>
      <g transform="translate(173.916405 322.182437)scale(0.1 -0.1)">
       <use xlink:href="#DejaVuSans-34"/>
       <use x="63.623047" xlink:href="#DejaVuSans-30"/>
      </g>
     </g>
    </g>
    <g id="xtick_4">
     <g id="line2d_4">
      <g>
       <use style="stroke:#000000;stroke-width:0.8;" x="233.498995" xlink:href="#md34a989f43" y="307.584"/>
      </g>
     </g>
     <g id="text_4">
      <!-- 60 -->
      <defs>
       <path d="M 33.015625 40.375 
Q 26.375 40.375 22.484375 35.828125 
Q 18.609375 31.296875 18.609375 23.390625 
Q 18.609375 15.53125 22.484375 10.953125 
Q 26.375 6.390625 33.015625 6.390625 
Q 39.65625 6.390625 43.53125 10.953125 
Q 47.40625 15.53125 47.40625 23.390625 
Q 47.40625 31.296875 43.53125 35.828125 
Q 39.65625 40.375 33.015625 40.375 
z
M 52.59375 71.296875 
L 52.59375 62.3125 
Q 48.875 64.0625 45.09375 64.984375 
Q 41.3125 65.921875 37.59375 65.921875 
Q 27.828125 65.921875 22.671875 59.328125 
Q 17.53125 52.734375 16.796875 39.40625 
Q 19.671875 43.65625 24.015625 45.921875 
Q 28.375 48.1875 33.59375 48.1875 
Q 44.578125 48.1875 50.953125 41.515625 
Q 57.328125 34.859375 57.328125 23.390625 
Q 57.328125 12.15625 50.6875 5.359375 
Q 44.046875 -1.421875 33.015625 -1.421875 
Q 20.359375 -1.421875 13.671875 8.265625 
Q 6.984375 17.96875 6.984375 36.375 
Q 6.984375 53.65625 15.1875 63.9375 
Q 23.390625 74.21875 37.203125 74.21875 
Q 40.921875 74.21875 44.703125 73.484375 
Q 48.484375 72.75 52.59375 71.296875 
z
" id="DejaVuSans-36"/>
      </defs>
      <g transform="translate(227.136495 322.182437)scale(0.1 -0.1)">
       <use xlink:href="#DejaVuSans-36"/>
       <use x="63.623047" xlink:href="#DejaVuSans-30"/>
      </g>
     </g>
    </g>
    <g id="xtick_5">
     <g id="line2d_5">
      <g>
       <use style="stroke:#000000;stroke-width:0.8;" x="286.719086" xlink:href="#md34a989f43" y="307.584"/>
      </g>
     </g>
     <g id="text_5">
      <!-- 80 -->
      <defs>
       <path d="M 31.78125 34.625 
Q 24.75 34.625 20.71875 30.859375 
Q 16.703125 27.09375 16.703125 20.515625 
Q 16.703125 13.921875 20.71875 10.15625 
Q 24.75 6.390625 31.78125 6.390625 
Q 38.8125 6.390625 42.859375 10.171875 
Q 46.921875 13.96875 46.921875 20.515625 
Q 46.921875 27.09375 42.890625 30.859375 
Q 38.875 34.625 31.78125 34.625 
z
M 21.921875 38.8125 
Q 15.578125 40.375 12.03125 44.71875 
Q 8.5 49.078125 8.5 55.328125 
Q 8.5 64.0625 14.71875 69.140625 
Q 20.953125 74.21875 31.78125 74.21875 
Q 42.671875 74.21875 48.875 69.140625 
Q 55.078125 64.0625 55.078125 55.328125 
Q 55.078125 49.078125 51.53125 44.71875 
Q 48 40.375 41.703125 38.8125 
Q 48.828125 37.15625 52.796875 32.3125 
Q 56.78125 27.484375 56.78125 20.515625 
Q 56.78125 9.90625 50.3125 4.234375 
Q 43.84375 -1.421875 31.78125 -1.421875 
Q 19.734375 -1.421875 13.25 4.234375 
Q 6.78125 9.90625 6.78125 20.515625 
Q 6.78125 27.484375 10.78125 32.3125 
Q 14.796875 37.15625 21.921875 38.8125 
z
M 18.3125 54.390625 
Q 18.3125 48.734375 21.84375 45.5625 
Q 25.390625 42.390625 31.78125 42.390625 
Q 38.140625 42.390625 41.71875 45.5625 
Q 45.3125 48.734375 45.3125 54.390625 
Q 45.3125 60.0625 41.71875 63.234375 
Q 38.140625 66.40625 31.78125 66.40625 
Q 25.390625 66.40625 21.84375 63.234375 
Q 18.3125 60.0625 18.3125 54.390625 
z
" id="DejaVuSans-38"/>
      </defs>
      <g transform="translate(280.356586 322.182437)scale(0.1 -0.1)">
       <use xlink:href="#DejaVuSans-38"/>
       <use x="63.623047" xlink:href="#DejaVuSans-30"/>
      </g>
     </g>
    </g>
    <g id="xtick_6">
     <g id="line2d_6">
      <g>
       <use style="stroke:#000000;stroke-width:0.8;" x="339.939176" xlink:href="#md34a989f43" y="307.584"/>
      </g>
     </g>
     <g id="text_6">
      <!-- 100 -->
      <defs>
       <path d="M 12.40625 8.296875 
L 28.515625 8.296875 
L 28.515625 63.921875 
L 10.984375 60.40625 
L 10.984375 69.390625 
L 28.421875 72.90625 
L 38.28125 72.90625 
L 38.28125 8.296875 
L 54.390625 8.296875 
L 54.390625 0 
L 12.40625 0 
z
" id="DejaVuSans-31"/>
      </defs>
      <g transform="translate(330.395426 322.182437)scale(0.1 -0.1)">
       <use xlink:href="#DejaVuSans-31"/>
       <use x="63.623047" xlink:href="#DejaVuSans-30"/>
       <use x="127.246094" xlink:href="#DejaVuSans-30"/>
      </g>
     </g>
    </g>
    <g id="xtick_7">
     <g id="line2d_7">
      <g>
       <use style="stroke:#000000;stroke-width:0.8;" x="393.159266" xlink:href="#md34a989f43" y="307.584"/>
      </g>
     </g>
     <g id="text_7">
      <!-- 120 -->
      <g transform="translate(383.615516 322.182437)scale(0.1 -0.1)">
       <use xlink:href="#DejaVuSans-31"/>
       <use x="63.623047" xlink:href="#DejaVuSans-32"/>
       <use x="127.246094" xlink:href="#DejaVuSans-30"/>
      </g>
     </g>
    </g>
    <g id="text_8">
     <!-- Number of Connections -->
     <defs>
      <path d="M 9.8125 72.90625 
L 23.09375 72.90625 
L 55.421875 11.921875 
L 55.421875 72.90625 
L 64.984375 72.90625 
L 64.984375 0 
L 51.703125 0 
L 19.390625 60.984375 
L 19.390625 0 
L 9.8125 0 
z
" id="DejaVuSans-4e"/>
      <path d="M 8.5 21.578125 
L 8.5 54.6875 
L 17.484375 54.6875 
L 17.484375 21.921875 
Q 17.484375 14.15625 20.5 10.265625 
Q 23.53125 6.390625 29.59375 6.390625 
Q 36.859375 6.390625 41.078125 11.03125 
Q 45.3125 15.671875 45.3125 23.6875 
L 45.3125 54.6875 
L 54.296875 54.6875 
L 54.296875 0 
L 45.3125 0 
L 45.3125 8.40625 
Q 42.046875 3.421875 37.71875 1 
Q 33.40625 -1.421875 27.6875 -1.421875 
Q 18.265625 -1.421875 13.375 4.4375 
Q 8.5 10.296875 8.5 21.578125 
z
M 31.109375 56 
z
" id="DejaVuSans-75"/>
      <path d="M 52 44.1875 
Q 55.375 50.25 60.0625 53.125 
Q 64.75 56 71.09375 56 
Q 79.640625 56 84.28125 50.015625 
Q 88.921875 44.046875 88.921875 33.015625 
L 88.921875 0 
L 79.890625 0 
L 79.890625 32.71875 
Q 79.890625 40.578125 77.09375 44.375 
Q 74.3125 48.1875 68.609375 48.1875 
Q 61.625 48.1875 57.5625 43.546875 
Q 53.515625 38.921875 53.515625 30.90625 
L 53.515625 0 
L 44.484375 0 
L 44.484375 32.71875 
Q 44.484375 40.625 41.703125 44.40625 
Q 38.921875 48.1875 33.109375 48.1875 
Q 26.21875 48.1875 22.15625 43.53125 
Q 18.109375 38.875 18.109375 30.90625 
L 18.109375 0 
L 9.078125 0 
L 9.078125 54.6875 
L 18.109375 54.6875 
L 18.109375 46.1875 
Q 21.1875 51.21875 25.484375 53.609375 
Q 29.78125 56 35.6875 56 
Q 41.65625 56 45.828125 52.96875 
Q 50 49.953125 52 44.1875 
z
" id="DejaVuSans-6d"/>
      <path d="M 48.6875 27.296875 
Q 48.6875 37.203125 44.609375 42.84375 
Q 40.53125 48.484375 33.40625 48.484375 
Q 26.265625 48.484375 22.1875 42.84375 
Q 18.109375 37.203125 18.109375 27.296875 
Q 18.109375 17.390625 22.1875 11.75 
Q 26.265625 6.109375 33.40625 6.109375 
Q 40.53125 6.109375 44.609375 11.75 
Q 48.6875 17.390625 48.6875 27.296875 
z
M 18.109375 46.390625 
Q 20.953125 51.265625 25.265625 53.625 
Q 29.59375 56 35.59375 56 
Q 45.5625 56 51.78125 48.09375 
Q 58.015625 40.1875 58.015625 27.296875 
Q 58.015625 14.40625 51.78125 6.484375 
Q 45.5625 -1.421875 35.59375 -1.421875 
Q 29.59375 -1.421875 25.265625 0.953125 
Q 20.953125 3.328125 18.109375 8.203125 
L 18.109375 0 
L 9.078125 0 
L 9.078125 75.984375 
L 18.109375 75.984375 
z
" id="DejaVuSans-62"/>
      <path d="M 56.203125 29.59375 
L 56.203125 25.203125 
L 14.890625 25.203125 
Q 15.484375 15.921875 20.484375 11.0625 
Q 25.484375 6.203125 34.421875 6.203125 
Q 39.59375 6.203125 44.453125 7.46875 
Q 49.3125 8.734375 54.109375 11.28125 
L 54.109375 2.78125 
Q 49.265625 0.734375 44.1875 -0.34375 
Q 39.109375 -1.421875 33.890625 -1.421875 
Q 20.796875 -1.421875 13.15625 6.1875 
Q 5.515625 13.8125 5.515625 26.8125 
Q 5.515625 40.234375 12.765625 48.109375 
Q 20.015625 56 32.328125 56 
Q 43.359375 56 49.78125 48.890625 
Q 56.203125 41.796875 56.203125 29.59375 
z
M 47.21875 32.234375 
Q 47.125 39.59375 43.09375 43.984375 
Q 39.0625 48.390625 32.421875 48.390625 
Q 24.90625 48.390625 20.390625 44.140625 
Q 15.875 39.890625 15.1875 32.171875 
z
" id="DejaVuSans-65"/>
      <path d="M 41.109375 46.296875 
Q 39.59375 47.171875 37.8125 47.578125 
Q 36.03125 48 33.890625 48 
Q 26.265625 48 22.1875 43.046875 
Q 18.109375 38.09375 18.109375 28.8125 
L 18.109375 0 
L 9.078125 0 
L 9.078125 54.6875 
L 18.109375 54.6875 
L 18.109375 46.1875 
Q 20.953125 51.171875 25.484375 53.578125 
Q 30.03125 56 36.53125 56 
Q 37.453125 56 38.578125 55.875 
Q 39.703125 55.765625 41.0625 55.515625 
z
" id="DejaVuSans-72"/>
      <path id="DejaVuSans-20"/>
      <path d="M 30.609375 48.390625 
Q 23.390625 48.390625 19.1875 42.75 
Q 14.984375 37.109375 14.984375 27.296875 
Q 14.984375 17.484375 19.15625 11.84375 
Q 23.34375 6.203125 30.609375 6.203125 
Q 37.796875 6.203125 41.984375 11.859375 
Q 46.1875 17.53125 46.1875 27.296875 
Q 46.1875 37.015625 41.984375 42.703125 
Q 37.796875 48.390625 30.609375 48.390625 
z
M 30.609375 56 
Q 42.328125 56 49.015625 48.375 
Q 55.71875 40.765625 55.71875 27.296875 
Q 55.71875 13.875 49.015625 6.21875 
Q 42.328125 -1.421875 30.609375 -1.421875 
Q 18.84375 -1.421875 12.171875 6.21875 
Q 5.515625 13.875 5.515625 27.296875 
Q 5.515625 40.765625 12.171875 48.375 
Q 18.84375 56 30.609375 56 
z
" id="DejaVuSans-6f"/>
      <path d="M 37.109375 75.984375 
L 37.109375 68.5 
L 28.515625 68.5 
Q 23.6875 68.5 21.796875 66.546875 
Q 19.921875 64.59375 19.921875 59.515625 
L 19.921875 54.6875 
L 34.71875 54.6875 
L 34.71875 47.703125 
L 19.921875 47.703125 
L 19.921875 0 
L 10.890625 0 
L 10.890625 47.703125 
L 2.296875 47.703125 
L 2.296875 54.6875 
L 10.890625 54.6875 
L 10.890625 58.5 
Q 10.890625 67.625 15.140625 71.796875 
Q 19.390625 75.984375 28.609375 75.984375 
z
" id="DejaVuSans-66"/>
      <path d="M 64.40625 67.28125 
L 64.40625 56.890625 
Q 59.421875 61.53125 53.78125 63.8125 
Q 48.140625 66.109375 41.796875 66.109375 
Q 29.296875 66.109375 22.65625 58.46875 
Q 16.015625 50.828125 16.015625 36.375 
Q 16.015625 21.96875 22.65625 14.328125 
Q 29.296875 6.6875 41.796875 6.6875 
Q 48.140625 6.6875 53.78125 8.984375 
Q 59.421875 11.28125 64.40625 15.921875 
L 64.40625 5.609375 
Q 59.234375 2.09375 53.4375 0.328125 
Q 47.65625 -1.421875 41.21875 -1.421875 
Q 24.65625 -1.421875 15.125 8.703125 
Q 5.609375 18.84375 5.609375 36.375 
Q 5.609375 53.953125 15.125 64.078125 
Q 24.65625 74.21875 41.21875 74.21875 
Q 47.75 74.21875 53.53125 72.484375 
Q 59.328125 70.75 64.40625 67.28125 
z
" id="DejaVuSans-43"/>
      <path d="M 54.890625 33.015625 
L 54.890625 0 
L 45.90625 0 
L 45.90625 32.71875 
Q 45.90625 40.484375 42.875 44.328125 
Q 39.84375 48.1875 33.796875 48.1875 
Q 26.515625 48.1875 22.3125 43.546875 
Q 18.109375 38.921875 18.109375 30.90625 
L 18.109375 0 
L 9.078125 0 
L 9.078125 54.6875 
L 18.109375 54.6875 
L 18.109375 46.1875 
Q 21.34375 51.125 25.703125 53.5625 
Q 30.078125 56 35.796875 56 
Q 45.21875 56 50.046875 50.171875 
Q 54.890625 44.34375 54.890625 33.015625 
z
" id="DejaVuSans-6e"/>
      <path d="M 48.78125 52.59375 
L 48.78125 44.1875 
Q 44.96875 46.296875 41.140625 47.34375 
Q 37.3125 48.390625 33.40625 48.390625 
Q 24.65625 48.390625 19.8125 42.84375 
Q 14.984375 37.3125 14.984375 27.296875 
Q 14.984375 17.28125 19.8125 11.734375 
Q 24.65625 6.203125 33.40625 6.203125 
Q 37.3125 6.203125 41.140625 7.25 
Q 44.96875 8.296875 48.78125 10.40625 
L 48.78125 2.09375 
Q 45.015625 0.34375 40.984375 -0.53125 
Q 36.96875 -1.421875 32.421875 -1.421875 
Q 20.0625 -1.421875 12.78125 6.34375 
Q 5.515625 14.109375 5.515625 27.296875 
Q 5.515625 40.671875 12.859375 48.328125 
Q 20.21875 56 33.015625 56 
Q 37.15625 56 41.109375 55.140625 
Q 45.0625 54.296875 48.78125 52.59375 
z
" id="DejaVuSans-63"/>
      <path d="M 18.3125 70.21875 
L 18.3125 54.6875 
L 36.8125 54.6875 
L 36.8125 47.703125 
L 18.3125 47.703125 
L 18.3125 18.015625 
Q 18.3125 11.328125 20.140625 9.421875 
Q 21.96875 7.515625 27.59375 7.515625 
L 36.8125 7.515625 
L 36.8125 0 
L 27.59375 0 
Q 17.1875 0 13.234375 3.875 
Q 9.28125 7.765625 9.28125 18.015625 
L 9.28125 47.703125 
L 2.6875 47.703125 
L 2.6875 54.6875 
L 9.28125 54.6875 
L 9.28125 70.21875 
z
" id="DejaVuSans-74"/>
      <path d="M 9.421875 54.6875 
L 18.40625 54.6875 
L 18.40625 0 
L 9.421875 0 
z
M 9.421875 75.984375 
L 18.40625 75.984375 
L 18.40625 64.59375 
L 9.421875 64.59375 
z
" id="DejaVuSans-69"/>
      <path d="M 44.28125 53.078125 
L 44.28125 44.578125 
Q 40.484375 46.53125 36.375 47.5 
Q 32.28125 48.484375 27.875 48.484375 
Q 21.1875 48.484375 17.84375 46.4375 
Q 14.5 44.390625 14.5 40.28125 
Q 14.5 37.15625 16.890625 35.375 
Q 19.28125 33.59375 26.515625 31.984375 
L 29.59375 31.296875 
Q 39.15625 29.25 43.1875 25.515625 
Q 47.21875 21.78125 47.21875 15.09375 
Q 47.21875 7.46875 41.1875 3.015625 
Q 35.15625 -1.421875 24.609375 -1.421875 
Q 20.21875 -1.421875 15.453125 -0.5625 
Q 10.6875 0.296875 5.421875 2 
L 5.421875 11.28125 
Q 10.40625 8.6875 15.234375 7.390625 
Q 20.0625 6.109375 24.8125 6.109375 
Q 31.15625 6.109375 34.5625 8.28125 
Q 37.984375 10.453125 37.984375 14.40625 
Q 37.984375 18.0625 35.515625 20.015625 
Q 33.0625 21.96875 24.703125 23.78125 
L 21.578125 24.515625 
Q 13.234375 26.265625 9.515625 29.90625 
Q 5.8125 33.546875 5.8125 39.890625 
Q 5.8125 47.609375 11.28125 51.796875 
Q 16.75 56 26.8125 56 
Q 31.78125 56 36.171875 55.265625 
Q 40.578125 54.546875 44.28125 53.078125 
z
" id="DejaVuSans-73"/>
     </defs>
     <g transform="translate(177.180312 335.860562)scale(0.1 -0.1)">
      <use xlink:href="#DejaVuSans-4e"/>
      <use x="74.804688" xlink:href="#DejaVuSans-75"/>
      <use x="138.183594" xlink:href="#DejaVuSans-6d"/>
      <use x="235.595703" xlink:href="#DejaVuSans-62"/>
      <use x="299.072266" xlink:href="#DejaVuSans-65"/>
      <use x="360.595703" xlink:href="#DejaVuSans-72"/>
      <use x="401.708984" xlink:href="#DejaVuSans-20"/>
      <use x="433.496094" xlink:href="#DejaVuSans-6f"/>
      <use x="494.677734" xlink:href="#DejaVuSans-66"/>
      <use x="529.882812" xlink:href="#DejaVuSans-20"/>
      <use x="561.669922" xlink:href="#DejaVuSans-43"/>
      <use x="631.494141" xlink:href="#DejaVuSans-6f"/>
      <use x="692.675781" xlink:href="#DejaVuSans-6e"/>
      <use x="756.054688" xlink:href="#DejaVuSans-6e"/>
      <use x="819.433594" xlink:href="#DejaVuSans-65"/>
      <use x="880.957031" xlink:href="#DejaVuSans-63"/>
      <use x="935.9375" xlink:href="#DejaVuSans-74"/>
      <use x="975.146484" xlink:href="#DejaVuSans-69"/>
      <use x="1002.929688" xlink:href="#DejaVuSans-6f"/>
      <use x="1064.111328" xlink:href="#DejaVuSans-6e"/>
      <use x="1127.490234" xlink:href="#DejaVuSans-73"/>
     </g>
    </g>
   </g>
   <g id="matplotlib.axis_2">
    <g id="ytick_1">
     <g id="line2d_8">
      <defs>
       <path d="M 0 0 
L -3.5 0 
" id="ma62931c254" style="stroke:#000000;stroke-width:0.8;"/>
      </defs>
      <g>
       <use style="stroke:#000000;stroke-width:0.8;" x="57.6" xlink:href="#ma62931c254" y="288.591441"/>
      </g>
     </g>
     <g id="text_9">
      <!-- 0.000 -->
      <defs>
       <path d="M 10.6875 12.40625 
L 21 12.40625 
L 21 0 
L 10.6875 0 
z
" id="DejaVuSans-2e"/>
      </defs>
      <g transform="translate(21.971875 292.39066)scale(0.1 -0.1)">
       <use xlink:href="#DejaVuSans-30"/>
       <use x="63.623047" xlink:href="#DejaVuSans-2e"/>
       <use x="95.410156" xlink:href="#DejaVuSans-30"/>
       <use x="159.033203" xlink:href="#DejaVuSans-30"/>
       <use x="222.65625" xlink:href="#DejaVuSans-30"/>
      </g>
     </g>
    </g>
    <g id="ytick_2">
     <g id="line2d_9">
      <g>
       <use style="stroke:#000000;stroke-width:0.8;" x="57.6" xlink:href="#ma62931c254" y="258.757514"/>
      </g>
     </g>
     <g id="text_10">
      <!-- 0.005 -->
      <defs>
       <path d="M 10.796875 72.90625 
L 49.515625 72.90625 
L 49.515625 64.59375 
L 19.828125 64.59375 
L 19.828125 46.734375 
Q 21.96875 47.46875 24.109375 47.828125 
Q 26.265625 48.1875 28.421875 48.1875 
Q 40.625 48.1875 47.75 41.5 
Q 54.890625 34.8125 54.890625 23.390625 
Q 54.890625 11.625 47.5625 5.09375 
Q 40.234375 -1.421875 26.90625 -1.421875 
Q 22.3125 -1.421875 17.546875 -0.640625 
Q 12.796875 0.140625 7.71875 1.703125 
L 7.71875 11.625 
Q 12.109375 9.234375 16.796875 8.0625 
Q 21.484375 6.890625 26.703125 6.890625 
Q 35.15625 6.890625 40.078125 11.328125 
Q 45.015625 15.765625 45.015625 23.390625 
Q 45.015625 31 40.078125 35.4375 
Q 35.15625 39.890625 26.703125 39.890625 
Q 22.75 39.890625 18.8125 39.015625 
Q 14.890625 38.140625 10.796875 36.28125 
z
" id="DejaVuSans-35"/>
      </defs>
      <g transform="translate(21.971875 262.556733)scale(0.1 -0.1)">
       <use xlink:href="#DejaVuSans-30"/>
       <use x="63.623047" xlink:href="#DejaVuSans-2e"/>
       <use x="95.410156" xlink:href="#DejaVuSans-30"/>
       <use x="159.033203" xlink:href="#DejaVuSans-30"/>
       <use x="222.65625" xlink:href="#DejaVuSans-35"/>
      </g>
     </g>
    </g>
    <g id="ytick_3">
     <g id="line2d_10">
      <g>
       <use style="stroke:#000000;stroke-width:0.8;" x="57.6" xlink:href="#ma62931c254" y="228.923588"/>
      </g>
     </g>
     <g id="text_11">
      <!-- 0.010 -->
      <g transform="translate(21.971875 232.722806)scale(0.1 -0.1)">
       <use xlink:href="#DejaVuSans-30"/>
       <use x="63.623047" xlink:href="#DejaVuSans-2e"/>
       <use x="95.410156" xlink:href="#DejaVuSans-30"/>
       <use x="159.033203" xlink:href="#DejaVuSans-31"/>
       <use x="222.65625" xlink:href="#DejaVuSans-30"/>
      </g>
     </g>
    </g>
    <g id="ytick_4">
     <g id="line2d_11">
      <g>
       <use style="stroke:#000000;stroke-width:0.8;" x="57.6" xlink:href="#ma62931c254" y="199.089661"/>
      </g>
     </g>
     <g id="text_12">
      <!-- 0.015 -->
      <g transform="translate(21.971875 202.88888)scale(0.1 -0.1)">
       <use xlink:href="#DejaVuSans-30"/>
       <use x="63.623047" xlink:href="#DejaVuSans-2e"/>
       <use x="95.410156" xlink:href="#DejaVuSans-30"/>
       <use x="159.033203" xlink:href="#DejaVuSans-31"/>
       <use x="222.65625" xlink:href="#DejaVuSans-35"/>
      </g>
     </g>
    </g>
    <g id="ytick_5">
     <g id="line2d_12">
      <g>
       <use style="stroke:#000000;stroke-width:0.8;" x="57.6" xlink:href="#ma62931c254" y="169.255734"/>
      </g>
     </g>
     <g id="text_13">
      <!-- 0.020 -->
      <g transform="translate(21.971875 173.054953)scale(0.1 -0.1)">
       <use xlink:href="#DejaVuSans-30"/>
       <use x="63.623047" xlink:href="#DejaVuSans-2e"/>
       <use x="95.410156" xlink:href="#DejaVuSans-30"/>
       <use x="159.033203" xlink:href="#DejaVuSans-32"/>
       <use x="222.65625" xlink:href="#DejaVuSans-30"/>
      </g>
     </g>
    </g>
    <g id="ytick_6">
     <g id="line2d_13">
      <g>
       <use style="stroke:#000000;stroke-width:0.8;" x="57.6" xlink:href="#ma62931c254" y="139.421808"/>
      </g>
     </g>
     <g id="text_14">
      <!-- 0.025 -->
      <g transform="translate(21.971875 143.221026)scale(0.1 -0.1)">
       <use xlink:href="#DejaVuSans-30"/>
       <use x="63.623047" xlink:href="#DejaVuSans-2e"/>
       <use x="95.410156" xlink:href="#DejaVuSans-30"/>
       <use x="159.033203" xlink:href="#DejaVuSans-32"/>
       <use x="222.65625" xlink:href="#DejaVuSans-35"/>
      </g>
     </g>
    </g>
    <g id="ytick_7">
     <g id="line2d_14">
      <g>
       <use style="stroke:#000000;stroke-width:0.8;" x="57.6" xlink:href="#ma62931c254" y="109.587881"/>
      </g>
     </g>
     <g id="text_15">
      <!-- 0.030 -->
      <defs>
       <path d="M 40.578125 39.3125 
Q 47.65625 37.796875 51.625 33 
Q 55.609375 28.21875 55.609375 21.1875 
Q 55.609375 10.40625 48.1875 4.484375 
Q 40.765625 -1.421875 27.09375 -1.421875 
Q 22.515625 -1.421875 17.65625 -0.515625 
Q 12.796875 0.390625 7.625 2.203125 
L 7.625 11.71875 
Q 11.71875 9.328125 16.59375 8.109375 
Q 21.484375 6.890625 26.8125 6.890625 
Q 36.078125 6.890625 40.9375 10.546875 
Q 45.796875 14.203125 45.796875 21.1875 
Q 45.796875 27.640625 41.28125 31.265625 
Q 36.765625 34.90625 28.71875 34.90625 
L 20.21875 34.90625 
L 20.21875 43.015625 
L 29.109375 43.015625 
Q 36.375 43.015625 40.234375 45.921875 
Q 44.09375 48.828125 44.09375 54.296875 
Q 44.09375 59.90625 40.109375 62.90625 
Q 36.140625 65.921875 28.71875 65.921875 
Q 24.65625 65.921875 20.015625 65.03125 
Q 15.375 64.15625 9.8125 62.3125 
L 9.8125 71.09375 
Q 15.4375 72.65625 20.34375 73.4375 
Q 25.25 74.21875 29.59375 74.21875 
Q 40.828125 74.21875 47.359375 69.109375 
Q 53.90625 64.015625 53.90625 55.328125 
Q 53.90625 49.265625 50.4375 45.09375 
Q 46.96875 40.921875 40.578125 39.3125 
z
" id="DejaVuSans-33"/>
      </defs>
      <g transform="translate(21.971875 113.3871)scale(0.1 -0.1)">
       <use xlink:href="#DejaVuSans-30"/>
       <use x="63.623047" xlink:href="#DejaVuSans-2e"/>
       <use x="95.410156" xlink:href="#DejaVuSans-30"/>
       <use x="159.033203" xlink:href="#DejaVuSans-33"/>
       <use x="222.65625" xlink:href="#DejaVuSans-30"/>
      </g>
     </g>
    </g>
    <g id="ytick_8">
     <g id="line2d_15">
      <g>
       <use style="stroke:#000000;stroke-width:0.8;" x="57.6" xlink:href="#ma62931c254" y="79.753954"/>
      </g>
     </g>
     <g id="text_16">
      <!-- 0.035 -->
      <g transform="translate(21.971875 83.553173)scale(0.1 -0.1)">
       <use xlink:href="#DejaVuSans-30"/>
       <use x="63.623047" xlink:href="#DejaVuSans-2e"/>
       <use x="95.410156" xlink:href="#DejaVuSans-30"/>
       <use x="159.033203" xlink:href="#DejaVuSans-33"/>
       <use x="222.65625" xlink:href="#DejaVuSans-35"/>
      </g>
     </g>
    </g>
    <g id="ytick_9">
     <g id="line2d_16">
      <g>
       <use style="stroke:#000000;stroke-width:0.8;" x="57.6" xlink:href="#ma62931c254" y="49.920027"/>
      </g>
     </g>
     <g id="text_17">
      <!-- 0.040 -->
      <g transform="translate(21.971875 53.719246)scale(0.1 -0.1)">
       <use xlink:href="#DejaVuSans-30"/>
       <use x="63.623047" xlink:href="#DejaVuSans-2e"/>
       <use x="95.410156" xlink:href="#DejaVuSans-30"/>
       <use x="159.033203" xlink:href="#DejaVuSans-34"/>
       <use x="222.65625" xlink:href="#DejaVuSans-30"/>
      </g>
     </g>
    </g>
    <g id="text_18">
     <!-- Pr[D=k] -->
     <defs>
      <path d="M 19.671875 64.796875 
L 19.671875 37.40625 
L 32.078125 37.40625 
Q 38.96875 37.40625 42.71875 40.96875 
Q 46.484375 44.53125 46.484375 51.125 
Q 46.484375 57.671875 42.71875 61.234375 
Q 38.96875 64.796875 32.078125 64.796875 
z
M 9.8125 72.90625 
L 32.078125 72.90625 
Q 44.34375 72.90625 50.609375 67.359375 
Q 56.890625 61.8125 56.890625 51.125 
Q 56.890625 40.328125 50.609375 34.8125 
Q 44.34375 29.296875 32.078125 29.296875 
L 19.671875 29.296875 
L 19.671875 0 
L 9.8125 0 
z
" id="DejaVuSans-50"/>
      <path d="M 8.59375 75.984375 
L 29.296875 75.984375 
L 29.296875 69 
L 17.578125 69 
L 17.578125 -6.203125 
L 29.296875 -6.203125 
L 29.296875 -13.1875 
L 8.59375 -13.1875 
z
" id="DejaVuSans-5b"/>
      <path d="M 19.671875 64.796875 
L 19.671875 8.109375 
L 31.59375 8.109375 
Q 46.6875 8.109375 53.6875 14.9375 
Q 60.6875 21.78125 60.6875 36.53125 
Q 60.6875 51.171875 53.6875 57.984375 
Q 46.6875 64.796875 31.59375 64.796875 
z
M 9.8125 72.90625 
L 30.078125 72.90625 
Q 51.265625 72.90625 61.171875 64.09375 
Q 71.09375 55.28125 71.09375 36.53125 
Q 71.09375 17.671875 61.125 8.828125 
Q 51.171875 0 30.078125 0 
L 9.8125 0 
z
" id="DejaVuSans-44"/>
      <path d="M 10.59375 45.40625 
L 73.1875 45.40625 
L 73.1875 37.203125 
L 10.59375 37.203125 
z
M 10.59375 25.484375 
L 73.1875 25.484375 
L 73.1875 17.1875 
L 10.59375 17.1875 
z
" id="DejaVuSans-3d"/>
      <path d="M 9.078125 75.984375 
L 18.109375 75.984375 
L 18.109375 31.109375 
L 44.921875 54.6875 
L 56.390625 54.6875 
L 27.390625 29.109375 
L 57.625 0 
L 45.90625 0 
L 18.109375 26.703125 
L 18.109375 0 
L 9.078125 0 
z
" id="DejaVuSans-6b"/>
      <path d="M 30.421875 75.984375 
L 30.421875 -13.1875 
L 9.71875 -13.1875 
L 9.71875 -6.203125 
L 21.390625 -6.203125 
L 21.390625 69 
L 9.71875 69 
L 9.71875 75.984375 
z
" id="DejaVuSans-5d"/>
     </defs>
     <g transform="translate(15.892187 194.43425)rotate(-90)scale(0.1 -0.1)">
      <use xlink:href="#DejaVuSans-50"/>
      <use x="60.287109" xlink:href="#DejaVuSans-72"/>
      <use x="101.400391" xlink:href="#DejaVuSans-5b"/>
      <use x="140.414062" xlink:href="#DejaVuSans-44"/>
      <use x="217.416016" xlink:href="#DejaVuSans-3d"/>
      <use x="301.205078" xlink:href="#DejaVuSans-6b"/>
      <use x="359.115234" xlink:href="#DejaVuSans-5d"/>
     </g>
    </g>
   </g>
   <g id="patch_3">
    <path d="M 57.6 307.584 
L 57.6 41.472 
" style="fill:none;stroke:#000000;stroke-linecap:square;stroke-linejoin:miter;stroke-width:0.8;"/>
   </g>
   <g id="patch_4">
    <path d="M 414.72 307.584 
L 414.72 41.472 
" style="fill:none;stroke:#000000;stroke-linecap:square;stroke-linejoin:miter;stroke-width:0.8;"/>
   </g>
   <g id="patch_5">
    <path d="M 57.6 307.584 
L 414.72 307.584 
" style="fill:none;stroke:#000000;stroke-linecap:square;stroke-linejoin:miter;stroke-width:0.8;"/>
   </g>
   <g id="patch_6">
    <path d="M 57.6 41.472 
L 414.72 41.472 
" style="fill:none;stroke:#000000;stroke-linecap:square;stroke-linejoin:miter;stroke-width:0.8;"/>
   </g>
  </g>
 </g>
 <defs>
  <clipPath id="p37cf9b7057">
   <rect height="266.112" width="357.12" x="57.6" y="41.472"/>
  </clipPath>
 </defs>
</svg>
