<?xml version="1.0" standalone="yes"?>

<svg version="1.1" viewBox="0.0 0.0 960.0 720.0" fill="none" stroke="none" stroke-linecap="square" stroke-miterlimit="10" xmlns="http://www.w3.org/2000/svg" xmlns:xlink="http://www.w3.org/1999/xlink"><clipPath id="p.0"><path d="m0 0l960.0 0l0 720.0l-960.0 0l0 -720.0z" clip-rule="nonzero"></path></clipPath><g clip-path="url(#p.0)"><path fill="#000000" fill-opacity="0.0" d="m0 0l960.0 0l0 720.0l-960.0 0z" fill-rule="evenodd"></path><path fill="#000000" fill-opacity="0.0" d="m113.3937 255.8189l0 0c0 -53.20198 43.12873 -96.3307 96.33071 -96.3307l0 0c25.548492 0 50.050583 10.149094 68.116104 28.214615c18.06549 18.065506 28.2146 42.567596 28.2146 68.11609l0 0c0 53.20198 -43.128723 96.3307 -96.3307 96.3307l0 0c-53.20198 0 -96.33071 -43.128723 -96.33071 -96.3307z" fill-rule="evenodd"></path><path stroke="#000000" stroke-width="1.0" stroke-linejoin="round" stroke-linecap="butt" d="m113.3937 255.8189l0 0c0 -53.20198 43.12873 -96.3307 96.33071 -96.3307l0 0c25.548492 0 50.050583 10.149094 68.116104 28.214615c18.06549 18.065506 28.2146 42.567596 28.2146 68.11609l0 0c0 53.20198 -43.128723 96.3307 -96.3307 96.3307l0 0c-53.20198 0 -96.33071 -43.128723 -96.33071 -96.3307z" fill-rule="evenodd"></path><path fill="#000000" fill-opacity="0.0" d="m626.8898 259.50656l0 0c0 -53.20198 43.128723 -96.3307 96.33069 -96.3307l0 0c25.548523 0 50.0506 10.149094 68.11609 28.2146c18.065552 18.065521 28.21466 42.56761 28.21466 68.116104l0 0c0 53.201996 -43.128784 96.33072 -96.33075 96.33072l0 0c-53.201965 0 -96.33069 -43.128723 -96.33069 -96.33072z" fill-rule="evenodd"></path><path stroke="#000000" stroke-width="1.0" stroke-linejoin="round" stroke-linecap="butt" d="m626.8898 259.50656l0 0c0 -53.20198 43.128723 -96.3307 96.33069 -96.3307l0 0c25.548523 0 50.0506 10.149094 68.11609 28.2146c18.065552 18.065521 28.21466 42.56761 28.21466 68.116104l0 0c0 53.201996 -43.128784 96.33072 -96.33075 96.33072l0 0c-53.201965 0 -96.33069 -43.128723 -96.33069 -96.33072z" fill-rule="evenodd"></path><path fill="#000000" fill-opacity="0.0" d="m383.66928 519.8084l0 0c0 -53.201996 43.128723 -96.33072 96.33072 -96.33072l0 0c25.548492 0 50.0506 10.149109 68.11609 28.2146c18.06549 18.065521 28.2146 42.567627 28.2146 68.11612l0 0c0 53.201965 -43.128723 96.33069 -96.33069 96.33069l0 0c-53.201996 0 -96.33072 -43.128723 -96.33072 -96.33069z" fill-rule="evenodd"></path><path stroke="#000000" stroke-width="1.0" stroke-linejoin="round" stroke-linecap="butt" d="m383.66928 519.8084l0 0c0 -53.201996 43.128723 -96.33072 96.33072 -96.33072l0 0c25.548492 0 50.0506 10.149109 68.11609 28.2146c18.06549 18.065521 28.2146 42.567627 28.2146 68.11612l0 0c0 53.201965 -43.128723 96.33069 -96.33069 96.33069l0 0c-53.201996 0 -96.33072 -43.128723 -96.33072 -96.33069z" fill-rule="evenodd"></path><path fill="#000000" fill-opacity="0.0" d="m706.51184 233.53806l33.417297 0l0 51.93701l-33.417297 0z" fill-rule="evenodd"></path><path fill="#000000" d="m731.6212 270.55493l0 2.703125l-15.140625 0q-0.03125 -1.015625 0.328125 -1.953125q0.578125 -1.546875 1.84375 -3.046875q1.28125 -1.5 3.6875 -3.46875q3.734375 -3.0625 5.046875 -4.84375q1.3125 -1.796875 1.3125 -3.390625q0 -1.671875 -1.203125 -2.8125q-1.1875 -1.15625 -3.109375 -1.15625q-2.03125 0 -3.25 1.21875q-1.21875 1.21875 -1.234375 3.375l-2.890625 -0.296875q0.296875 -3.234375 2.234375 -4.921875q1.9375 -1.703125 5.203125 -1.703125q3.296875 0 5.21875 1.828125q1.921875 1.828125 1.921875 4.53125q0 1.375 -0.5625 2.703125q-0.5625 1.328125 -1.875 2.796875q-1.296875 1.46875 -4.328125 4.03125q-2.53125 2.125 -3.25 2.890625q-0.71875 0.75 -1.1875 1.515625l11.234375 0z" fill-rule="nonzero"></path><path fill="#000000" fill-opacity="0.0" d="m191.15749 229.85039l37.13385 0l0 51.937027l-37.13385 0z" fill-rule="evenodd"></path><path fill="#000000" d="m212.07936 269.5704l-2.8125 0l0 -17.92189q-1.015625 0.96875 -2.671875 1.9375q-1.640625 0.96875 -2.953125 1.453125l0 -2.71875q2.359375 -1.109375 4.125 -2.6875q1.765625 -1.578125 2.5 -3.0625l1.8125 0l0 23.000015z" fill-rule="nonzero"></path><path fill="#000000" fill-opacity="0.0" d="m461.43307 493.8399l37.13385 0l0 51.93701l-37.13385 0z" fill-rule="evenodd"></path><path fill="#000000" d="m471.77682 527.513l2.8125 -0.375q0.484375 2.390625 1.640625 3.453125q1.171875 1.046875 2.84375 1.046875q1.984375 0 3.34375 -1.375q1.375 -1.375 1.375 -3.40625q0 -1.9375 -1.265625 -3.1875q-1.265625 -1.265625 -3.21875 -1.265625q-0.796875 0 -1.984375 0.3125l0.3125 -2.46875q0.28125 0.03125 0.453125 0.03125q1.796875 0 3.234375 -0.9375q1.4375 -0.9375 1.4375 -2.890625q0 -1.546875 -1.046875 -2.5625q-1.046875 -1.015625 -2.703125 -1.015625q-1.640625 0 -2.734375 1.03125q-1.09375 1.03125 -1.40625 3.09375l-2.8125 -0.5q0.515625 -2.828125 2.34375 -4.375q1.828125 -1.5624695 4.546875 -1.5624695q1.875 0 3.453125 0.8125q1.578125 0.7968445 2.40625 2.1874695q0.84375 1.390625 0.84375 2.953125q0 1.484375 -0.796875 2.703125q-0.796875 1.21875 -2.359375 1.9375q2.03125 0.46875 3.15625 1.953125q1.125 1.46875 1.125 3.6875q0 3.0 -2.1875 5.09375q-2.1875 2.078125 -5.53125 2.078125q-3.015625 0 -5.015625 -1.796875q-1.984375 -1.796875 -2.265625 -4.65625z" fill-rule="nonzero"></path><path fill="#000000" fill-opacity="0.0" d="m306.0551 255.8189l320.8504 3.6850433" fill-rule="evenodd"></path><path stroke="#000000" stroke-width="4.0" stroke-linejoin="round" stroke-linecap="butt" d="m306.0551 255.8189l296.852 3.4094086" fill-rule="evenodd"></path><path fill="#000000" stroke="#000000" stroke-width="4.0" stroke-linecap="butt" d="m602.83124 265.8348l18.22705 -6.398041l-18.075317 -6.8149567z" fill-rule="evenodd"></path><path fill="#000000" fill-opacity="0.0" d="m277.83667 323.94427l134.04724 127.74802" fill-rule="evenodd"></path><path stroke="#000000" stroke-width="4.0" stroke-linejoin="round" stroke-linecap="butt" d="m277.83667 323.94427l116.67334 111.19061" fill-rule="evenodd"></path><path fill="#000000" stroke="#000000" stroke-width="4.0" stroke-linecap="butt" d="m389.95197 439.9177l17.698792 7.740387l-8.582642 -17.30603z" fill-rule="evenodd"></path><path fill="#000000" fill-opacity="0.0" d="m383.66928 519.8084l-173.95274 -167.65356" fill-rule="evenodd"></path><path stroke="#000000" stroke-width="4.0" stroke-linejoin="round" stroke-linecap="butt" d="m383.66928 519.8084l-156.6722 -150.99878" fill-rule="evenodd"></path><path fill="#000000" stroke="#000000" stroke-width="4.0" stroke-linecap="butt" d="m231.58197 364.05252l-17.655014 -7.8397217l8.48526 17.354004z" fill-rule="evenodd"></path><path fill="#000000" fill-opacity="0.0" d="m548.1161 451.6923l106.99213 -124.06299" fill-rule="evenodd"></path><path stroke="#000000" stroke-width="4.0" stroke-linejoin="round" stroke-linecap="butt" d="m548.1161 451.6923l91.318115 -105.88815" fill-rule="evenodd"></path><path fill="#000000" stroke="#000000" stroke-width="4.0" stroke-linecap="butt" d="m644.43756 350.11905l6.8516846 -18.061432l-16.858398 9.431671z" fill-rule="evenodd"></path></g></svg>

