<?xml version="1.0" standalone="yes"?>

<svg version="1.1" viewBox="0.0 0.0 960.0 720.0" fill="none" stroke="none" stroke-linecap="square" stroke-miterlimit="10" xmlns="http://www.w3.org/2000/svg" xmlns:xlink="http://www.w3.org/1999/xlink"><clipPath id="p.0"><path d="m0 0l960.0 0l0 720.0l-960.0 0l0 -720.0z" clip-rule="nonzero"></path></clipPath><g clip-path="url(#p.0)"><path fill="#000000" fill-opacity="0.0" d="m0 0l960.0 0l0 720.0l-960.0 0z" fill-rule="evenodd"></path><path fill="#000000" fill-opacity="0.0" d="m80.67454 235.09186l0 0c0 -43.12169 34.957047 -78.078735 78.07874 -78.078735l0 0c20.707764 0 40.567398 8.226135 55.210007 22.868729c14.642609 14.642609 22.868729 34.502243 22.868729 55.210007l0 0c0 43.121704 -34.95703 78.078735 -78.078735 78.078735l0 0c-43.121696 0 -78.07874 -34.95703 -78.07874 -78.078735z" fill-rule="evenodd"></path><path stroke="#000000" stroke-width="1.0" stroke-linejoin="round" stroke-linecap="butt" d="m80.67454 235.09186l0 0c0 -43.12169 34.957047 -78.078735 78.07874 -78.078735l0 0c20.707764 0 40.567398 8.226135 55.210007 22.868729c14.642609 14.642609 22.868729 34.502243 22.868729 55.210007l0 0c0 43.121704 -34.95703 78.078735 -78.078735 78.078735l0 0c-43.121696 0 -78.07874 -34.95703 -78.07874 -78.078735z" fill-rule="evenodd"></path><path fill="#000000" fill-opacity="0.0" d="m80.67454 427.4777l0 0c0 -43.121704 34.957047 -78.078735 78.07874 -78.078735l0 0c20.707764 0 40.567398 8.226135 55.210007 22.868713c14.642609 14.642609 22.868729 34.50226 22.868729 55.210022l0 0c0 43.121704 -34.95703 78.078735 -78.078735 78.078735l0 0c-43.121696 0 -78.07874 -34.95703 -78.07874 -78.078735z" fill-rule="evenodd"></path><path stroke="#000000" stroke-width="1.0" stroke-linejoin="round" stroke-linecap="butt" d="m80.67454 427.4777l0 0c0 -43.121704 34.957047 -78.078735 78.07874 -78.078735l0 0c20.707764 0 40.567398 8.226135 55.210007 22.868713c14.642609 14.642609 22.868729 34.50226 22.868729 55.210022l0 0c0 43.121704 -34.95703 78.078735 -78.078735 78.078735l0 0c-43.121696 0 -78.07874 -34.95703 -78.07874 -78.078735z" fill-rule="evenodd"></path><path fill="#000000" fill-opacity="0.0" d="m401.92126 427.4777l0 0c0 -43.121704 34.95703 -78.078735 78.078735 -78.078735l0 0c20.707764 0 40.567383 8.226135 55.210022 22.868713c14.642578 14.642609 22.868713 34.50226 22.868713 55.210022l0 0c0 43.121704 -34.95703 78.078735 -78.078735 78.078735l0 0c-43.121704 0 -78.078735 -34.95703 -78.078735 -78.078735z" fill-rule="evenodd"></path><path stroke="#000000" stroke-width="1.0" stroke-linejoin="round" stroke-linecap="butt" d="m401.92126 427.4777l0 0c0 -43.121704 34.95703 -78.078735 78.078735 -78.078735l0 0c20.707764 0 40.567383 8.226135 55.210022 22.868713c14.642578 14.642609 22.868713 34.50226 22.868713 55.210022l0 0c0 43.121704 -34.95703 78.078735 -78.078735 78.078735l0 0c-43.121704 0 -78.078735 -34.95703 -78.078735 -78.078735z" fill-rule="evenodd"></path><path fill="#000000" fill-opacity="0.0" d="m401.92126 235.09186l0 0c0 -43.12169 34.95703 -78.078735 78.078735 -78.078735l0 0c20.707764 0 40.567383 8.226135 55.210022 22.868729c14.642578 14.642609 22.868713 34.502243 22.868713 55.210007l0 0c0 43.121704 -34.95703 78.078735 -78.078735 78.078735l0 0c-43.121704 0 -78.078735 -34.95703 -78.078735 -78.078735z" fill-rule="evenodd"></path><path stroke="#000000" stroke-width="1.0" stroke-linejoin="round" stroke-linecap="butt" d="m401.92126 235.09186l0 0c0 -43.12169 34.95703 -78.078735 78.078735 -78.078735l0 0c20.707764 0 40.567383 8.226135 55.210022 22.868729c14.642578 14.642609 22.868713 34.502243 22.868713 55.210007l0 0c0 43.121704 -34.95703 78.078735 -78.078735 78.078735l0 0c-43.121704 0 -78.078735 -34.95703 -78.078735 -78.078735z" fill-rule="evenodd"></path><path fill="#000000" fill-opacity="0.0" d="m744.4829 427.4777l0 0c0 -43.121704 34.957092 -78.078735 78.0788 -78.078735l0 0c20.707764 0 40.567383 8.226135 55.20996 22.868713c14.642639 14.642609 22.868774 34.50226 22.868774 55.210022l0 0c0 43.121704 -34.957092 78.078735 -78.078735 78.078735l0 0c-43.121704 0 -78.0788 -34.95703 -78.0788 -78.078735z" fill-rule="evenodd"></path><path stroke="#000000" stroke-width="1.0" stroke-linejoin="round" stroke-linecap="butt" d="m744.4829 427.4777l0 0c0 -43.121704 34.957092 -78.078735 78.0788 -78.078735l0 0c20.707764 0 40.567383 8.226135 55.20996 22.868713c14.642639 14.642609 22.868774 34.50226 22.868774 55.210022l0 0c0 43.121704 -34.957092 78.078735 -78.078735 78.078735l0 0c-43.121704 0 -78.0788 -34.95703 -78.0788 -78.078735z" fill-rule="evenodd"></path><path fill="#000000" fill-opacity="0.0" d="m744.4829 235.09186l0 0c0 -43.12169 34.957092 -78.078735 78.0788 -78.078735l0 0c20.707764 0 40.567383 8.226135 55.20996 22.868729c14.642639 14.642609 22.868774 34.502243 22.868774 55.210007l0 0c0 43.121704 -34.957092 78.078735 -78.078735 78.078735l0 0c-43.121704 0 -78.0788 -34.95703 -78.0788 -78.078735z" fill-rule="evenodd"></path><path stroke="#000000" stroke-width="1.0" stroke-linejoin="round" stroke-linecap="butt" d="m744.4829 235.09186l0 0c0 -43.12169 34.957092 -78.078735 78.0788 -78.078735l0 0c20.707764 0 40.567383 8.226135 55.20996 22.868729c14.642639 14.642609 22.868774 34.502243 22.868774 55.210007l0 0c0 43.121704 -34.957092 78.078735 -78.078735 78.078735l0 0c-43.121704 0 -78.0788 -34.95703 -78.0788 -78.078735z" fill-rule="evenodd"></path><path fill="#000000" fill-opacity="0.0" d="m236.83202 235.09186l165.10237 0" fill-rule="evenodd"></path><path stroke="#000000" stroke-width="1.0" stroke-linejoin="round" stroke-linecap="butt" d="m236.83202 235.09186l165.10237 0" fill-rule="evenodd"></path><path fill="#000000" fill-opacity="0.0" d="m558.07874 235.09186l186.39368 0" fill-rule="evenodd"></path><path stroke="#000000" stroke-width="1.0" stroke-linejoin="round" stroke-linecap="butt" d="m558.07874 235.09186l186.39368 0" fill-rule="evenodd"></path><path fill="#000000" fill-opacity="0.0" d="m558.07874 427.4777l186.39368 0" fill-rule="evenodd"></path><path stroke="#000000" stroke-width="1.0" stroke-linejoin="round" stroke-linecap="butt" d="m558.07874 427.4777l186.39368 0" fill-rule="evenodd"></path><path fill="#000000" fill-opacity="0.0" d="m236.83202 427.4777l165.10237 0" fill-rule="evenodd"></path><path stroke="#000000" stroke-width="1.0" stroke-linejoin="round" stroke-linecap="butt" d="m236.83202 427.4777l165.10237 0" fill-rule="evenodd"></path><path fill="#000000" fill-opacity="0.0" d="m213.96329 290.30188l210.83466 81.95276" fill-rule="evenodd"></path><path stroke="#000000" stroke-width="1.0" stroke-linejoin="round" stroke-linecap="butt" d="m213.96329 290.30188l210.83466 81.95276" fill-rule="evenodd"></path><path fill="#000000" fill-opacity="0.0" d="m213.96329 372.26767l210.83466 -81.95273" fill-rule="evenodd"></path><path stroke="#000000" stroke-width="1.0" stroke-linejoin="round" stroke-linecap="butt" d="m213.96329 372.26767l210.83466 -81.95273" fill-rule="evenodd"></path><path fill="#000000" fill-opacity="0.0" d="m535.21 290.30188l232.12598 81.95276" fill-rule="evenodd"></path><path stroke="#000000" stroke-width="1.0" stroke-linejoin="round" stroke-linecap="butt" d="m535.21 290.30188l232.12598 81.95276" fill-rule="evenodd"></path><path fill="#000000" fill-opacity="0.0" d="m535.2257 372.25464l232.12598 -81.95276" fill-rule="evenodd"></path><path stroke="#000000" stroke-width="1.0" stroke-linejoin="round" stroke-linecap="butt" d="m535.2257 372.25464l232.12598 -81.95276" fill-rule="evenodd"></path><path fill="#000000" fill-opacity="0.0" d="m120.57743 200.38583l73.73228 0l0 65.07086l-73.73228 0z" fill-rule="evenodd"></path><path fill="#000000" d="m129.7493 232.42583l4.546875 -6.46875l-4.203125 -5.984375l2.640625 0l1.90625 2.921875q0.546875 0.828125 0.875 1.390625q0.515625 -0.765625 0.9375 -1.359375l2.109375 -2.953125l2.515625 0l-4.296875 5.859375l4.625 6.59375l-2.59375 0l-2.546875 -3.875l-0.6875 -1.03125l-3.265625 4.90625l-2.5625 0z" fill-rule="nonzero"></path><path fill="#000000" d="m147.54617 241.42583l-1.40625 0l0 -8.96875q-0.515625 0.484375 -1.34375 0.96875q-0.8125 0.484375 -1.46875 0.734375l0 -1.359375q1.171875 -0.5625 2.046875 -1.34375q0.890625 -0.796875 1.265625 -1.53125l0.90625 0l0 11.5z" fill-rule="nonzero"></path><path fill="#000000" fill-opacity="0.0" d="m121.89239 394.94226l73.73228 0l0 65.07086l-73.73228 0z" fill-rule="evenodd"></path><path fill="#000000" d="m131.06427 426.98227l4.546875 -6.46875l-4.203125 -5.984375l2.640625 0l1.90625 2.921875q0.546875 0.828125 0.875 1.390625q0.515625 -0.765625 0.9375 -1.359375l2.109375 -2.953125l2.515625 0l-4.296875 5.859375l4.625 6.59375l-2.59375 0l-2.546875 -3.875l-0.6875 -1.03125l-3.265625 4.90625l-2.5625 0z" fill-rule="nonzero"></path><path fill="#000000" d="m150.9549 434.6229l0 1.359375l-7.578125 0q-0.015625 -0.515625 0.171875 -0.984375q0.28125 -0.765625 0.921875 -1.515625q0.640625 -0.75 1.84375 -1.734375q1.859375 -1.53125 2.515625 -2.421875q0.65625 -0.90625 0.65625 -1.703125q0 -0.828125 -0.59375 -1.40625q-0.59375 -0.578125 -1.5625 -0.578125q-1.015625 0 -1.625 0.609375q-0.609375 0.609375 -0.609375 1.6875l-1.453125 -0.140625q0.15625 -1.625 1.125 -2.46875q0.96875 -0.84375 2.59375 -0.84375q1.65625 0 2.609375 0.921875q0.96875 0.90625 0.96875 2.25q0 0.6875 -0.28125 1.359375q-0.28125 0.65625 -0.9375 1.390625q-0.65625 0.734375 -2.171875 2.015625q-1.265625 1.0625 -1.625 1.453125q-0.359375 0.375 -0.59375 0.75l5.625 0z" fill-rule="nonzero"></path><path fill="#000000" fill-opacity="0.0" d="m443.1404 394.94226l73.73227 0l0 65.07086l-73.73227 0z" fill-rule="evenodd"></path><path fill="#000000" d="m453.71854 426.98227l0 -17.1875l2.109375 0l0 6.171875q1.484375 -1.71875 3.734375 -1.71875q1.375 0 2.390625 0.546875q1.03125 0.546875 1.46875 1.515625q0.4375 0.953125 0.4375 2.78125l0 7.890625l-2.109375 0l0 -7.890625q0 -1.578125 -0.6875 -2.296875q-0.6875 -0.71875 -1.9375 -0.71875q-0.9375 0 -1.765625 0.484375q-0.828125 0.484375 -1.1875 1.3125q-0.34375 0.828125 -0.34375 2.296875l0 6.8125l-2.109375 0z" fill-rule="nonzero"></path><path fill="#000000" d="m473.55057 434.6229l0 1.359375l-7.578125 0q-0.015625 -0.515625 0.171875 -0.984375q0.28125 -0.765625 0.921875 -1.515625q0.640625 -0.75 1.84375 -1.734375q1.859375 -1.53125 2.515625 -2.421875q0.65625 -0.90625 0.65625 -1.703125q0 -0.828125 -0.59375 -1.40625q-0.59375 -0.578125 -1.5625 -0.578125q-1.015625 0 -1.625 0.609375q-0.609375 0.609375 -0.609375 1.6875l-1.453125 -0.140625q0.15625 -1.625 1.125 -2.46875q0.96875 -0.84375 2.59375 -0.84375q1.65625 0 2.609375 0.921875q0.96875 0.90625 0.96875 2.25q0 0.6875 -0.28125 1.359375q-0.28125 0.65625 -0.9375 1.390625q-0.65625 0.734375 -2.171875 2.015625q-1.265625 1.0625 -1.625 1.453125q-0.359375 0.375 -0.59375 0.75l5.625 0z" fill-rule="nonzero"></path><path fill="#000000" fill-opacity="0.0" d="m443.1404 202.55643l73.73227 0l0 65.07086l-73.73227 0z" fill-rule="evenodd"></path><path fill="#000000" d="m453.71854 234.59644l0 -17.1875l2.109375 0l0 6.171875q1.484375 -1.71875 3.734375 -1.71875q1.375 0 2.390625 0.546875q1.03125 0.546875 1.46875 1.515625q0.4375 0.953125 0.4375 2.78125l0 7.890625l-2.109375 0l0 -7.890625q0 -1.578125 -0.6875 -2.296875q-0.6875 -0.71875 -1.9375 -0.71875q-0.9375 0 -1.765625 0.484375q-0.828125 0.484375 -1.1875 1.3125q-0.34375 0.828125 -0.34375 2.296875l0 6.8125l-2.109375 0z" fill-rule="nonzero"></path><path fill="#000000" d="m471.45682 243.59644l-1.40625 0l0 -8.96875q-0.515625 0.484375 -1.34375 0.96875q-0.8125 0.484375 -1.46875 0.734375l0 -1.359375q1.171875 -0.5625 2.046875 -1.34375q0.890625 -0.796875 1.265625 -1.53125l0.90625 0l0 11.5z" fill-rule="nonzero"></path><path fill="#000000" fill-opacity="0.0" d="m785.69556 394.94226l73.73224 0l0 65.07086l-73.73224 0z" fill-rule="evenodd"></path><path fill="#000000" d="m796.17993 431.77914l-0.234375 -1.984375q0.703125 0.1875 1.21875 0.1875q0.703125 0 1.125 -0.234375q0.421875 -0.234375 0.6875 -0.65625q0.203125 -0.3125 0.640625 -1.5625q0.0625 -0.1875 0.1875 -0.515625l-4.71875 -12.484375l2.265625 0l2.59375 7.21875q0.5 1.359375 0.90625 2.875q0.359375 -1.453125 0.859375 -2.828125l2.671875 -7.265625l2.109375 0l-4.734375 12.671875q-0.765625 2.046875 -1.1875 2.8125q-0.5625 1.046875 -1.296875 1.53125q-0.71875 0.484375 -1.734375 0.484375q-0.609375 0 -1.359375 -0.25z" fill-rule="nonzero"></path><path fill="#000000" d="m814.75806 434.6229l0 1.359375l-7.578125 0q-0.015625 -0.515625 0.171875 -0.984375q0.28125 -0.765625 0.921875 -1.515625q0.640625 -0.75 1.84375 -1.734375q1.859375 -1.53125 2.515625 -2.421875q0.65625 -0.90625 0.65625 -1.703125q0 -0.828125 -0.59375 -1.40625q-0.59375 -0.578125 -1.5625 -0.578125q-1.015625 0 -1.625 0.609375q-0.609375 0.609375 -0.609375 1.6875l-1.453125 -0.140625q0.15625 -1.625 1.125 -2.46875q0.96875 -0.84375 2.59375 -0.84375q1.65625 0 2.609375 0.921875q0.96875 0.90625 0.96875 2.25q0 0.6875 -0.28125 1.359375q-0.28125 0.65625 -0.9375 1.390625q-0.65625 0.734375 -2.171875 2.015625q-1.265625 1.0625 -1.625 1.453125q-0.359375 0.375 -0.59375 0.75l5.625 0z" fill-rule="nonzero"></path><path fill="#000000" fill-opacity="0.0" d="m785.69556 202.55643l73.73224 0l0 65.07086l-73.73224 0z" fill-rule="evenodd"></path><path fill="#000000" d="m796.17993 239.39331l-0.234375 -1.984375q0.703125 0.1875 1.21875 0.1875q0.703125 0 1.125 -0.234375q0.421875 -0.234375 0.6875 -0.65625q0.203125 -0.3125 0.640625 -1.5625q0.0625 -0.1875 0.1875 -0.515625l-4.71875 -12.484375l2.265625 0l2.59375 7.21875q0.5 1.359375 0.90625 2.875q0.359375 -1.453125 0.859375 -2.828125l2.671875 -7.265625l2.109375 0l-4.734375 12.671875q-0.765625 2.046875 -1.1875 2.8125q-0.5625 1.046875 -1.296875 1.53125q-0.71875 0.484375 -1.734375 0.484375q-0.609375 0 -1.359375 -0.25z" fill-rule="nonzero"></path><path fill="#000000" d="m812.6643 243.59644l-1.40625 0l0 -8.96875q-0.515625 0.484375 -1.34375 0.96875q-0.8125 0.484375 -1.46875 0.734375l0 -1.359375q1.171875 -0.5625 2.046875 -1.34375q0.890625 -0.796875 1.265625 -1.53125l0.90625 0l0 11.5z" fill-rule="nonzero"></path><path fill="#000000" fill-opacity="0.0" d="m289.15616 200.38583l60.44095 0l0 44.25197l-60.44095 0z" fill-rule="evenodd"></path><path fill="#000000" d="m301.17178 227.30583l-2.96875 -9.671875l1.703125 0l1.53125 5.578125l0.578125 2.078125q0.046875 -0.15625 0.5 -2.0l1.546875 -5.65625l1.6875 0l1.4375 5.609375l0.484375 1.84375l0.5625 -1.859375l1.65625 -5.59375l1.59375 0l-3.03125 9.671875l-1.703125 0l-1.53125 -5.796875l-0.375 -1.640625l-1.953125 7.4375l-1.71875 0z" fill-rule="nonzero"></path><path fill="#000000" d="m316.26974 234.30583l-1.09375 0l0 -6.96875q-0.40625 0.375 -1.046875 0.75q-0.640625 0.375 -1.140625 0.578125l0 -1.0625q0.90625 -0.4375 1.59375 -1.046875q0.6875 -0.609375 0.96875 -1.1875l0.71875 0l0 8.9375z" fill-rule="nonzero"></path><path fill="#000000" fill-opacity="0.0" d="m333.87546 282.63788l56.283478 -22.015747l16.125977 41.228333l-56.283447 22.015747z" fill-rule="evenodd"></path><path fill="#000000" d="m354.8715 303.33127l-6.2878723 -7.9259033l1.5860901 -0.62042236l3.4579468 4.637085l1.2954102 1.7247314q-0.0132751465 -0.16256714 -0.26287842 -2.0447083l-0.619812 -5.8311462l1.5715637 -0.6147156l3.382019 4.7003174l1.1227112 1.5406189l-0.15344238 -1.9365234l-0.49517822 -5.8127747l1.4842529 -0.5805664l0.7001648 10.111603l-1.5861206 0.62039185l-3.5376282 -4.84079l-0.9468689 -1.3912964l0.8903198 7.6380005l-1.6006775 0.62609863z" fill-rule="nonzero"></path><path fill="#000000" d="m372.61392 302.78354l0.38134766 0.97494507l-5.485901 2.1458435q-0.15682983 -0.35809326 -0.16247559 -0.7585449q0.0019836426 -0.6383362 0.24249268 -1.3532104q0.24935913 -0.7350769 0.8435669 -1.7896118q0.92071533 -1.6352844 1.1359253 -2.457672q0.22406006 -0.84265137 0.002105713 -1.4101562q-0.2390747 -0.61117554 -0.83496094 -0.8478699q-0.58706665 -0.2569275 -1.2855225 0.016296387q-0.74212646 0.2902832 -1.007904 0.897583q-0.2658081 0.6072998 0.027008057 1.3987732l-1.0875549 0.30795288q-0.3446045 -1.2241821 0.11480713 -2.1085815q0.45941162 -0.8843689 1.638092 -1.345398q1.1932068 -0.46673584 2.153473 -0.07058716q0.95458984 0.3816223 1.3359375 1.3565674q0.19351196 0.49475098 0.1776123 1.0546265q-0.01586914 0.5598755 -0.28549194 1.2861328q-0.2607422 0.70599365 -0.9878235 2.0641785q-0.6150818 1.1298218 -0.76885986 1.5087585q-0.1538086 0.37890625 -0.22027588 0.72369385l4.074402 -1.5937195z" fill-rule="nonzero"></path><path fill="#000000" fill-opacity="0.0" d="m375.85458 310.65567l53.921265 27.307068l-19.968506 39.496063l-53.921265 -27.307068z" fill-rule="evenodd"></path><path fill="#000000" d="m374.42783 340.10834l1.7154236 -9.972687l1.5193787 0.7694702l-1.1507568 5.669861l-0.421875 2.1157532q0.11230469 -0.118255615 1.3484497 -1.55896l3.9320679 -4.3489075l1.5054626 0.76242065l-1.2485046 5.6553955l-0.39974976 1.8642273l1.3407593 -1.4052124l4.0014343 -4.2437134l1.421814 0.72003174l-7.0681458 7.2619324l-1.5193787 -0.7694397l1.2494507 -5.8651123l0.40570068 -1.6335449l-5.0982056 5.755005l-1.5333252 -0.7765198z" fill-rule="nonzero"></path><path fill="#000000" d="m382.11618 349.2212l1.0462341 0.3547058q-0.2557068 0.9213562 -0.03475952 1.4886475q0.22094727 0.56726074 0.8063965 0.863739q0.68304443 0.34591675 1.3966675 0.111816406q0.71362305 -0.23406982 1.0731812 -0.94522095q0.33840942 -0.6693115 0.11087036 -1.3274841q-0.20651245 -0.6650696 -0.87561035 -1.0039062q-0.27877808 -0.14117432 -0.75335693 -0.24139404l0.54156494 -0.7941284q0.09051514 0.06335449 0.14627075 0.09158325q0.6272888 0.317688 1.2912292 0.25109863q0.6710205 -0.08053589 1.0164795 -0.76379395q0.2678833 -0.5298767 0.081726074 -1.0620117q-0.17913818 -0.54611206 -0.7645874 -0.84259033q-0.55758667 -0.28237915 -1.1311951 -0.117492676q-0.55966187 0.17196655 -1.0307007 0.82662964l-0.8911743 -0.6614685q0.6817627 -0.8982544 1.5769348 -1.1104736q0.9161682 -0.2190857 1.8640442 0.2609253q0.64120483 0.32473755 1.0438538 0.87893677q0.41656494 0.5612488 0.46255493 1.1975403q0.05303955 0.622345 -0.22192383 1.1661682q-0.26083374 0.5159302 -0.7581787 0.80700684q-0.4902954 0.27713013 -1.1537781 0.2388916q0.62631226 0.52734375 0.7557678 1.2409363q0.12945557 0.7135925 -0.25827026 1.4805298q-0.521698 1.0318604 -1.6549683 1.3686829q-1.1193237 0.3439026 -2.2763062 -0.2420044q-1.0454407 -0.52944946 -1.4322205 -1.4959717q-0.37973022 -0.98043823 0.023254395 -2.0198975z" fill-rule="nonzero"></path><path fill="#000000" fill-opacity="0.0" d="m289.15616 385.9449l60.44095 0l0 44.251953l-60.44095 0z" fill-rule="evenodd"></path><path fill="#000000" d="m301.17178 412.86487l-2.96875 -9.671875l1.703125 0l1.53125 5.578125l0.578125 2.078125q0.046875 -0.15625 0.5 -2.0l1.546875 -5.65625l1.6875 0l1.4375 5.609375l0.484375 1.84375l0.5625 -1.859375l1.65625 -5.59375l1.59375 0l-3.03125 9.671875l-1.703125 0l-1.53125 -5.796875l-0.375 -1.640625l-1.953125 7.4375l-1.71875 0z" fill-rule="nonzero"></path><path fill="#000000" d="m315.64474 419.86487l0 -2.125l-3.859375 0l0 -1.015625l4.0625 -5.765625l0.890625 0l0 5.765625l1.203125 0l0 1.015625l-1.203125 0l0 2.125l-1.09375 0zm0 -3.140625l0 -4.0l-2.78125 4.0l2.78125 0z" fill-rule="nonzero"></path><path fill="#000000" fill-opacity="0.0" d="m719.9654 313.17136l57.259888 19.338593l-14.173279 41.921265l-57.259827 -19.338593z" fill-rule="evenodd"></path><path fill="#000000" d="m722.72736 342.518l0.28503418 -10.112305l1.6135864 0.5449524l-0.33581543 5.7742615l-0.11785889 2.1536255q0.09442139 -0.13302612 1.1142578 -1.7346497l3.2771606 -4.8633423l1.5987549 0.539978l-0.43463135 5.7738647l-0.1315918 1.9016113l1.128418 -1.5814514l3.3607788 -4.7691345l1.5099487 0.50997925l-5.9696045 8.192444l-1.6135864 -0.5449524l0.4058838 -5.981476l0.17016602 -1.6741943l-4.232544 6.420746l-1.6283569 -0.5499573z" fill-rule="nonzero"></path><path fill="#000000" d="m733.4326 345.35843l0.3352661 -0.99172974l5.4625244 1.8448486l-0.27026367 0.7993164q-1.1044312 0.5835266 -2.3842163 1.7345276q-1.2650146 1.1560059 -2.199768 2.506012q-0.6712036 0.9607544 -1.1854248 2.1889038l-1.0658569 -0.35998535q0.3649292 -0.98172 1.2104492 -2.262909q0.8505249 -1.29599 1.9866333 -2.3635864q1.1560059 -1.0773926 2.2408447 -1.7005005l-4.130188 -1.3948975z" fill-rule="nonzero"></path><path fill="#000000" fill-opacity="0.0" d="m621.0591 383.2257l60.440918 0l0 44.251984l-60.440918 0z" fill-rule="evenodd"></path><path fill="#000000" d="m633.0747 410.14572l-2.96875 -9.671875l1.703125 0l1.53125 5.578125l0.578125 2.078125q0.046875 -0.15625 0.5 -2.0l1.546875 -5.65625l1.6875 0l1.4375 5.609375l0.484375 1.84375l0.5625 -1.859375l1.65625 -5.59375l1.59375 0l-3.03125 9.671875l-1.703125 0l-1.53125 -5.796875l-0.375 -1.640625l-1.953125 7.4375l-1.71875 0z" fill-rule="nonzero"></path><path fill="#000000" d="m645.7351 412.3176q-0.6875 -0.25 -1.015625 -0.703125q-0.328125 -0.46875 -0.328125 -1.109375q0 -0.96875 0.703125 -1.625q0.703125 -0.671875 1.859375 -0.671875q1.15625 0 1.859375 0.6875q0.71875 0.671875 0.71875 1.640625q0 0.609375 -0.328125 1.078125q-0.3125 0.453125 -0.984375 0.703125q0.828125 0.265625 1.25 0.859375q0.4375 0.59375 0.4375 1.421875q0 1.140625 -0.8125 1.921875q-0.8125 0.78125 -2.125 0.78125q-1.3125 0 -2.125 -0.78125q-0.8125 -0.78125 -0.8125 -1.953125q0 -0.859375 0.4375 -1.4375q0.453125 -0.59375 1.265625 -0.8125zm-0.21875 -1.859375q0 0.640625 0.40625 1.046875q0.40625 0.390625 1.046875 0.390625q0.640625 0 1.03125 -0.390625q0.40625 -0.40625 0.40625 -0.984375q0 -0.59375 -0.421875 -1.0q-0.40625 -0.421875 -1.015625 -0.421875q-0.625 0 -1.046875 0.40625q-0.40625 0.40625 -0.40625 0.953125zm-0.359375 4.125q0 0.46875 0.21875 0.90625q0.234375 0.421875 0.671875 0.671875q0.4375 0.234375 0.9375 0.234375q0.78125 0 1.28125 -0.5q0.515625 -0.5 0.515625 -1.28125q0 -0.796875 -0.53125 -1.3125q-0.515625 -0.515625 -1.3125 -0.515625q-0.765625 0 -1.28125 0.515625q-0.5 0.515625 -0.5 1.28125z" fill-rule="nonzero"></path><path fill="#000000" fill-opacity="0.0" d="m690.50446 270.9064l56.06299 -22.519684l16.472412 41.07086l-56.06299 22.519684z" fill-rule="evenodd"></path><path fill="#000000" d="m711.6752 291.41306l-6.3551636 -7.8702087l1.5803833 -0.63482666l3.4973145 4.606476l1.3100586 1.7132874q-0.0146484375 -0.16247559 -0.28051758 -2.042633l-0.670166 -5.8263245l1.565918 -0.6289978l3.421997 4.6704407l1.1358032 1.5307007l-0.17016602 -1.9354248l-0.54541016 -5.809082l1.4788818 -0.5940552l0.78759766 10.106659l-1.5804443 0.63479614l-3.5787354 -4.8095093l-0.95874023 -1.3829346l0.9562378 7.6309814l-1.5948486 0.6406555z" fill-rule="nonzero"></path><path fill="#000000" d="m727.22516 285.46994l-0.98583984 0.4801941q-0.36895752 -0.5421753 -0.72595215 -0.7187195q-0.58044434 -0.27197266 -1.1894531 -0.027374268q-0.4784546 0.1921997 -0.74487305 0.61917114q-0.33892822 0.54022217 -0.34100342 1.332489q-0.00793457 0.7777405 0.4864502 2.010437q0.14147949 -0.6966858 0.5529175 -1.1818848q0.42596436 -0.49102783 1.0059204 -0.723999q1.0148926 -0.40768433 2.027832 0.061035156q1.0070801 0.45422363 1.4840088 1.6434021q0.3140869 0.7831116 0.24816895 1.5841675q-0.06591797 0.8010559 -0.5149536 1.4023743q-0.44036865 0.58102417 -1.1798096 0.87805176q-1.27594 0.5125122 -2.4456177 -0.0953064q-1.1755371 -0.62231445 -2.036316 -2.7686157q-0.9597168 -2.3928528 -0.51153564 -3.8357544q0.39038086 -1.2513123 1.6953125 -1.7754822q0.9859009 -0.3960266 1.8303833 -0.09539795q0.8386841 0.28616333 1.3443604 1.2112122zm-2.7216797 5.2186584q0.21520996 0.5365906 0.6246338 0.9277954q0.4239502 0.38537598 0.9142456 0.4746704q0.5048828 0.083465576 0.9543457 -0.097076416q0.63793945 -0.2562561 0.89837646 -0.9501953q0.25457764 -0.7084656 -0.1060791 -1.6075745q-0.34313965 -0.85562134 -1.0048828 -1.162323q-0.6472168 -0.31253052 -1.3432007 -0.032989502q-0.69592285 0.27957153 -0.97662354 0.96481323q-0.28070068 0.6852722 0.03918457 1.4828796z" fill-rule="nonzero"></path><path fill="#000000" fill-opacity="0.0" d="m621.0591 200.38583l60.440918 0l0 44.25197l-60.440918 0z" fill-rule="evenodd"></path><path fill="#000000" d="m633.0747 227.30583l-2.96875 -9.671875l1.703125 0l1.53125 5.578125l0.578125 2.078125q0.046875 -0.15625 0.5 -2.0l1.546875 -5.65625l1.6875 0l1.4375 5.609375l0.484375 1.84375l0.5625 -1.859375l1.65625 -5.59375l1.59375 0l-3.03125 9.671875l-1.703125 0l-1.53125 -5.796875l-0.375 -1.640625l-1.953125 7.4375l-1.71875 0z" fill-rule="nonzero"></path><path fill="#000000" d="m644.0476 231.9777l1.140625 -0.09375q0.140625 0.828125 0.59375 1.25q0.46875 0.421875 1.125 0.421875q0.796875 0 1.34375 -0.59375q0.546875 -0.59375 0.546875 -1.578125q0 -0.9375 -0.53125 -1.46875q-0.53125 -0.546875 -1.375 -0.546875q-0.53125 0 -0.953125 0.25q-0.421875 0.234375 -0.671875 0.609375l-1.03125 -0.125l0.875 -4.578125l4.421875 0l0 1.046875l-3.546875 0l-0.484375 2.390625q0.796875 -0.5625 1.6875 -0.5625q1.15625 0 1.953125 0.8125q0.8125 0.8125 0.8125 2.078125q0 1.203125 -0.703125 2.09375q-0.859375 1.078125 -2.34375 1.078125q-1.21875 0 -1.984375 -0.671875q-0.765625 -0.6875 -0.875 -1.8125z" fill-rule="nonzero"></path></g></svg>

